<svg width="131" height="38" viewBox="0 0 131 38" fill="none" xmlns="http://www.w3.org/2000/svg">
<rect width="131" height="38" fill="#F5F5F5"/>
<g id="Section 1">
<path d="M-2854 -5870C-2854 -5871.1 -2853.1 -5872 -2852 -5872H1411C1412.1 -5872 1413 -5871.1 1413 -5870V3481C1413 3482.1 1412.1 3483 1411 3483H-2852C-2853.1 3483 -2854 3482.1 -2854 3481V-5870Z" fill="white"/>
<path d="M-2852 -5871H1411V-5873H-2852V-5871ZM1412 -5870V3481H1414V-5870H1412ZM1411 3482H-2852V3484H1411V3482ZM-2853 3481V-5870H-2855V3481H-2853ZM-2852 3482C-2852.55 3482 -2853 3481.55 -2853 3481H-2855C-2855 3482.66 -2853.66 3484 -2852 3484V3482ZM1412 3481C1412 3481.55 1411.55 3482 1411 3482V3484C1412.66 3484 1414 3482.66 1414 3481H1412ZM1411 -5871C1411.55 -5871 1412 -5870.55 1412 -5870H1414C1414 -5871.66 1412.66 -5873 1411 -5873V-5871ZM-2852 -5873C-2853.66 -5873 -2855 -5871.66 -2855 -5870H-2853C-2853 -5870.55 -2852.55 -5871 -2852 -5871V-5873Z" fill="black" fill-opacity="0.1"/>
<g id="About us">
<rect width="1920" height="8706" transform="translate(-607 -5323)" fill="white"/>
<g id="Group 2220">
<g id="Group 2120">
<path id="Vector" d="M45.4004 21.4369C45.2971 21.5383 45.1255 21.6642 44.8851 21.8156C44.6446 21.9669 44.331 22.1182 43.952 22.2703C43.573 22.4223 43.0928 22.5518 42.5351 22.6616C41.9774 22.7714 41.3364 22.8256 40.6158 22.8256C39.2247 22.8256 38.0224 22.6074 37.0097 22.1689C35.9969 21.7304 35.1592 21.1131 34.4975 20.3375C33.8357 19.5618 33.3512 18.6285 33.0418 17.5587C32.7324 16.4888 32.5781 15.3148 32.5781 14.0352C32.5781 12.7555 32.7454 11.5717 33.0806 10.4863C33.4158 9.40096 33.9175 8.46132 34.5879 7.66948C35.2583 6.87764 36.0952 6.25895 37.1001 5.8127C38.105 5.36646 39.285 5.14404 40.6416 5.14404C41.3113 5.14404 41.9171 5.20317 42.4576 5.32001C42.998 5.43685 43.4696 5.57691 43.8745 5.73669C44.2793 5.89646 44.6138 6.06469 44.8793 6.24206L45.4844 6.68408C45.6387 6.81922 45.7715 6.9797 45.8835 7.16411C45.9955 7.34852 46.0507 7.55123 46.0507 7.76943C46.0507 8.10728 45.9215 8.44301 45.6646 8.78016C45.4091 9.11501 45.1248 9.42773 44.8147 9.71488L44.1185 9.09549C43.8601 8.88433 43.573 8.69992 43.2557 8.5324C42.9385 8.36489 42.5774 8.23819 42.174 8.12839C41.7707 8.01859 41.3127 7.96439 40.8218 7.96439C39.9461 7.96439 39.2118 8.13754 38.6196 8.48243C38.0275 8.82732 37.5501 9.27779 37.1898 9.83383C36.8295 10.3899 36.5725 11.0255 36.4168 11.7413C36.261 12.4571 36.1849 13.1856 36.1849 13.9261C36.1849 14.7179 36.2625 15.4745 36.4168 16.1995C36.5711 16.9245 36.8374 17.5636 37.2157 18.1189C37.5939 18.6743 38.087 19.1212 38.6964 19.4577C39.3058 19.7941 40.0659 19.963 40.9761 19.963C41.457 19.963 41.8991 19.9039 42.3025 19.7871C42.6736 19.6822 43.032 19.538 43.3713 19.357C43.6571 19.2043 43.9286 19.0269 44.1824 18.827L44.7623 18.347L45.1227 18.7693C45.261 18.9393 45.3899 19.1164 45.5088 19.3C45.6248 19.4779 45.7282 19.6635 45.8182 19.8553C45.9043 20.0412 45.9474 20.2094 45.9474 20.3607C45.9474 20.5789 45.9043 20.7647 45.8182 20.9238C45.7321 21.0829 45.5957 21.244 45.4062 21.4292L45.4004 21.4369ZM58.6749 19.4999C58.6749 20.8386 58.8731 21.8128 59.2707 22.4223C58.9599 22.5405 58.6706 22.6264 58.4022 22.6757C58.1247 22.7273 57.8427 22.7528 57.5602 22.7517C56.9387 22.7517 56.4671 22.6335 56.1477 22.3963C55.8283 22.1591 55.6251 21.8205 55.539 21.3799C55.1586 21.7698 54.6576 22.0999 54.036 22.3723C53.4144 22.6447 52.6535 22.7784 51.7556 22.7784C51.2825 22.7776 50.8116 22.7139 50.356 22.5891C49.8894 22.4624 49.4659 22.2555 49.0855 21.9683C48.7051 21.6811 48.3943 21.2968 48.1524 20.8154C47.9105 20.334 47.7899 19.7476 47.7899 19.0558C47.7899 18.1942 48.0017 17.4932 48.4251 16.9533C48.8488 16.4123 49.3941 15.9744 50.0186 15.6737C50.6646 15.3612 51.3486 15.1458 52.0915 15.0283L54.1386 14.8002L54.7487 14.7749H55.3057V14.3125C55.3057 13.6614 55.1284 13.199 54.7746 12.9245C54.4207 12.65 53.8458 12.5127 53.0519 12.5127C52.309 12.5127 51.6479 12.6324 51.0694 12.8682C50.4909 13.1039 49.9246 13.3763 49.3719 13.6811C49.13 13.3925 48.9355 13.0758 48.789 12.7281C48.6426 12.3804 48.5687 12.1228 48.5687 11.9538C48.5687 11.7166 48.7022 11.4879 48.9706 11.2676C49.2391 11.0473 49.6059 10.8481 50.0717 10.6707C50.5375 10.4933 51.0737 10.3491 51.6795 10.2385C52.2853 10.128 52.9234 10.0731 53.5974 10.0731C54.5305 10.0731 55.3201 10.1668 55.9682 10.3526C56.6164 10.5384 57.1432 10.827 57.5488 11.2162C57.9543 11.6054 58.245 12.0932 58.4173 12.6774C58.5895 13.2616 58.6757 13.9444 58.6757 14.7228V19.4999H58.6749ZM55.3588 16.5521H54.9964C54.8743 16.5521 54.7538 16.5613 54.6339 16.5775L53.3512 16.7295C52.9206 16.7978 52.5516 16.916 52.2243 17.0857C51.897 17.2553 51.6286 17.4756 51.4204 17.7473C51.2123 18.019 51.1096 18.3667 51.1096 18.789C51.1096 19.2634 51.2474 19.6653 51.5245 19.9961C51.8015 20.3269 52.2674 20.4916 52.9241 20.4916C53.2398 20.4935 53.5541 20.4506 53.8573 20.3642C54.1302 20.2886 54.3916 20.1776 54.6346 20.0341C54.8593 19.8983 55.0366 19.7505 55.1658 19.5893C55.295 19.4281 55.3595 19.2796 55.3595 19.1444V16.5521H55.3588ZM65.1277 11.5463C65.4034 11.2247 65.834 10.8988 66.4197 10.5609C67.0054 10.2231 67.7455 10.0654 68.6412 10.0654C69.2786 10.0654 69.8859 10.171 70.4629 10.3821C71.04 10.5933 71.5518 10.9382 71.999 11.4112C72.4462 11.8842 72.8043 12.5127 73.0713 13.2919C73.3383 14.071 73.4719 15.029 73.4719 16.1636C73.4719 17.4847 73.3168 18.5736 73.0067 19.4295C72.6967 20.2854 72.289 20.9639 71.8059 21.4622C71.3228 21.9606 70.768 22.3069 70.1658 22.5166C69.5636 22.7264 68.9599 22.8214 68.357 22.8214C67.8574 22.8214 67.4225 22.7665 67.0528 22.656C66.6831 22.5455 66.368 22.4237 66.1096 22.2872C65.8513 22.1506 65.6531 22.0162 65.516 21.8803L65.2576 21.6009V27.8476H61.7406V10.4201L62.0535 10.3695C62.1748 10.3511 62.297 10.3384 62.4196 10.3315L62.9148 10.3188C63.4891 10.3188 63.9771 10.4124 64.3769 10.5982C64.7767 10.784 65.0229 11.0909 65.1342 11.5386L65.1277 11.5463ZM69.7933 16.2481C69.7933 15.7399 69.7502 15.2662 69.6641 14.8249C69.5779 14.3836 69.4365 14.0035 69.2391 13.6811C69.0472 13.3647 68.771 13.1056 68.4403 12.9315C68.1051 12.7534 67.6974 12.664 67.2165 12.664C66.4951 12.664 65.9927 12.7999 65.7091 13.0709C65.4256 13.3419 65.2842 13.6389 65.2842 13.9605V19.3479C65.4206 19.4837 65.6661 19.6435 66.0185 19.8307C66.3709 20.0179 66.7793 20.1101 67.2423 20.1101C68.118 20.1101 68.7625 19.7723 69.1753 19.0938C69.588 18.4152 69.794 17.4679 69.794 16.2474L69.7933 16.2481ZM76.1929 20.612C76.0723 20.2741 75.9941 19.9173 75.9597 19.5442L75.908 18.4251V6.64114L76.297 6.59046L76.6846 6.55246L77.0995 6.53979C77.3776 6.53995 77.6552 6.5654 77.9285 6.61581C78.1982 6.66392 78.4544 6.76782 78.68 6.92057C78.9112 7.0808 79.0982 7.29485 79.2241 7.54349C79.3626 7.80603 79.4323 8.1488 79.4323 8.57252V10.3765H83.0606V12.9435H79.4323V18.3632C79.4323 19.5456 79.9246 20.1355 80.9094 20.1355C81.1513 20.1355 81.3796 20.0975 81.5963 20.0214C81.8131 19.9454 82.0055 19.861 82.1792 19.7681C82.3386 19.6836 82.4904 19.5858 82.6328 19.476L82.9056 19.2472C83.164 19.6202 83.3628 19.9426 83.5013 20.215C83.6398 20.4874 83.7095 20.7429 83.7095 20.9822C83.7095 21.2046 83.619 21.4228 83.4367 21.6368C83.2544 21.8508 83.0003 22.0471 82.6723 22.2266C82.3443 22.4061 81.9473 22.5504 81.4808 22.663C80.9797 22.7781 80.4665 22.8341 79.9519 22.8298C78.8803 22.8298 78.0469 22.6257 77.4512 22.2196C76.8691 21.8306 76.4288 21.2696 76.1944 20.6183L76.1929 20.612ZM91.9861 20.2812C92.4196 20.2812 92.8008 20.2347 93.131 20.1404C93.4611 20.0461 93.7554 19.9335 94.0138 19.7976C94.2722 19.6618 94.499 19.514 94.69 19.3528L95.2104 18.9079C95.4539 19.216 95.6712 19.5432 95.8599 19.8863C96.0853 20.2847 96.1973 20.6113 96.1973 20.8717C96.1973 21.2447 95.982 21.5826 95.5499 21.8881C95.1874 22.1591 94.6727 22.392 94.0081 22.587C93.3434 22.782 92.5611 22.8791 91.6631 22.8791C90.8506 22.8791 90.0517 22.7777 89.2658 22.5743C88.4798 22.3709 87.78 22.0155 87.167 21.5073C86.554 20.9991 86.0566 20.3107 85.6762 19.4619C85.2957 18.613 85.1063 17.5263 85.1063 16.222C85.1063 15.155 85.2749 14.2358 85.6116 13.465C85.9482 12.6943 86.3975 12.0545 86.9595 11.5463C87.5216 11.0381 88.1554 10.6665 88.8638 10.4272C89.5722 10.1879 90.2979 10.0717 91.0408 10.0717C92.0084 10.0717 92.8281 10.2195 93.5028 10.5166C94.1775 10.8136 94.7244 11.2113 95.1479 11.711C95.5714 12.2108 95.8779 12.7823 96.0681 13.4263C96.2583 14.0703 96.3531 14.7474 96.3531 15.459V15.8145L96.3401 16.2467L96.3143 16.6915C96.3087 16.8067 96.2958 16.9214 96.2755 17.035H88.6312C88.7009 17.9669 88.9952 18.7418 89.5155 19.3605C90.0359 19.9792 90.8578 20.2875 91.9847 20.2875L91.9861 20.2812ZM93.1669 15.1219C93.1669 14.3089 93.0061 13.648 92.6845 13.1398C92.3629 12.6317 91.7851 12.3776 90.9518 12.3776C90.2391 12.3776 89.6699 12.619 89.2449 13.1025C88.82 13.5861 88.5989 14.259 88.5989 15.1226H93.1597L93.1669 15.1219ZM102.488 11.6026C102.591 11.4513 102.729 11.2838 102.902 11.0987C103.089 10.9027 103.303 10.7331 103.537 10.5947C103.787 10.4434 104.064 10.3174 104.366 10.2167C104.68 10.1141 105.008 10.0629 105.338 10.0654C105.546 10.0654 105.766 10.0823 105.999 10.1161C106.231 10.1499 106.447 10.2132 106.646 10.3061C106.845 10.399 107.005 10.5173 107.125 10.6841C107.246 10.8509 107.307 11.0409 107.307 11.2753C107.307 11.6449 107.212 12.0693 107.022 12.5493C106.833 13.0293 106.642 13.4376 106.452 13.7768C106.165 13.5396 105.864 13.3573 105.571 13.2306C105.278 13.104 104.932 13.0406 104.534 13.0406C103.999 13.0406 103.549 13.1933 103.187 13.4981C102.825 13.8029 102.641 14.1689 102.641 14.594V22.8193H99.1244V10.4279L99.4352 10.3772C99.5555 10.3588 99.6768 10.3462 99.7984 10.3392L100.291 10.3265C100.843 10.3265 101.323 10.4321 101.729 10.6412C102.135 10.8502 102.39 11.174 102.494 11.6104L102.488 11.6026ZM112.508 11.6026C112.612 11.4513 112.75 11.2838 112.923 11.0987C113.11 10.9027 113.324 10.7331 113.558 10.5947C113.808 10.4434 114.084 10.3174 114.387 10.2167C114.7 10.1141 115.029 10.0629 115.359 10.0654C115.58 10.0667 115.801 10.0836 116.019 10.1161C116.253 10.1499 116.469 10.2132 116.667 10.3061C116.857 10.3912 117.022 10.5211 117.147 10.6841C117.268 10.8439 117.329 11.0409 117.329 11.2753C117.329 11.6449 117.233 12.0693 117.044 12.5493C116.854 13.0293 116.663 13.4376 116.473 13.7768C116.179 13.5396 115.884 13.3573 115.592 13.2306C115.3 13.104 114.953 13.0406 114.556 13.0406C114.02 13.0406 113.571 13.1933 113.208 13.4981C112.845 13.8029 112.664 14.1689 112.664 14.594V22.8193H109.147V10.4279L109.457 10.3772C109.578 10.3588 109.699 10.3462 109.821 10.3392L110.313 10.3265C110.866 10.3265 111.345 10.4321 111.751 10.6412C111.944 10.7358 112.114 10.8721 112.246 11.0399C112.378 11.2078 112.47 11.4028 112.515 11.6104L112.508 11.6026ZM129.327 19.4928C129.327 20.8316 129.525 21.8057 129.923 22.4153C129.612 22.5335 129.323 22.6194 129.054 22.6686C128.786 22.7179 128.505 22.7447 128.211 22.7447C127.59 22.7447 127.119 22.6264 126.8 22.3892C126.48 22.152 126.276 21.8135 126.189 21.3728C125.809 21.7628 125.309 22.0929 124.686 22.3653C124.064 22.6377 123.304 22.7714 122.406 22.7714C121.94 22.7714 121.473 22.701 121.006 22.5814C120.546 22.4573 120.115 22.2464 119.737 21.9606C119.356 21.6734 119.045 21.2891 118.804 20.8077C118.562 20.3262 118.441 19.7399 118.441 19.048C118.441 18.1865 118.652 17.4855 119.076 16.9456C119.499 16.4057 120.03 15.9785 120.669 15.666C121.308 15.3535 121.999 15.1381 122.743 15.0205L124.791 14.7925L125.399 14.7672H125.956V14.3047C125.956 13.6537 125.779 13.1912 125.425 12.9167C125.071 12.6422 124.496 12.505 123.702 12.505C122.959 12.505 122.299 12.6246 121.721 12.8604C121.14 13.0988 120.573 13.3702 120.024 13.6734C119.782 13.3848 119.586 13.068 119.44 12.7203C119.295 12.3726 119.221 12.115 119.221 11.9461C119.221 11.7089 119.354 11.4802 119.623 11.2598C119.891 11.0395 120.258 10.8403 120.724 10.663C121.189 10.4856 121.726 10.3413 122.331 10.2308C122.964 10.1182 123.606 10.0628 124.249 10.0654C125.182 10.0654 125.972 10.159 126.62 10.3448C127.268 10.5306 127.794 10.8192 128.201 11.2085C128.607 11.5977 128.897 12.0855 129.062 12.6697C129.227 13.2539 129.32 13.9366 129.32 14.7151V19.4921L129.327 19.4928ZM126.009 16.5451H125.647C125.526 16.5452 125.404 16.5537 125.284 16.5704L124.001 16.7225C123.57 16.7907 123.202 16.909 122.874 17.0786C122.559 17.2373 122.285 17.4632 122.071 17.7395C121.863 18.0105 121.76 18.3589 121.76 18.7812C121.76 19.2556 121.898 19.6576 122.174 19.9884C122.451 20.3192 122.917 20.4839 123.574 20.4839C123.902 20.4839 124.22 20.4416 124.507 20.3572C124.794 20.2727 125.06 20.1629 125.284 20.0264C125.509 19.8898 125.686 19.7427 125.816 19.5815C125.945 19.4204 126.009 19.2718 126.009 19.1367L126.009 16.5444L126.009 16.5451Z" fill="#0F5379"/>
<g id="Group 2119">
<path id="Vector_2" fill-rule="evenodd" clip-rule="evenodd" d="M0 10.9121L18.8057 10.9157V4.00732L0 10.9121Z" fill="#F2994A"/>
<path id="Vector_3" opacity="0.51" fill-rule="evenodd" clip-rule="evenodd" d="M18.8047 4.00532V28.3953L27.6871 0.743652L18.8047 4.00532Z" fill="#56CCF2"/>
<path id="Vector_4" fill-rule="evenodd" clip-rule="evenodd" d="M18.8141 10.915L11.7031 10.9136L18.8141 28.3959V10.915Z" fill="#2D9CDB"/>
<path id="Vector_5" fill-rule="evenodd" clip-rule="evenodd" d="M0 10.9115L13.5186 15.3993L11.6954 10.9136L0 10.9115Z" fill="#EB5757"/>
</g>
</g>
<g id="Group 1335">
<g id="Group">
<path id="Vector_6" fill-rule="evenodd" clip-rule="evenodd" d="M84.5628 36.0496L82.2222 37.2565C82.0047 37.3687 81.7357 37.2866 81.6212 37.071C81.5757 36.9861 81.56 36.8888 81.5765 36.7942L82.0257 34.238L80.1344 32.4278C79.9585 32.2595 79.9547 31.9834 80.1263 31.8107C80.1946 31.7419 80.2841 31.6972 80.381 31.6834L82.9981 31.3124L84.1684 28.9871C84.2772 28.7711 84.5467 28.6823 84.7642 28.7889C84.852 28.8314 84.9231 28.901 84.9663 28.9871L86.1366 31.3124L88.7538 31.6834C88.836 31.6949 88.9134 31.7289 88.9769 31.7813C89.0405 31.8338 89.0878 31.9027 89.1135 31.9801C89.1392 32.0576 89.1422 32.1406 89.1222 32.2197C89.1022 32.2988 89.06 32.3708 89.0004 32.4276L87.109 34.2378L87.5582 36.794C87.5682 36.8505 87.5666 36.9083 87.5537 36.9642C87.5409 37.0201 87.5168 37.073 87.4831 37.1198C87.4493 37.1666 87.4065 37.2064 87.357 37.2369C87.3076 37.2675 87.2525 37.2881 87.1948 37.2978C87.0984 37.314 86.9991 37.2987 86.9126 37.2514L84.572 36.0445L84.5628 36.0496ZM94.8979 36.0496L92.5568 37.2565C92.3393 37.3687 92.0703 37.2866 91.9559 37.071C91.9103 36.9861 91.8946 36.8888 91.9112 36.7942L92.3604 34.238L90.469 32.4278C90.2931 32.2595 90.2893 31.9834 90.461 31.8107C90.5293 31.7419 90.6188 31.6972 90.7156 31.6834L93.3328 31.3124L94.5031 28.9871C94.6118 28.7711 94.8813 28.6823 95.0988 28.7889C95.1866 28.8314 95.2577 28.901 95.301 28.9871L96.4713 31.3124L99.0884 31.6834C99.1707 31.6949 99.248 31.7289 99.3116 31.7813C99.3752 31.8338 99.4225 31.9027 99.4482 31.9801C99.4738 32.0576 99.4768 32.1406 99.4568 32.2197C99.4368 32.2988 99.3946 32.3708 99.335 32.4276L97.4437 34.2378L97.8929 36.794C97.9028 36.8505 97.9013 36.9083 97.8884 36.9642C97.8755 37.0201 97.8515 37.073 97.8177 37.1198C97.784 37.1666 97.7411 37.2064 97.6917 37.2369C97.6422 37.2675 97.5871 37.2881 97.5295 37.2978C97.433 37.314 97.3337 37.2987 97.2472 37.2514L94.9066 36.0445L94.8979 36.0496ZM105.235 36.0496L102.894 37.2565C102.676 37.3687 102.407 37.2866 102.293 37.071C102.247 36.9861 102.231 36.8888 102.248 36.7942L102.697 34.238L100.806 32.4278C100.746 32.3711 100.704 32.299 100.684 32.2199C100.664 32.1408 100.667 32.0578 100.692 31.9802C100.718 31.9027 100.765 31.8338 100.829 31.7813C100.893 31.7288 100.97 31.6949 101.052 31.6834L103.67 31.3124L104.84 28.9871C104.949 28.7711 105.218 28.6823 105.436 28.7889C105.523 28.8315 105.594 28.9011 105.638 28.9871L106.808 31.3124L109.425 31.6834C109.669 31.7182 109.837 31.9396 109.802 32.1779C109.788 32.2729 109.742 32.3606 109.672 32.4276L107.78 34.2378L108.23 36.794C108.271 37.0316 108.108 37.2572 107.866 37.2978C107.77 37.314 107.67 37.2987 107.584 37.2514L105.243 36.0445L105.235 36.0496ZM115.57 36.0496L113.229 37.2565C113.177 37.2832 113.121 37.2996 113.062 37.3047C113.004 37.3098 112.945 37.3036 112.889 37.2863C112.833 37.2691 112.782 37.2412 112.737 37.2042C112.692 37.1673 112.655 37.122 112.628 37.071C112.583 36.9862 112.567 36.8888 112.581 36.7942L113.03 34.238L111.139 32.4278C111.079 32.3711 111.037 32.299 111.017 32.2199C110.996 32.1408 110.999 32.0578 111.025 31.9802C111.051 31.9027 111.098 31.8338 111.162 31.7813C111.225 31.7288 111.303 31.6949 111.385 31.6834L114.002 31.3124L115.173 28.9871C115.281 28.7711 115.551 28.6823 115.768 28.7889C115.856 28.8315 115.927 28.9011 115.97 28.9871L117.141 31.3124L119.758 31.6834C119.816 31.6916 119.871 31.7108 119.922 31.7401C119.972 31.7694 120.016 31.8081 120.051 31.8541C120.086 31.9 120.111 31.9523 120.125 32.0078C120.14 32.0634 120.143 32.1212 120.134 32.1779C120.12 32.2706 120.075 32.3606 120.004 32.4276L118.113 34.2378L118.562 36.794C118.576 36.8743 118.567 36.9569 118.536 37.0324C118.505 37.1079 118.453 37.1734 118.385 37.2213C118.318 37.2692 118.239 37.2976 118.156 37.3034C118.073 37.3092 117.99 37.292 117.916 37.2539L115.575 36.047L115.57 36.0496ZM127.287 30.9369V36.7611L125.906 36.0493L123.565 37.2563C123.492 37.2944 123.409 37.3116 123.326 37.3059C123.243 37.3001 123.164 37.2717 123.096 37.2238C123.029 37.1758 122.977 37.1104 122.946 37.0348C122.914 36.9593 122.905 36.8766 122.92 36.7963L123.369 34.2401L121.477 32.4299C121.418 32.3732 121.375 32.3011 121.355 32.222C121.335 32.1429 121.338 32.0598 121.364 31.9823C121.39 31.9048 121.437 31.8358 121.501 31.7834C121.564 31.7309 121.642 31.697 121.724 31.6855L124.341 31.3145L125.511 28.9892C125.62 28.7731 125.89 28.6844 126.107 28.791C126.195 28.8334 126.266 28.9031 126.309 28.9892L127.291 30.9366L127.287 30.9369Z" fill="#FDC600"/>
</g>
<path id="Vector_7" d="M123.512 37.1672L125.902 35.9352L128.291 37.1672C128.347 37.1963 128.411 37.2094 128.474 37.205C128.538 37.2005 128.599 37.1787 128.65 37.1421C128.702 37.1054 128.742 37.0553 128.766 36.9975C128.789 36.9397 128.796 36.8765 128.786 36.8151L128.329 34.206L130.262 32.3582C130.316 32.3072 130.351 32.24 130.362 32.167C130.388 31.9843 130.259 31.8146 130.073 31.7884L127.402 31.4077L126.207 29.0337L126.101 29.0847L126.207 29.0337C126.179 28.9778 126.135 28.9307 126.081 28.8977C126.027 28.8648 125.965 28.8473 125.901 28.8473C125.838 28.8473 125.775 28.8648 125.721 28.8977C125.667 28.9307 125.624 28.9778 125.596 29.0337L124.401 31.4077L121.729 31.7884C121.666 31.7973 121.607 31.8233 121.559 31.8635C121.51 31.9037 121.474 31.9564 121.454 32.0157C121.434 32.075 121.432 32.1386 121.447 32.1991C121.463 32.2597 121.495 32.3148 121.541 32.3582L121.623 32.2755L121.541 32.3582L123.474 34.206L123.017 36.8151C123.005 36.8874 123.017 36.962 123.052 37.027C123.072 37.0658 123.101 37.1003 123.135 37.1283C123.17 37.1564 123.209 37.1776 123.252 37.1906C123.295 37.2036 123.34 37.2083 123.384 37.2043C123.429 37.2002 123.472 37.1877 123.512 37.1672H123.512Z" fill="#FDC600"/>
</g>
</g>
</g>
</g>
</svg>
