<svg width="100" height="25" viewBox="0 0 100 25" fill="none" xmlns="http://www.w3.org/2000/svg">
<g id="clockify-logo 5" clip-path="url(#clip0_382_3358)">
<g id="Canvas">
<g id="Group">
<g id="Vector">
<g id="Vector_2">
<path id="Vector_3" fill-rule="evenodd" clip-rule="evenodd" d="M10.8648 7.32925L15.0897 3.09961L16.299 4.30942L12.0741 8.53907L10.8648 7.32925ZM9.15288 11.6516C8.32609 11.6516 7.65625 10.9785 7.65625 10.1473C7.65625 9.317 8.32609 8.64296 9.15288 8.64296C9.97967 8.64296 10.6495 9.317 10.6495 10.1473C10.6495 10.9785 9.97967 11.6516 9.15288 11.6516ZM16.3187 16.0204L15.1094 17.2311L10.8845 13.0014L12.0938 11.7907L16.3187 16.0204Z" fill="#222222"/>
</g>
</g>
<g id="Vector_4">
<g id="Vector_5">
<path id="Vector_6" fill-rule="evenodd" clip-rule="evenodd" d="M93.4662 21.7758C93.0777 22.6542 92.5208 23.3481 91.7954 23.8546C91.0692 24.3621 90.2669 24.6154 89.39 24.6154C88.1569 24.6154 87.0431 24.1672 86.0477 23.2716L87.3385 20.9645C87.9292 21.5225 88.5415 21.8016 89.1746 21.8016C89.8077 21.8016 90.3223 21.5732 90.7192 21.1165C91.1154 20.6605 91.3146 20.1616 91.3146 19.6215C91.3146 19.3845 89.4992 14.7625 85.87 5.75458H88.9085L92.9346 15.6916L96.9615 5.75458H100L93.4662 21.7758ZM83.0185 2.53469C82.4108 2.53469 81.9377 2.72445 81.6008 3.10483C81.2623 3.48521 81.0938 3.99695 81.0938 4.63921V5.75458H84.6392V8.036H81.0938V19.2412H78.2577V8.036H76.5616V5.75458H78.2577V4.71478C78.2577 3.29545 78.6839 2.1672 79.5369 1.33088C80.3885 0.493718 81.4185 0.0755644 82.6262 0.0755644C83.8331 0.0755644 84.9338 0.523768 85.9308 1.41932L84.7654 3.42166C84.2085 2.83092 83.6262 2.53469 83.0185 2.53469ZM72.1558 3.5994C71.666 3.5994 71.2441 3.42167 70.889 3.06705C70.5348 2.71244 70.3572 2.28998 70.3572 1.7997C70.3572 1.30942 70.5348 0.886969 70.889 0.532357C71.2441 0.176882 71.666 0 72.1558 0C72.6446 0 73.0675 0.176882 73.4217 0.532357C73.7758 0.886969 73.9535 1.30942 73.9535 1.7997C73.9535 2.28998 73.7758 2.71244 73.4217 3.06705C73.0675 3.42167 72.6446 3.5994 72.1558 3.5994ZM64.7969 19.2412L60.7959 13.3338L58.7444 15.4125V19.2412H55.9081V0.430176H58.7444V11.4834L64.2146 5.75458H67.8605L62.7454 11.103L68.2405 19.2412H64.7969ZM49.0613 16.8576C49.7294 16.8576 50.3778 16.6902 51.0065 16.3648L52.817 18.1782C51.5459 19.0205 50.1471 19.4438 48.6178 19.4438C46.7438 19.4438 45.1315 18.8058 43.7815 17.5299C42.4306 16.254 41.7556 14.5848 41.7556 12.5232C41.7556 10.4616 42.4606 8.78385 43.8698 7.49074C45.2789 6.19763 46.9977 5.55108 49.0227 5.55108C50.3958 5.55108 51.624 5.87479 52.7107 6.51877L50.684 8.54769C50.1154 8.30985 49.545 8.18792 48.9721 8.18792C47.7902 8.18792 46.7653 8.58123 45.8956 9.36685C45.0259 10.1525 44.5919 11.1665 44.5919 12.409C44.5919 13.6506 45.0225 14.7033 45.8828 15.5654C46.7438 16.4265 47.8031 16.8576 49.0613 16.8576ZM32.3865 19.4438C30.3606 19.4438 28.6728 18.7715 27.3219 17.4286C25.9711 16.0848 25.2961 14.4414 25.2961 12.4975C25.2961 10.5544 25.9711 8.91008 27.3219 7.56716C28.6728 6.2234 30.3606 5.55108 32.3865 5.55108C34.4123 5.55108 36.1002 6.2234 37.451 7.56716C38.8018 8.91008 39.4768 10.5544 39.4768 12.4975C39.4768 14.4414 38.8018 16.0848 37.451 17.4286C36.1002 18.7715 34.4123 19.4438 32.3865 19.4438ZM35.4381 9.31623C34.6362 8.49623 33.6189 8.08661 32.3865 8.08661C31.154 8.08661 30.1368 8.49623 29.3358 9.31623C28.5329 10.1362 28.1324 11.1966 28.1324 12.4975C28.1324 13.7992 28.5329 14.8595 29.3358 15.6787C30.1368 16.4987 31.154 16.9082 32.3865 16.9082C33.6189 16.9082 34.6362 16.4987 35.4381 15.6787C36.2392 14.8595 36.6405 13.7992 36.6405 12.4975C36.6405 11.1966 36.2392 10.1362 35.4381 9.31623ZM19.5094 0.430176H22.3458V19.2412H19.5094V0.430176ZM9.19423 16.6532C10.0458 16.6532 10.8572 16.4832 11.6008 16.181L13.6644 18.2478C12.341 18.987 10.8178 19.4121 9.19423 19.4121C4.11682 19.4121 0 15.2906 0 10.2075C0 5.12348 4.11682 1.00202 9.19423 1.00202C10.8015 1.00202 12.311 1.41675 13.6249 2.1423L11.5957 4.17468C10.8529 3.87416 10.0442 3.70415 9.19423 3.70415C5.63832 3.70415 2.75569 6.60291 2.75569 10.1792C2.75569 13.7545 5.63832 16.6532 9.19423 16.6532ZM73.5486 19.2412H70.7123V5.75458H73.5486V19.2412Z" fill="#03A9F4"/>
</g>
</g>
</g>
</g>
</g>
<defs>
<clipPath id="clip0_382_3358">
<rect width="100" height="24.6154" fill="white"/>
</clipPath>
</defs>
</svg>
