<svg width="114" height="39" viewBox="0 0 114 39" fill="none" xmlns="http://www.w3.org/2000/svg">
<path fill-rule="evenodd" clip-rule="evenodd" d="M24.2728 7.43816C23.9525 7.77826 23.5758 8.11835 23.1803 8.49425L21.6169 9.90833H26.1564V11.6625H18.848V10.7496L21.3908 7.83196C21.8617 7.38446 22.2573 6.99067 22.5398 6.65057C22.8224 6.32838 23.1614 5.93458 23.3121 5.68399C23.5005 5.39759 24.4611 4.5205 24.3669 3.42862C23.9525 2.21143 22.7659 2.10403 22.0689 2.19353C21.3532 2.21143 20.5244 3.12432 20.3925 3.91191C20.3925 3.91191 19.0929 3.73291 18.8103 3.60761C18.8292 3.26752 19.4507 1.78184 20.6562 1.11955C21.2402 0.868949 21.6169 0.743652 22.295 0.743652C22.8224 0.743652 23.2933 0.81525 23.7265 0.940548C24.1597 1.06585 24.5176 1.26274 24.819 1.51334C25.1204 1.76394 25.6289 2.06823 25.7796 2.44413C26.0245 2.92742 26.2129 3.42861 26.2129 3.92981C26.2694 5.03959 25.2711 6.13148 25.0827 6.41787C24.8567 6.77587 24.593 7.11597 24.2728 7.43816ZM15.7966 30.7437C7.13199 30.7437 0.125 24.067 0.125 15.851C0.125 7.61716 7.15083 0.958449 15.7966 0.958449V6.22098C10.2023 6.22098 5.66279 10.5348 5.66279 15.851C5.66279 21.1673 10.2023 25.499 15.7966 25.499C20.2419 25.499 24.0091 22.7783 25.3841 19.0014C22.6717 19.0014 18.8292 18.9835 18.8292 18.9835V13.4704C18.8292 13.4704 30.677 13.4704 31.2797 13.4704C31.4116 14.2401 31.4869 15.0456 31.4869 15.851C31.4681 24.0849 24.4611 30.7437 15.7966 30.7437ZM36.7422 3.60761H37.797V27.1196H36.7422V3.60761ZM52.0559 22.7067C51.1517 23.2257 50.0216 23.4942 48.7031 23.4942C47.328 23.4942 46.179 23.2794 45.2937 22.832C44.3896 22.3845 43.8057 21.7759 43.5043 20.9883C43.2218 20.2007 43.0711 19.0193 43.0711 17.4441V12.7365C43.0711 11.573 43.1088 10.7138 43.2029 10.1231C43.2971 9.55033 43.5608 8.97754 44.0129 8.44055C44.465 7.90356 45.0677 7.47396 45.8588 7.16967C46.6499 6.86537 47.5541 6.70427 48.5712 6.70427C49.9651 6.70427 51.1141 6.93697 52.0182 7.42026C52.9223 7.90355 53.5062 8.49425 53.8076 9.21024C54.0901 9.92623 54.1467 9.71143 54.1467 11.215V12.468L50.3041 12.4143V11.3224C50.3041 10.499 50.2099 9.97993 50.0027 9.76513C49.7955 9.56823 49.3623 9.46083 48.7031 9.46083C47.9308 9.46083 47.4599 9.58613 47.2527 9.83673C47.0455 10.0873 46.9513 10.6243 46.9513 11.4477V18.8045C46.9513 19.5921 47.0455 20.1112 47.2527 20.3618C47.4599 20.6124 47.9119 20.7198 48.6465 20.7198C49.3435 20.7198 49.7767 20.5945 50.0027 20.3618C50.2099 20.1112 50.3229 19.789 50.3229 18.894L50.3041 17.7305H54.1655V17.9811C54.1655 19.6458 54.109 20.1828 53.8453 20.863C53.5439 21.5611 52.96 22.1876 52.0559 22.7067ZM63.0372 10.9644C63.0372 10.4632 62.7735 9.87253 62.265 9.71143C61.7564 9.55033 61.0971 9.47873 59.741 9.47873V14.0432C61.0595 14.0432 61.7187 13.9716 62.2273 13.8463C62.7547 13.721 63.0184 12.5575 63.0184 11.8415V10.9644H63.0372ZM63.0372 18.178C63.0372 17.3188 62.8489 16.7997 62.4722 16.5849C62.0955 16.388 61.3608 16.2806 59.7598 16.2806V23.2436H55.9737L56.0303 7.06227H59.4396C61.7187 7.06227 63.2633 7.13387 64.0732 7.29497C64.8832 7.45606 65.5424 7.83196 66.051 8.45845C66.5596 9.08494 66.8233 10.0873 66.8233 11.4656C66.8233 12.7186 66.5973 13.8463 66.2582 14.2759C65.9003 14.7055 65.2034 14.974 64.1674 15.0635C65.1092 15.2783 65.7496 15.5468 66.0698 15.8868C66.3901 16.2269 66.5973 16.5491 66.6726 16.8355C66.7479 17.1219 66.8421 17.6052 66.8421 18.9119V23.1542L63.0749 23.2436V18.178H63.0372ZM76.5238 11.215C76.5238 10.4632 76.392 9.99783 76.1471 9.78303C75.9022 9.56823 75.3748 9.47873 74.6026 9.47873C73.9433 9.47873 73.4347 9.56823 73.0768 9.72933C72.719 9.89043 72.5494 10.3916 72.5494 11.215V18.6971C72.5494 19.6279 72.6624 20.2007 72.8885 20.4155C73.1145 20.6303 73.6608 20.7377 74.4895 20.7377C75.356 20.7377 75.9022 20.6124 76.1471 20.3618C76.392 20.1112 76.505 19.5205 76.505 18.5718V11.215H76.5238ZM79.4811 21.758C79.0102 22.3129 78.3509 22.7425 77.541 23.0468C76.731 23.351 75.7704 23.4942 74.6779 23.4942C73.6419 23.4942 72.719 23.351 71.8902 23.0647C71.0614 22.7783 70.4021 22.3666 69.9124 21.7938C69.4038 21.2389 69.1213 20.6124 69.0271 19.9501C68.9329 19.2878 68.8764 18.1243 68.8764 16.4596V13.7031C68.8764 12.0921 68.9141 10.9465 69.0083 10.2663C69.1024 9.58613 69.385 8.97754 69.8747 8.42265C70.3644 7.86776 71.0049 7.43816 71.8148 7.13386C72.6248 6.82957 73.5854 6.68637 74.6779 6.68637C75.7139 6.68637 76.6368 6.82957 77.4656 7.11597C78.2944 7.40236 78.9537 7.81405 79.4434 8.38685C79.9332 8.94174 80.2345 9.56823 80.3287 10.2305C80.4229 10.8928 80.4794 12.0563 80.4794 13.7031V16.4775C80.4794 18.0885 80.4417 19.2341 80.3475 19.9143C80.2534 20.5945 79.9708 21.2031 79.4811 21.758ZM93.5327 23.1542C92.9865 20.684 91.7057 14.616 91.2724 11.4477C91.0841 12.8081 89.5772 18.8761 88.8802 23.1542H84.7363L81.5154 7.04436H85.1507L86.1867 12.6649L86.9401 19.3415C87.1097 16.5312 88.6165 11.5909 89.3323 7.04436H93.5516C93.6081 7.50976 94.3239 9.28184 94.6064 12.3606L95.6612 19.2341C95.9437 15.332 96.9044 10.7675 97.5448 7.04436H100.916L97.4506 23.1542H93.5327ZM109.449 11.6983C109.449 10.9823 109.393 10.5169 109.28 10.3021C109.167 10.1052 108.884 9.94413 108.451 9.85463C108.018 9.76513 107.227 9.71143 106.04 9.71143V20.4692C107.603 20.4692 108.545 20.3439 108.922 20.1112C109.28 19.8785 109.468 19.2162 109.468 18.1422V11.6983H109.449ZM112.896 21.2747C112.745 21.758 112.463 22.1518 112.067 22.4203C111.672 22.6888 111.201 22.8857 110.617 22.9931C110.052 23.1005 109.449 23.1542 108.281 23.1542H102.197V7.04436H105.814C108.149 7.04436 109.468 7.13386 110.278 7.33076C111.107 7.50976 111.728 7.81406 112.162 8.24365C112.595 8.67324 112.858 9.13864 112.971 9.65773C113.085 10.1768 113.122 11.1971 113.122 12.7186V18.357C113.141 19.8069 113.066 20.7735 112.896 21.2747Z" fill="#607E7D"/>
<path fill-rule="evenodd" clip-rule="evenodd" d="M66.7828 37.2015L64.3935 38.4336C64.1714 38.5481 63.8968 38.4643 63.78 38.2443C63.7335 38.1576 63.7174 38.0582 63.7344 37.9617L64.1929 35.3522L62.2622 33.5044C62.0826 33.3326 62.0788 33.0507 62.254 32.8744C62.3237 32.8042 62.415 32.7585 62.5139 32.7445L65.1856 32.3658L66.3802 29.9921C66.4912 29.7715 66.7663 29.6809 66.9884 29.7897C67.078 29.8331 67.1505 29.9042 67.1947 29.9921L68.3894 32.3658L71.061 32.7445C71.145 32.7562 71.2239 32.7909 71.2888 32.8444C71.3537 32.898 71.402 32.9683 71.4282 33.0474C71.4545 33.1265 71.4575 33.2112 71.4371 33.292C71.4167 33.3727 71.3736 33.4462 71.3127 33.5041L69.382 35.352L69.8406 37.9614C69.8507 38.0191 69.8492 38.0782 69.836 38.1352C69.8228 38.1923 69.7983 38.2463 69.7639 38.294C69.7294 38.3418 69.6857 38.3824 69.6352 38.4136C69.5847 38.4448 69.5284 38.4659 69.4696 38.4757C69.3712 38.4923 69.2698 38.4767 69.1815 38.4284L66.7922 37.1963L66.7828 37.2015ZM77.333 37.2015L74.9433 38.4336C74.7212 38.5481 74.4466 38.4643 74.3298 38.2443C74.2832 38.1576 74.2672 38.0582 74.2841 37.9617L74.7427 35.3522L72.812 33.5044C72.6324 33.3326 72.6285 33.0507 72.8038 32.8744C72.8735 32.8042 72.9648 32.7585 73.0637 32.7445L75.7353 32.3658L76.93 29.9921C77.041 29.7715 77.3161 29.6809 77.5382 29.7897C77.6278 29.8331 77.7003 29.9042 77.7445 29.9921L78.9392 32.3658L81.6108 32.7445C81.6948 32.7562 81.7737 32.7909 81.8386 32.8444C81.9035 32.898 81.9518 32.9683 81.978 33.0474C82.0042 33.1265 82.0073 33.2112 81.9869 33.292C81.9665 33.3727 81.9234 33.4462 81.8625 33.5041L79.9318 35.352L80.3903 37.9614C80.4005 38.0191 80.3989 38.0782 80.3858 38.1352C80.3726 38.1923 80.3481 38.2463 80.3137 38.294C80.2792 38.3418 80.2355 38.3824 80.185 38.4136C80.1345 38.4448 80.0782 38.4659 80.0194 38.4757C79.9209 38.4923 79.8196 38.4767 79.7312 38.4284L77.342 37.1963L77.333 37.2015ZM87.885 37.2015L85.4952 38.4336C85.2732 38.5481 84.9985 38.4643 84.8817 38.2443C84.8352 38.1576 84.8192 38.0582 84.8361 37.9617L85.2947 35.3522L83.3639 33.5044C83.303 33.4465 83.2598 33.3729 83.2394 33.2922C83.2189 33.2114 83.222 33.1266 83.2482 33.0475C83.2744 32.9683 83.3227 32.898 83.3877 32.8444C83.4527 32.7908 83.5316 32.7562 83.6156 32.7445L86.2873 32.3658L87.4819 29.9921C87.593 29.7715 87.8681 29.6809 88.0901 29.7897C88.1796 29.8332 88.2521 29.9043 88.2965 29.9921L89.4911 32.3658L92.1628 32.7445C92.4113 32.78 92.5827 33.006 92.547 33.2493C92.5326 33.3462 92.4861 33.4358 92.4145 33.5041L90.4837 35.352L90.9423 37.9614C90.9845 38.204 90.8185 38.4343 90.5711 38.4757C90.4726 38.4923 90.3715 38.4767 90.283 38.4284L87.8937 37.1963L87.885 37.2015ZM98.4352 37.2015L96.046 38.4336C95.993 38.4608 95.9351 38.4775 95.8756 38.4828C95.816 38.488 95.756 38.4816 95.699 38.464C95.6419 38.4464 95.589 38.418 95.5432 38.3802C95.4974 38.3425 95.4597 38.2963 95.4322 38.2443C95.3859 38.1576 95.3695 38.0582 95.384 37.9617L95.8425 35.3522L93.9118 33.5044C93.8508 33.4465 93.8077 33.3729 93.7872 33.2922C93.7668 33.2114 93.7698 33.1266 93.7961 33.0475C93.8223 32.9683 93.8706 32.898 93.9356 32.8444C94.0005 32.7908 94.0795 32.7562 94.1635 32.7445L96.8351 32.3658L98.0298 29.9921C98.1408 29.7715 98.4159 29.6809 98.638 29.7897C98.7275 29.8332 98.8 29.9043 98.8443 29.9921L100.039 32.3658L102.711 32.7445C102.77 32.7528 102.826 32.7725 102.878 32.8024C102.929 32.8323 102.974 32.8718 103.01 32.9187C103.045 32.9656 103.071 33.0189 103.086 33.0756C103.1 33.1324 103.103 33.1914 103.095 33.2493C103.08 33.3439 103.034 33.4357 102.962 33.5041L101.031 35.352L101.49 37.9614C101.504 38.0434 101.495 38.1277 101.463 38.2048C101.431 38.2819 101.378 38.3487 101.31 38.3976C101.241 38.4465 101.16 38.4756 101.075 38.4815C100.99 38.4874 100.906 38.4699 100.831 38.431L98.441 37.1989L98.4352 37.2015ZM110.396 31.9824V37.9278L108.987 37.2013L106.597 38.4333C106.522 38.4723 106.438 38.4898 106.353 38.484C106.268 38.4781 106.187 38.4491 106.118 38.4002C106.05 38.3513 105.996 38.2844 105.965 38.2073C105.933 38.1302 105.924 38.0458 105.938 37.9638L106.397 35.3544L104.466 33.5065C104.405 33.4486 104.362 33.3751 104.341 33.2943C104.321 33.2135 104.324 33.1288 104.35 33.0496C104.376 32.9704 104.425 32.9001 104.49 32.8465C104.555 32.793 104.634 32.7583 104.718 32.7466L107.389 32.3679L108.584 29.9942C108.695 29.7736 108.97 29.683 109.192 29.7919C109.282 29.8352 109.354 29.9063 109.398 29.9942L110.4 31.9822L110.396 31.9824Z" fill="#FDC600"/>
<path d="M106.548 38.3422L108.987 37.0846L111.426 38.3422C111.483 38.372 111.548 38.3853 111.613 38.3808C111.678 38.3762 111.74 38.354 111.793 38.3166C111.845 38.2791 111.886 38.228 111.91 38.169C111.935 38.11 111.942 38.0455 111.931 37.9828L111.465 35.3194L113.438 33.4332C113.493 33.3811 113.529 33.3125 113.54 33.2379C113.567 33.0514 113.435 32.8782 113.245 32.8514L110.518 32.4628L109.298 30.0394C109.269 29.9823 109.225 29.9342 109.17 29.9006C109.115 29.8669 109.051 29.8491 108.986 29.8491C108.921 29.8491 108.858 29.8669 108.803 29.9006C108.748 29.9342 108.703 29.9823 108.675 30.0394L107.455 32.4628L104.728 32.8514C104.663 32.8605 104.603 32.8871 104.553 32.9281C104.504 32.9691 104.467 33.023 104.447 33.0835C104.427 33.1441 104.424 33.2089 104.44 33.2707C104.456 33.3325 104.488 33.3888 104.535 33.4332L106.508 35.3194L106.042 37.9828C106.029 38.0566 106.042 38.1328 106.077 38.1991C106.099 38.2387 106.128 38.2739 106.163 38.3026C106.198 38.3312 106.238 38.3528 106.282 38.3661C106.326 38.3794 106.371 38.3842 106.417 38.3801C106.462 38.376 106.507 38.3631 106.548 38.3422Z" fill="#FDC600"/>
</svg>
