<svg width="24" height="24" viewBox="0 0 24 24" fill="none" xmlns="http://www.w3.org/2000/svg">
<g id="grommet-icons:google" clip-path="url(#clip0_382_4472)">
<path id="Vector" d="M5.26038 9.765C5.72826 8.34945 6.63124 7.11781 7.84049 6.2458C9.04975 5.37378 10.5035 4.90594 11.9944 4.909C13.6844 4.909 15.2124 5.509 16.4124 6.491L19.9044 3C17.7764 1.145 15.0494 0 11.9944 0C7.26438 0 3.19237 2.698 1.23438 6.65L5.26038 9.765Z" fill="#EA4335"/>
<path id="Vector_2" d="M16.0374 18.0126C14.9474 18.7156 13.5634 19.0906 11.9974 19.0906C10.5124 19.0936 9.06418 18.6295 7.85761 17.7639C6.65105 16.8984 5.74732 15.6752 5.27437 14.2676L1.23438 17.3346C2.22562 19.3409 3.75964 21.029 5.6622 22.2071C7.56475 23.3853 9.75958 24.0063 11.9974 23.9996C14.9304 23.9996 17.7324 22.9566 19.8314 20.9996L16.0384 18.0126H16.0374Z" fill="#34A853"/>
<path id="Vector_3" d="M19.834 21.0004C22.029 18.9524 23.454 15.9044 23.454 12.0004C23.454 11.2904 23.345 10.5274 23.182 9.81836H12V14.4554H18.436C18.119 16.0144 17.266 17.2214 16.041 18.0134L19.834 21.0004Z" fill="#4A90E2"/>
<path id="Vector_4" d="M5.27712 14.2684C5.03247 13.5373 4.90819 12.7713 4.90912 12.0004C4.90912 11.2184 5.03412 10.4674 5.26612 9.76539L1.24012 6.65039C0.416494 8.31308 -0.00807994 10.1449 0.000116455 12.0004C0.000116455 13.9204 0.445116 15.7304 1.23712 17.3354L5.27712 14.2684Z" fill="#FBBC05"/>
</g>
<defs>
<clipPath id="clip0_382_4472">
<rect width="24" height="24" fill="white"/>
</clipPath>
</defs>
</svg>
