<svg width="87" height="40" viewBox="0 0 87 40" fill="none" xmlns="http://www.w3.org/2000/svg">
<path fill-rule="evenodd" clip-rule="evenodd" d="M8.41193 27.476C6.51661 27.2398 4.85821 27.0036 3.19981 26.2949H2.9629C2.25215 26.0587 1.77832 25.5862 1.77832 24.8776L0.830665 21.3343L0.59375 20.1532V19.917L0.830665 19.6807H1.30449L1.54141 20.3894C1.77832 21.3343 2.25215 22.0429 2.9629 22.9878C4.38438 24.6414 6.04278 25.5862 8.17502 26.0587C9.83342 26.0587 11.4918 25.8225 12.9133 24.8776C14.0979 24.1689 15.0455 23.224 15.2825 21.8067C15.7563 19.6807 14.8086 17.5547 12.9133 16.8461L8.64884 14.9563C6.99044 14.4839 5.56896 13.7752 4.38438 13.0666C3.19981 12.3579 2.25215 11.413 1.77832 10.2319C1.30449 9.28703 1.30449 8.10593 1.30449 7.16105C1.54141 4.3264 3.19981 2.43664 5.56896 1.49176C7.9381 0.546875 10.0703 0.546875 12.4395 1.25554L13.861 1.72798H15.0455L15.2825 1.49176L15.7563 1.72798V2.20042L16.2301 5.5075L16.467 6.92483V7.16105L16.2301 7.39727H15.7563L15.5194 6.68861C15.0455 5.27128 14.3348 4.3264 13.1502 3.38152C11.9656 2.67286 10.7811 2.20042 9.35959 1.9642C8.17502 1.72798 6.99044 1.72798 5.80587 2.43664C4.6213 2.90908 3.67364 3.85396 3.43672 5.27128C3.19981 6.68861 3.43672 7.86971 4.38438 8.81459C4.85821 9.52325 5.56896 10.2319 6.2797 10.4681L11.018 12.1217C12.6764 12.8303 14.0979 13.3028 15.0455 14.4839C16.2301 15.4288 17.1778 16.6099 17.1778 18.2634C17.6516 21.3343 16.7039 23.6965 14.3348 25.5862C12.9133 26.5311 11.4918 27.0036 9.83342 27.2398L8.41193 27.476ZM52.478 11.1768L52.2411 12.3579L51.7673 13.3028C51.2935 14.2477 50.1089 14.2477 49.6351 13.539L49.1612 12.3579L47.029 5.74372H48.9243L49.872 8.81459L50.8196 12.5941L51.0565 12.8303L51.2935 12.5941L52.2411 9.99569V9.75947L51.0565 5.97995V5.5075H52.7149L52.9519 5.74372L53.8995 9.05081L54.8472 12.5941L55.0841 12.8303H55.321V12.3579C56.1231 10.0787 56.9128 7.79521 57.6902 5.5075H58.164L57.6902 7.16105L56.0318 12.3579L55.5579 13.3028C55.0841 14.2477 53.8995 14.2477 53.4257 13.3028L52.7149 11.8855L52.478 10.9406V11.1768ZM77.8279 13.7752H75.6957L73.8003 9.75947L74.5111 9.52325C75.2218 9.52325 75.4587 9.05081 75.6957 8.34215L75.4587 7.16105C75.4587 6.68861 74.9849 6.45239 74.2742 6.21617H73.0896V13.7752H71.1943V5.5075H74.5111L76.1695 5.74372C77.591 6.45239 77.8279 7.63349 77.3541 8.57837L76.1695 9.75947H75.6957L77.8279 13.7752ZM39.6847 20.6256L38.9739 21.0981L38.737 20.3894C38.0262 19.6807 37.0786 19.4445 36.1309 19.6807C35.4202 19.917 35.1833 20.3894 34.9464 20.8618L34.4725 22.5154C34.4725 23.4603 34.4725 24.4051 34.9464 25.1138C34.9464 25.5862 35.1833 26.0587 35.6571 26.2949C36.1309 26.7673 36.6048 27.0036 37.3155 26.7673C37.7893 26.7673 38.0262 26.2949 38.2632 25.8225L38.5001 24.6414V23.4603V23.224H39.9216V30.5469H38.5001V26.7673L38.2632 27.0036C37.0786 27.7122 35.894 27.7122 34.7094 27.0036C33.5249 26.2949 32.8141 25.1138 32.8141 23.6965C32.5772 22.7516 32.8141 21.8067 33.288 20.8618C33.9987 19.917 34.7094 19.2083 35.894 18.9721C37.3155 18.7358 38.5001 18.9721 39.2108 19.917L39.6847 20.6256ZM52.478 20.6256L51.7673 21.0981L51.5304 20.6256C51.0566 19.6807 50.1089 19.4445 49.1612 19.6807C48.4505 19.6807 48.2136 20.1532 47.7397 20.6256L47.5028 22.2792V24.8776L48.2136 26.2949L49.872 26.7673C50.3458 26.7673 50.8196 26.2949 51.0565 25.8225L51.2935 24.8776V23.4603V23.224H52.7149V30.5469H51.2935V26.7673H51.0565C49.872 27.9484 48.2136 27.476 47.029 26.7673C45.8444 25.8225 45.3706 24.4051 45.3706 22.9878C45.6075 21.3343 46.3183 20.1532 47.5028 19.4445C48.6874 18.7359 49.872 18.7358 51.0565 19.2083C51.7673 19.4445 52.2411 19.917 52.478 20.6256ZM25.2329 14.0114C22.8637 14.0114 21.2053 12.3579 20.9684 10.2319C20.7315 9.28703 20.9684 8.57837 21.2053 7.86971C21.6791 6.21617 23.1006 5.5075 24.759 5.5075C26.6544 5.5075 28.3128 6.68861 28.7866 8.57837V11.6492C28.3128 13.0666 26.8913 14.0114 25.2329 14.0114ZM22.6268 9.75947L22.8637 10.7044L23.5745 12.8303C24.2852 13.539 25.4698 13.539 26.1805 12.8303L26.8913 11.6492L27.1282 8.34215L26.1805 6.45239C25.4698 5.74373 24.2852 5.74373 23.5745 6.45239L23.1006 7.39727L22.6268 9.75947ZM34.4725 5.74372H36.3678V6.21617L36.1309 6.45239H34.7094L34.4725 6.68861V13.7752H32.8141V13.539V3.1453V1.9642C33.051 1.25554 33.5249 0.783095 34.2356 0.546875H36.1309L36.3678 0.783095C36.3678 1.25554 36.3678 1.25554 35.894 1.25554H35.1833C34.7094 1.49176 34.4725 1.49176 34.4725 2.20042V5.74372ZM20.9684 19.2083H22.6268V24.4051L22.8637 25.35C23.1006 26.0587 23.5745 26.2949 24.2852 26.5311L24.759 26.2949C25.4698 26.2949 25.9436 25.8225 26.1805 24.8776V23.9327V19.4445L26.4174 19.2083C26.8913 19.2083 26.8913 19.2083 26.8913 19.6807V24.4051L26.6543 25.8225C26.4174 26.7673 25.7067 27.2398 24.759 27.476L22.8637 27.2398C21.9161 27.0036 21.2053 26.2949 20.9684 25.35V24.4051V19.4445V19.2083ZM67.6406 13.7752H65.9822L65.2714 11.8855L65.0345 11.1768H62.4284L61.9546 11.413L61.4808 13.539L61.2439 13.7752H60.5331L61.007 12.5941L62.6654 6.68861V6.21617C63.1392 5.27128 64.5607 5.03506 65.2714 5.97995L65.7453 6.92483L67.6406 13.539V13.7752ZM65.0345 10.4681H64.7976L64.5607 9.28703L64.0869 7.16105L63.613 6.68861L63.3761 7.16105H63.1392L62.6654 9.05081L62.1915 10.4681H65.0345ZM86.5937 5.74372V6.21617H83.7508C83.04 6.21617 83.04 6.45239 83.04 7.16105V9.05081H85.6461L85.883 9.28703C85.883 9.75947 85.883 9.75947 85.4092 9.75947H83.04V12.3579C83.04 12.8303 83.04 13.0666 83.5138 13.0666H86.5937V13.7752H82.0924C81.3816 13.539 81.1447 13.3028 81.1447 12.8303V11.8855V6.68861V6.45239C81.3816 5.97995 81.6185 5.74372 82.0924 5.74372L82.5662 5.5075H86.3568L86.5937 5.74372ZM63.613 22.5154V23.224H60.77V26.0587C60.77 26.2949 60.77 26.5311 61.2439 26.5311H64.3238V27.2398H59.8224C59.3486 27.0036 59.1116 27.0036 59.1116 26.5311V26.0587V20.3894V19.917C59.1116 19.4445 59.3486 19.2083 60.0593 19.2083H64.3238V19.6807H62.4284L61.4808 19.917C61.007 19.917 60.77 19.917 60.77 20.3894V22.2792L61.007 22.5154H63.613ZM70.2466 26.5311H72.8527C73.8003 26.2949 74.0373 25.35 73.3265 24.6414L72.3789 23.9327L70.7205 22.7516C70.2466 22.2792 70.0097 21.8067 70.0097 21.0981C70.2466 19.917 70.9574 19.4445 71.905 19.2083L74.2742 18.9721L74.5111 19.2083H74.748V19.6807H73.5634L72.3789 19.917C71.6681 20.1532 71.4312 20.8618 71.905 21.3343L72.8527 22.0429L74.5111 23.224C75.9326 23.9327 75.6957 26.2949 74.2742 27.0036C73.5634 27.2398 72.8527 27.476 72.1419 27.2398H70.4835L70.2466 27.0036V26.5311ZM42.5276 13.7752H40.6323V13.539V6.68861L40.3954 6.21617H38.9739V5.74372H44.186V6.21617H42.5276V13.7752ZM84.2246 27.2398H82.5662V19.917H81.1447L80.9078 19.6807C80.9078 18.9721 80.6709 19.2083 81.3816 19.2083H86.1199V19.6807L85.883 19.917H84.6984C84.2246 19.917 84.4615 19.6807 84.4615 20.1532V27.0036L84.2246 27.2398Z" fill="#0D4283"/>
<path fill-rule="evenodd" clip-rule="evenodd" d="M39.3316 38.1329L36.9012 39.3861C36.6754 39.5026 36.396 39.4174 36.2772 39.1935C36.2299 39.1053 36.2136 39.0043 36.2308 38.9061L36.6972 36.2518L34.7333 34.3722C34.5506 34.1974 34.5467 33.9107 34.7249 33.7313C34.7958 33.6599 34.8888 33.6135 34.9893 33.5992L37.7069 33.214L38.9221 30.7994C39.0351 30.5751 39.3149 30.4829 39.5408 30.5936C39.6319 30.6377 39.7057 30.71 39.7507 30.7994L40.9658 33.214L43.6834 33.5992C43.7689 33.6112 43.8491 33.6464 43.9152 33.7009C43.9812 33.7553 44.0303 33.8268 44.057 33.9073C44.0836 33.9878 44.0868 34.074 44.066 34.1561C44.0452 34.2382 44.0014 34.313 43.9395 34.3719L41.9756 36.2515L42.442 38.9059C42.4523 38.9645 42.4507 39.0246 42.4373 39.0826C42.424 39.1407 42.399 39.1956 42.364 39.2442C42.3289 39.2928 42.2845 39.3341 42.2331 39.3658C42.1817 39.3975 42.1245 39.419 42.0647 39.429C41.9645 39.4458 41.8614 39.4299 41.7716 39.3808L39.3412 38.1276L39.3316 38.1329ZM50.0633 38.1329L47.6324 39.3861C47.4066 39.5026 47.1272 39.4174 47.0084 39.1935C46.9611 39.1053 46.9448 39.0043 46.962 38.9061L47.4284 36.2518L45.4645 34.3722C45.2818 34.1974 45.2779 33.9107 45.4561 33.7313C45.527 33.6599 45.62 33.6135 45.7205 33.5992L48.4381 33.214L49.6533 30.7994C49.7663 30.5751 50.0461 30.4829 50.272 30.5936C50.3631 30.6377 50.4369 30.71 50.4819 30.7994L51.697 33.214L54.4146 33.5992C54.5001 33.6112 54.5803 33.6464 54.6464 33.7009C54.7124 33.7553 54.7615 33.8268 54.7882 33.9073C54.8148 33.9878 54.818 34.074 54.7972 34.1561C54.7764 34.2382 54.7326 34.313 54.6707 34.3719L52.7068 36.2515L53.1732 38.9059C53.1835 38.9645 53.1819 39.0246 53.1686 39.0826C53.1552 39.1407 53.1302 39.1956 53.0952 39.2442C53.0601 39.2928 53.0157 39.3341 52.9643 39.3658C52.9129 39.3975 52.8557 39.419 52.7959 39.429C52.6957 39.4458 52.5926 39.4299 52.5028 39.3808L50.0724 38.1276L50.0633 38.1329ZM60.7967 38.1329L58.3658 39.3861C58.14 39.5026 57.8606 39.4174 57.7418 39.1935C57.6945 39.1053 57.6782 39.0043 57.6954 38.9061L58.1618 36.2518L56.1979 34.3722C56.1359 34.3132 56.092 34.2384 56.0712 34.1563C56.0504 34.0741 56.0535 33.9879 56.0802 33.9074C56.1069 33.8269 56.156 33.7553 56.2221 33.7008C56.2882 33.6463 56.3685 33.6111 56.454 33.5992L59.1716 33.214L60.3867 30.7994C60.4997 30.5751 60.7795 30.4829 61.0054 30.5936C61.0964 30.6378 61.1702 30.7102 61.2153 30.7994L62.4305 33.214L65.1481 33.5992C65.4009 33.6353 65.5752 33.8652 65.5389 34.1126C65.5243 34.2113 65.4769 34.3024 65.4041 34.3719L63.4402 36.2515L63.9066 38.9059C63.9496 39.1526 63.7807 39.3868 63.529 39.429C63.4289 39.4458 63.326 39.4299 63.2359 39.3808L60.8055 38.1276L60.7967 38.1329ZM71.5284 38.1329L69.098 39.3861C69.0442 39.4138 68.9853 39.4308 68.9247 39.4362C68.8641 39.4415 68.8031 39.435 68.7451 39.4171C68.687 39.3992 68.6332 39.3702 68.5866 39.3319C68.5401 39.2935 68.5017 39.2465 68.4737 39.1935C68.4266 39.1054 68.4099 39.0043 68.4246 38.9061L68.8911 36.2518L66.9271 34.3722C66.8652 34.3132 66.8213 34.2384 66.8005 34.1563C66.7797 34.0741 66.7828 33.9879 66.8094 33.9074C66.8361 33.8269 66.8853 33.7553 66.9513 33.7008C67.0174 33.6463 67.0977 33.6111 67.1832 33.5992L69.9008 33.214L71.116 30.7994C71.2289 30.5751 71.5088 30.4829 71.7346 30.5936C71.8257 30.6378 71.8994 30.7102 71.9445 30.7994L73.1597 33.214L75.8773 33.5992C75.9374 33.6077 75.9951 33.6277 76.0473 33.6581C76.0995 33.6885 76.145 33.7287 76.1813 33.7764C76.2176 33.8241 76.244 33.8784 76.2589 33.936C76.2738 33.9937 76.2769 34.0538 76.2681 34.1126C76.2534 34.2089 76.2063 34.3023 76.1331 34.3719L74.1692 36.2515L74.6356 38.9059C74.6504 38.9892 74.641 39.075 74.6086 39.1534C74.5762 39.2319 74.522 39.2998 74.4522 39.3495C74.3823 39.3993 74.2997 39.4288 74.2136 39.4348C74.1275 39.4408 74.0415 39.423 73.9652 39.3835L71.5343 38.1302L71.5284 38.1329ZM83.695 32.824V38.8717L82.2613 38.1326L79.831 39.3859C79.7547 39.4255 79.6685 39.4433 79.5824 39.4374C79.4963 39.4314 79.4136 39.4019 79.3438 39.3521C79.2739 39.3024 79.2197 39.2344 79.1872 39.1559C79.1548 39.0775 79.1455 38.9917 79.1603 38.9083L79.6267 36.254L77.6628 34.3743C77.6008 34.3154 77.5569 34.2406 77.5361 34.1585C77.5153 34.0763 77.5184 33.9901 77.5451 33.9096C77.5717 33.829 77.6209 33.7575 77.687 33.703C77.753 33.6485 77.8334 33.6133 77.9188 33.6013L80.6364 33.2162L81.8516 30.8016C81.9645 30.5773 82.2444 30.4851 82.4702 30.5958C82.5614 30.6399 82.6352 30.7122 82.6801 30.8016L83.6989 32.8238L83.695 32.824Z" fill="#FDC600"/>
<path d="M79.7793 39.2934L82.2605 38.0141L84.7417 39.2934C84.8001 39.3236 84.866 39.3372 84.9319 39.3325C84.9978 39.3279 85.061 39.3053 85.1145 39.2672C85.1679 39.2292 85.2094 39.1772 85.2342 39.1172C85.2591 39.0571 85.2663 38.9915 85.255 38.9277L84.7812 36.2185L86.7884 34.2999C86.8441 34.2469 86.8804 34.1771 86.8915 34.1012C86.9195 33.9116 86.7854 33.7353 86.592 33.7081L83.8179 33.3128L82.5772 30.8478C82.548 30.7897 82.5029 30.7407 82.4468 30.7065C82.3907 30.6723 82.326 30.6542 82.26 30.6542C82.194 30.6542 82.1293 30.6723 82.0732 30.7065C82.0172 30.7407 81.972 30.7897 81.9428 30.8478L80.7021 33.3128L77.9281 33.7081C77.8627 33.7174 77.8013 33.7444 77.7508 33.7861C77.7003 33.8278 77.6627 33.8826 77.6423 33.9442C77.6219 34.0058 77.6195 34.0718 77.6354 34.1346C77.6513 34.1975 77.6848 34.2547 77.7322 34.2999L79.7393 36.2185L79.2655 38.9277C79.2522 39.0028 79.2648 39.0803 79.3011 39.1477C79.3227 39.1881 79.3522 39.2238 79.3879 39.253C79.4236 39.2822 79.4648 39.3041 79.5092 39.3177C79.5535 39.3312 79.6002 39.336 79.6465 39.3318C79.6927 39.3277 79.7382 39.3146 79.7793 39.2934Z" fill="url(#paint0_linear_382_3970)"/>
<defs>
<linearGradient id="paint0_linear_382_3970" x1="81.5024" y1="34.9989" x2="69.5024" y2="34.9989" gradientUnits="userSpaceOnUse">
<stop stop-color="#FDC600"/>
<stop offset="1" stop-color="#FDC600" stop-opacity="0"/>
</linearGradient>
</defs>
</svg>
