<svg width="19" height="19" viewBox="0 0 19 19" fill="none" xmlns="http://www.w3.org/2000/svg">
<g id="Mask group">
<mask id="mask0_382_4450" style="mask-type:alpha" maskUnits="userSpaceOnUse" x="0" y="0" width="19" height="19">
<rect id="Rectangle 4933" width="19" height="19" fill="#D9D9D9"/>
</mask>
<g mask="url(#mask0_382_4450)">
<path id="Vector" d="M17.4411 13.737C16.8445 12.6092 14.7728 11.3863 14.6816 11.3328C14.4153 11.1813 14.1375 11.1011 13.8776 11.1011C13.491 11.1011 13.1746 11.2781 12.983 11.6002C12.6799 11.9627 12.3041 12.3864 12.2128 12.452C11.5069 12.931 10.9543 12.8766 10.3428 12.2652L6.9302 8.85223C6.32261 8.24463 6.26675 7.68517 6.74243 6.9831C6.80898 6.89129 7.23266 6.51515 7.59514 6.2118C7.82629 6.07423 7.98495 5.86982 8.05447 5.61906C8.14688 5.2854 8.07884 4.89292 7.86076 4.51054C7.80936 4.42259 6.58585 2.35053 5.45861 1.75423C5.24825 1.64281 5.01116 1.58398 4.77347 1.58398C4.38188 1.58398 4.01346 1.7367 3.73655 2.01331L2.98248 2.76708C1.78987 3.95939 1.35817 5.31095 1.69866 6.78403C1.9827 8.0117 2.81045 9.3181 4.15934 10.6667L8.52837 15.0357C10.2356 16.7429 11.8631 17.6087 13.3659 17.6087C14.4715 17.6087 15.5016 17.139 16.428 16.2129L17.1817 15.4591C17.6399 15.0013 17.7439 14.309 17.4411 13.737Z" stroke="white"/>
</g>
</g>
</svg>
