<svg width="155" height="35" viewBox="0 0 155 35" fill="none" xmlns="http://www.w3.org/2000/svg">
<g id="Group">
<path id="Vector" fill-rule="evenodd" clip-rule="evenodd" d="M2.83653 18.4786C3.77637 18.4786 4.56382 19.1563 4.74838 20.081C5.77623 25.189 9.78353 29.2077 14.8764 30.2365C15.7907 30.421 16.4617 31.1952 16.4759 32.1266V35C7.67956 34.5107 0.634127 27.5277 0.0160898 18.7455L0 18.4786H2.83653ZM34.9035 18.4786C34.4113 27.3867 27.311 34.506 18.4285 34.9981V32.1549C18.4285 31.2123 19.1042 30.4229 20.0261 30.2365C25.1199 29.2077 29.1282 25.189 30.1532 20.081C30.3396 19.1563 31.1261 18.4786 32.0679 18.4786H34.9035ZM16.4759 0V2.84316C16.4759 3.78583 15.7992 4.57518 14.8774 4.76163C9.78353 5.79043 5.77528 9.80909 4.75027 14.9171C4.56571 15.8323 3.7934 16.5062 2.86398 16.5195H0C0.492158 7.61236 7.59248 0.493104 16.475 0.000946458L16.4759 0ZM32.9396 9.351C34.0863 11.5459 34.754 13.9593 34.8987 16.4314L34.9035 16.5195H32.0717C31.1252 16.5195 30.3396 15.8323 30.1522 14.901C29.8123 13.2089 29.1368 11.6021 28.1656 10.1754L28.1202 10.1091L30.032 8.68186C30.2598 8.51261 30.5216 8.39486 30.7993 8.33674C31.0771 8.27862 31.3641 8.28152 31.6406 8.34525C31.9171 8.40897 32.1765 8.532 32.4007 8.70582C32.625 8.87963 32.8089 9.10009 32.9396 9.35195V9.351Z" fill="#EB4E29"/>
<path id="Vector_2" fill-rule="evenodd" clip-rule="evenodd" d="M17.2737 15.5001L12.0247 11.3225L10.1952 13.1577L18.4634 22.431C22.1641 15.414 26.8528 9.16171 31.9675 3.4877C31.5095 3.0117 31.0288 2.55813 30.527 2.12858C29.8044 2.68207 29.0925 3.24942 28.3918 3.83031C25.5543 1.53885 22.0674 0.19875 18.4256 0V2.84127C18.4256 3.78962 19.107 4.57707 20.0346 4.76447C21.7971 5.12273 23.4652 5.84586 24.9315 6.88737C22.1358 9.53285 19.5734 12.4144 17.2728 15.5001H17.2737Z" fill="#27C26C"/>
<path id="Vector_3" d="M54.9551 13.6191H50.5446V25.2483H47.5774V13.6201H43.2266V11.2908H54.9551V13.6191ZM59.4716 25.2483H56.6038V14.8751H59.4716V25.2483ZM56.4353 12.1919C56.4353 11.7754 56.5792 11.4347 56.866 11.1659C57.1527 10.8971 57.5436 10.7637 58.0377 10.7637C58.526 10.7637 58.915 10.8971 59.2047 11.1659C59.4952 11.4347 59.64 11.7764 59.64 12.1919C59.64 12.613 59.4933 12.9585 59.1999 13.2273C58.9065 13.4951 58.5185 13.6295 58.0377 13.6295C57.5569 13.6295 57.1688 13.4951 56.8754 13.2273C56.582 12.9585 56.4353 12.613 56.4353 12.1919ZM64.5029 14.876L64.5919 16.0354C65.3491 15.1344 66.375 14.6839 67.6679 14.6839C69.045 14.6839 69.9914 15.2111 70.5054 16.2654C71.2568 15.2111 72.3282 14.6848 73.7195 14.6848C74.8799 14.6848 75.744 15.0114 76.3109 15.6663C76.8779 16.3222 77.1608 17.3075 77.1608 18.624V25.2492H74.2931V18.6335C74.2931 18.0467 74.1748 17.616 73.9372 17.3444C73.7006 17.0728 73.2813 16.9374 72.6813 16.9374C71.8238 16.9374 71.2303 17.333 70.9019 18.1252L70.9114 25.2483H68.0531V18.6429C68.0531 18.0429 67.93 17.6085 67.6868 17.3397C67.4426 17.0709 67.0281 16.9365 66.4413 16.9365C65.6302 16.9365 65.0434 17.263 64.6809 17.9151V25.2483H61.8226V14.8751H64.5029V14.876ZM84.2782 25.4404C82.7099 25.4404 81.4322 24.9738 80.446 24.0406C79.4607 23.1074 78.9676 21.8637 78.9676 20.3115V20.0427C78.9676 19.0016 79.1759 18.0703 79.5914 17.2488C80.0059 16.4273 80.5946 15.7941 81.3565 15.3502C82.1174 14.9054 82.9863 14.6839 83.9621 14.6839C85.4253 14.6839 86.5781 15.1316 87.4186 16.026C88.259 16.9213 88.6792 18.1896 88.6792 19.8317V20.9636H81.8647C81.9575 21.6413 82.2367 22.1846 82.7014 22.5934C83.1652 23.0023 83.7548 23.2067 84.4666 23.2067C85.5673 23.2067 86.4276 22.8196 87.0475 22.0464L88.4521 23.5702C88.0233 24.1589 87.4432 24.6179 86.7106 24.9463C85.9799 25.2757 85.1679 25.4404 84.2782 25.4404ZM83.9526 16.927C83.3848 16.927 82.9257 17.1125 82.5727 17.4835C82.2197 17.8545 81.9944 18.3845 81.895 19.0745H85.8702V18.854C85.8578 18.2407 85.6865 17.7656 85.3562 17.4305C85.0269 17.0955 84.5584 16.927 83.9526 16.927ZM95.5164 25.2483V11.2908H99.9468C101.213 11.2908 102.345 11.5672 103.345 12.1199C104.335 12.6645 105.147 13.4835 105.683 14.4785C106.244 15.4979 106.524 16.6554 106.524 17.953V18.5956C106.524 19.8923 106.248 21.0469 105.697 22.0559C105.165 23.0477 104.356 23.8638 103.369 24.405C102.367 24.9605 101.236 25.2426 99.9771 25.2483H95.5164ZM98.4836 13.6201V22.938H99.9175C101.078 22.938 101.965 22.5707 102.578 21.8353C103.191 21.1009 103.504 20.0494 103.517 18.6817V17.9435C103.517 16.5248 103.214 15.4496 102.607 14.718C102.001 13.9854 101.114 13.6201 99.9468 13.6201H98.4836ZM108.044 19.9661C108.044 18.9373 108.248 18.0202 108.657 17.2147C109.046 16.4297 109.661 15.7788 110.422 15.3455C111.19 14.9044 112.081 14.6839 113.097 14.6839C114.541 14.6839 115.72 15.1126 116.633 15.9682C117.546 16.8248 118.055 17.988 118.16 19.4588L118.18 20.1677C118.18 21.7587 117.722 23.0354 116.806 23.997C115.889 24.9596 114.659 25.4404 113.117 25.4404C111.574 25.4404 110.343 24.9615 109.423 24.0018C108.504 23.044 108.044 21.7397 108.044 20.091V19.9661ZM110.901 20.1677C110.901 21.152 111.093 21.9044 111.476 22.425C111.858 22.9455 112.405 23.2067 113.117 23.2067C113.81 23.2067 114.35 22.9493 114.739 22.4344C115.128 21.9205 115.322 21.0971 115.322 19.9661C115.322 19.0007 115.128 18.253 114.739 17.723C114.35 17.193 113.803 16.9279 113.097 16.9279C112.398 16.9279 111.858 17.1911 111.476 17.7182C111.093 18.2454 110.901 19.0622 110.901 20.1677ZM124.388 23.2058C124.915 23.2058 125.344 23.0657 125.673 22.7846C126.003 22.5035 126.174 22.1297 126.187 21.6631H128.868C128.866 22.3515 128.659 23.0239 128.274 23.5948C127.877 24.1866 127.325 24.6575 126.678 24.9558C126.002 25.2785 125.255 25.4404 124.437 25.4404C122.908 25.4404 121.701 24.9691 120.818 24.0264C119.934 23.0837 119.492 21.7814 119.492 20.1194V19.9377C119.492 18.3401 119.931 17.0652 120.808 16.113C121.685 15.16 122.888 14.6839 124.417 14.6839C125.756 14.6839 126.829 15.053 127.636 15.7913C128.445 16.5295 128.854 17.5119 128.868 18.7395H126.187C126.174 18.2028 126.003 17.7665 125.673 17.4305C125.344 17.0955 124.909 16.927 124.368 16.927C123.702 16.927 123.199 17.1627 122.86 17.6321C122.521 18.1016 122.35 18.8644 122.35 19.9188V20.2055C122.35 21.2731 122.519 22.0407 122.855 22.5064C123.191 22.973 123.702 23.2067 124.388 23.2067V23.2058ZM133.918 12.3263V14.876H135.748V16.9081H133.918V22.0852C133.918 22.4685 133.994 22.743 134.146 22.9086C134.298 23.0752 134.587 23.1585 135.016 23.1585C135.332 23.1585 135.613 23.1367 135.856 23.0922V25.1915C135.295 25.3577 134.712 25.4416 134.126 25.4404C132.122 25.4404 131.099 24.4589 131.06 22.4969V16.9081H129.498V14.876H131.06V12.3263H133.918ZM136.297 19.9661C136.297 18.9373 136.502 18.0202 136.911 17.2147C137.3 16.4301 137.915 15.7794 138.676 15.3455C139.444 14.9044 140.336 14.6839 141.351 14.6839C142.795 14.6839 143.973 15.1126 144.887 15.9682C145.8 16.8248 146.309 17.988 146.414 19.4588L146.434 20.1677C146.434 21.7587 145.976 23.0354 145.06 23.997C144.144 24.9596 142.914 25.4404 141.37 25.4404C139.828 25.4404 138.596 24.9615 137.677 24.0018C136.757 23.044 136.297 21.7397 136.297 20.091V19.9661ZM139.156 20.1677C139.156 21.152 139.347 21.9044 139.729 22.425C140.112 22.9455 140.659 23.2067 141.37 23.2067C142.063 23.2067 142.604 22.9493 142.993 22.4344C143.382 21.9205 143.577 21.0971 143.577 19.9661C143.577 19.0007 143.382 18.253 142.993 17.723C142.604 17.193 142.057 16.9279 141.351 16.9279C140.652 16.9279 140.112 17.1911 139.729 17.7182C139.347 18.2454 139.156 19.0622 139.156 20.1677ZM154.204 17.4741C153.863 17.4264 153.52 17.4008 153.176 17.3974C152.095 17.3974 151.386 17.7514 151.05 18.4612V25.2483H148.192V14.8751H150.892L150.97 16.1121C151.544 15.16 152.339 14.6839 153.354 14.6839C153.671 14.6839 153.967 14.7255 154.244 14.8088L154.204 17.4741Z" fill="#5B5E71"/>
</g>
</svg>
