<svg width="213" height="16" viewBox="0 0 213 16" fill="none" xmlns="http://www.w3.org/2000/svg">
<g id="Element 15" clip-path="url(#clip0_382_4466)">
<path id="Vector" d="M213 2.36242C211.916 2.25503 210.922 2.25503 209.837 2.25503C208.753 2.25503 207.759 2.14765 206.674 2.04027C204.325 1.8255 202.065 1.50336 199.716 1.28859C195.288 0.85906 190.769 0.42953 186.341 0.322148C182.275 0.107383 178.118 0 174.051 0C172.966 0 171.882 0 170.888 0C166.821 0.107383 162.755 0.107383 158.688 0.214765C149.199 0.536913 139.62 0.85906 130.132 1.39597C120.824 1.93289 111.515 2.4698 102.298 3.11409C97.7794 3.43624 93.1706 3.75839 88.6521 4.08054C83.6818 4.61745 78.7115 4.9396 73.8316 5.36913C63.6199 6.33557 53.4985 7.19463 43.2868 8.16107C34.4306 9.02013 25.6648 10.2013 16.899 11.7047C11.2961 12.7785 5.60289 13.9597 0 15.1409C6.41621 15.6779 12.9228 15.8926 19.4294 16C23.6767 16 27.9241 15.8926 32.081 15.7852C34.7921 15.6779 37.5032 15.4631 40.3046 15.2483C42.0216 15.1409 43.6483 14.9262 45.2749 14.7114C49.703 14.1745 54.2215 13.745 58.6496 13.2081C63.8006 12.6711 68.8613 12.0268 74.0123 11.4899C79.2537 10.953 84.5855 10.4161 89.8269 9.87919C94.5261 9.44966 99.3157 9.02013 104.105 8.5906C108.714 8.16107 113.413 7.83893 118.022 7.51678C122.721 7.19463 127.33 6.87248 132.029 6.55034C136.819 6.22819 141.518 6.12081 146.308 5.90604C154.983 5.47651 163.658 5.36913 172.424 5.26174C177.304 5.26174 182.094 5.04698 186.974 4.83221C191.763 4.61745 196.553 4.40268 201.252 4.08054C203.15 3.97315 205.138 3.86577 207.036 3.65101C207.939 3.54362 208.933 3.43624 209.837 3.22148C210.65 3.00671 211.464 2.68456 212.277 2.57718C212.548 2.4698 212.729 2.36242 213 2.36242Z" fill="#FFC107"/>
</g>
<defs>
<clipPath id="clip0_382_4466">
<rect width="213" height="16" fill="white"/>
</clipPath>
</defs>
</svg>
