<svg width="521" height="328" viewBox="0 0 521 328" fill="none" xmlns="http://www.w3.org/2000/svg">
<g opacity="0.59">
<path d="M467.82 344.251L465.24 342.278C499.571 297.202 517.723 243.353 517.723 186.53C517.723 98.503 473.436 17.5179 399.25 -30.1079L401.011 -32.8398C476.137 15.3627 520.97 97.3799 520.97 186.53C520.97 244.052 502.576 298.598 467.82 344.251Z" fill="#8276FF" fill-opacity="0.24"/>
<path d="M260.5 447C116.864 447 0 330.136 0 186.5C0 42.8638 116.864 -74 260.5 -74V-70.7521C118.655 -70.7521 3.27826 44.6546 3.27826 186.47C3.27826 328.315 118.685 443.691 260.5 443.691C303.36 443.691 345.795 432.946 383.192 412.609L384.74 415.462C346.858 436.133 303.876 447 260.5 447Z" fill="#8276FF" fill-opacity="0.24"/>
<path d="M137.224 387.02C67.0451 343.796 25.1562 268.821 25.1562 186.5H31.6824C31.6824 266.544 72.4178 339.425 140.654 381.465L137.224 387.02Z" fill="#8276FF" fill-opacity="0.24"/>
<path d="M260.495 421.866C234.693 421.866 209.348 417.707 185.125 409.542L187.219 403.38C210.774 411.333 235.422 415.37 260.525 415.37C378.39 415.37 476.283 327.07 488.151 209.963L494.647 210.631C482.384 331.016 381.729 421.866 260.495 421.866Z" fill="#8276FF" fill-opacity="0.24"/>
<path d="M486.397 149.954C477.867 96.8642 450.609 48.2064 409.601 12.9651C368.167 -22.6707 315.199 -42.2796 260.501 -42.2796C216.335 -42.2796 173.475 -29.6826 136.534 -5.82413C93.4918 21.9803 60.6485 63.8691 44.0447 112.132L37.8828 110.008C54.9419 60.3784 88.7262 17.3057 132.983 -11.2879C170.986 -35.8142 215.06 -48.7754 260.47 -48.7754C316.747 -48.7754 371.203 -28.5899 413.82 8.04768C455.982 44.2906 484.029 94.3448 492.802 148.952L486.397 149.954Z" fill="#8276FF" fill-opacity="0.24"/>
<path d="M260.499 356.484C166.765 356.484 90.5156 280.235 90.5156 186.501C90.5156 148.558 102.748 112.679 125.848 82.75L131.008 86.7264C108.789 115.533 97.0418 150.015 97.0418 186.501C97.0418 276.622 170.378 349.958 260.499 349.958C276.496 349.958 292.311 347.651 307.457 343.098L309.339 349.351C293.555 354.117 277.103 356.484 260.499 356.484Z" fill="#8276FF" fill-opacity="0.24"/>
<path d="M375.308 311.862L370.906 307.066C404.63 276.166 423.965 232.243 423.965 186.53C423.965 154.354 414.616 123.211 396.95 96.4685L402.384 92.8867C420.778 120.691 430.492 153.079 430.492 186.56C430.461 234.064 410.367 279.747 375.308 311.862Z" fill="#8276FF" fill-opacity="0.24"/>
<path d="M362.195 58.5267C333.024 35.3057 297.844 23.0426 260.508 23.0426C227.756 23.0426 196.157 32.6953 169.111 50.9686L165.469 45.5655C193.577 26.5638 226.45 16.5469 260.508 16.5469C299.361 16.5469 335.938 29.2957 366.262 53.4576L362.195 58.5267Z" fill="#8276FF" fill-opacity="0.24"/>
<path d="M260.506 327.283C237.619 327.283 214.884 321.667 194.789 311.043L196.307 308.16C215.946 318.541 238.135 324.035 260.476 324.035C322.186 324.035 376.702 282.541 393.063 223.107L396.189 223.987C379.495 284.817 323.673 327.283 260.506 327.283Z" fill="#8276FF" fill-opacity="0.24"/>
<path d="M160.978 286.093C134.388 259.503 119.727 224.14 119.727 186.531C119.727 108.915 182.863 45.748 260.509 45.748C338.125 45.748 401.292 108.915 401.292 186.531H398.044C398.044 110.706 336.365 49.0263 260.54 49.0263C184.715 49.0263 123.035 110.706 123.035 186.531C123.035 223.26 137.332 257.803 163.346 283.786L160.978 286.093Z" fill="#8276FF" fill-opacity="0.24"/>
<path d="M260.494 274.074C212.2 274.074 172.922 234.795 172.922 186.502C172.922 138.208 212.2 98.9297 260.494 98.9297V105.456C215.812 105.456 179.448 141.82 179.448 186.502C179.448 231.183 215.812 267.547 260.494 267.547C305.175 267.547 341.54 231.183 341.54 186.502H348.066C348.035 234.795 308.757 274.074 260.494 274.074Z" fill="#8276FF" fill-opacity="0.24"/>
</g>
<path d="M139.891 168.082C141 225.001 184.602 259.476 185.055 259.858L188.23 256.864C187.795 256.497 143 222.001 144.732 169.048L164.144 179.073C156.222 168.256 149.567 151.896 146.104 139.049C139.441 150.094 128.811 163.378 118.424 170.936L139.891 168.082Z" fill="#6C63FF"/>
<path d="M288.471 59.262L288.611 61.1828C288.84 61.1661 311.052 59.781 327.813 75.7805L319.625 78.5291C325.113 79.5436 332.044 82.706 337.034 85.728C335.221 80.1837 333.714 72.7159 333.972 67.1411L329.366 74.6079C311.943 57.7758 288.71 59.2443 288.471 59.262L288.471 59.262Z" fill="#6C63FF"/>
<path d="M372.547 213.059L370.007 212.941C369.993 213.244 368.324 242.579 344.721 262.04L342.402 250.876C340.211 257.91 334.978 266.5 330.234 272.567C337.786 271.061 347.812 270.257 355.08 271.469L346.014 264.26C370.813 244.062 372.533 213.375 372.547 213.059L372.547 213.059Z" fill="#6C63FF"/>
<g filter="url(#filter0_d_382_4299)">
<path fill-rule="evenodd" clip-rule="evenodd" d="M260 87.0682C260 113.615 238.287 135.132 211.498 135.132C184.713 135.132 163 113.615 163 87.0682C163 60.5217 184.713 39 211.498 39C238.287 39 260 60.5217 260 87.0682Z" fill="#FD3E81"/>
<path fill-rule="evenodd" clip-rule="evenodd" d="M189.125 103.927H198.504V88.0039H189.125V103.927Z" fill="white"/>
<path fill-rule="evenodd" clip-rule="evenodd" d="M203 104H213V74H203V104Z" fill="white"/>
<path fill-rule="evenodd" clip-rule="evenodd" d="M218 104H227V64H218V104Z" fill="white"/>
<path fill-rule="evenodd" clip-rule="evenodd" d="M179.469 103.342C179.469 102.967 179.775 102.664 180.154 102.664H240.765C241.144 102.664 241.45 102.967 241.45 103.342C241.45 103.716 241.144 104.02 240.765 104.02H180.154C179.775 104.02 179.469 103.716 179.469 103.342Z" fill="white"/>
</g>
<g filter="url(#filter1_d_382_4299)">
<rect x="335" y="111" width="68.2812" height="69.3651" rx="14" fill="#FFBE5B"/>
<path fill-rule="evenodd" clip-rule="evenodd" d="M368.673 152.306C364.993 152.306 362.013 149.328 362.013 145.658C362.013 141.99 364.993 139.014 368.673 139.014C372.351 139.014 375.331 141.99 375.331 145.658L375.331 145.695C375.311 149.352 372.335 152.306 368.673 152.306ZM384.664 142.541L383.771 142.385C382.699 142.198 381.856 141.396 381.439 140.391C381.02 139.381 381.046 138.211 381.676 137.317L382.191 136.584C382.759 135.776 382.662 134.679 381.963 133.981L380.375 132.396C379.666 131.712 378.564 131.635 377.766 132.212L377.02 132.734C376.13 133.356 374.97 133.384 373.967 132.968C372.953 132.548 372.144 131.694 371.961 130.611L371.805 129.683C371.638 128.724 370.813 128.018 369.837 128L367.549 128C366.557 127.998 365.708 128.709 365.539 129.683L365.389 130.538C365.197 131.626 364.382 132.481 363.361 132.904C362.36 133.32 361.203 133.303 360.303 132.698L359.58 132.212C358.769 131.646 357.669 131.74 356.969 132.44L355.381 134.023C354.682 134.721 354.587 135.818 355.155 136.628L355.67 137.361C356.297 138.254 356.326 139.421 355.907 140.429C355.489 141.436 354.644 142.24 353.57 142.428L352.689 142.583C351.713 142.752 350.998 143.599 351 144.589L351 146.83C350.998 147.82 351.713 148.667 352.689 148.836L353.569 148.99C354.644 149.179 355.489 149.982 355.908 150.99C356.327 151.997 356.298 153.164 355.67 154.057L355.155 154.791C354.587 155.601 354.682 156.698 355.381 157.396L356.969 158.979C357.669 159.679 358.769 159.773 359.58 159.207L360.317 158.691C361.211 158.066 362.377 158.037 363.386 158.455C364.397 158.873 365.205 159.72 365.395 160.798L365.548 161.667C365.717 162.644 366.566 163.355 367.558 163.353L369.837 163.353C370.829 163.355 371.678 162.644 371.847 161.667L372 160.798C372.19 159.72 372.998 158.873 374.009 158.455C375.017 158.037 376.184 158.066 377.078 158.692L377.766 159.174C378.575 159.74 379.677 159.646 380.375 158.946L381.963 157.361C382.66 156.665 382.759 155.568 382.191 154.758L381.668 154.009C381.043 153.114 381.019 151.946 381.438 150.938C381.856 149.932 382.7 149.129 383.773 148.941L384.664 148.786C385.64 148.617 386.355 147.769 386.353 146.779L386.353 144.538C386.351 143.551 385.638 142.71 384.664 142.541Z" fill="#FFFDFA"/>
</g>
<g filter="url(#filter2_d_382_4299)">
<path d="M264.5 297C280.24 297 293 284.24 293 268.5C293 252.76 280.24 240 264.5 240C248.76 240 236 252.76 236 268.5C236 284.24 248.76 297 264.5 297Z" fill="white"/>
<path d="M264.5 297C280.24 297 293 284.24 293 268.5C293 252.76 280.24 240 264.5 240C248.76 240 236 252.76 236 268.5C236 284.24 248.76 297 264.5 297Z" stroke="white" stroke-width="3.33014" stroke-linecap="round" stroke-linejoin="round"/>
</g>
<path d="M264.484 251.789V268.889H281.584" stroke="#3B3C4E" stroke-width="3" stroke-linecap="round" stroke-linejoin="round"/>
<defs>
<filter id="filter0_d_382_4299" x="143.444" y="33.5242" width="136.113" height="135.245" filterUnits="userSpaceOnUse" color-interpolation-filters="sRGB">
<feFlood flood-opacity="0" result="BackgroundImageFix"/>
<feColorMatrix in="SourceAlpha" type="matrix" values="0 0 0 0 0 0 0 0 0 0 0 0 0 0 0 0 0 0 127 0" result="hardAlpha"/>
<feOffset dy="14.0806"/>
<feGaussianBlur stdDeviation="9.77823"/>
<feComposite in2="hardAlpha" operator="out"/>
<feColorMatrix type="matrix" values="0 0 0 0 0 0 0 0 0 0 0 0 0 0 0 0 0 0 0.06 0"/>
<feBlend mode="normal" in2="BackgroundImageFix" result="effect1_dropShadow_382_4299"/>
<feBlend mode="normal" in="SourceGraphic" in2="effect1_dropShadow_382_4299" result="shape"/>
</filter>
<filter id="filter1_d_382_4299" x="315.491" y="104.497" width="107.299" height="108.383" filterUnits="userSpaceOnUse" color-interpolation-filters="sRGB">
<feFlood flood-opacity="0" result="BackgroundImageFix"/>
<feColorMatrix in="SourceAlpha" type="matrix" values="0 0 0 0 0 0 0 0 0 0 0 0 0 0 0 0 0 0 127 0" result="hardAlpha"/>
<feOffset dy="13.006"/>
<feGaussianBlur stdDeviation="9.75446"/>
<feComposite in2="hardAlpha" operator="out"/>
<feColorMatrix type="matrix" values="0 0 0 0 0 0 0 0 0 0 0 0 0 0 0 0 0 0 0.07 0"/>
<feBlend mode="normal" in2="BackgroundImageFix" result="effect1_dropShadow_382_4299"/>
<feBlend mode="normal" in="SourceGraphic" in2="effect1_dropShadow_382_4299" result="shape"/>
</filter>
<filter id="filter2_d_382_4299" x="215.335" y="223.335" width="98.3301" height="98.3301" filterUnits="userSpaceOnUse" color-interpolation-filters="sRGB">
<feFlood flood-opacity="0" result="BackgroundImageFix"/>
<feColorMatrix in="SourceAlpha" type="matrix" values="0 0 0 0 0 0 0 0 0 0 0 0 0 0 0 0 0 0 127 0" result="hardAlpha"/>
<feOffset dy="4"/>
<feGaussianBlur stdDeviation="9.5"/>
<feComposite in2="hardAlpha" operator="out"/>
<feColorMatrix type="matrix" values="0 0 0 0 0 0 0 0 0 0 0 0 0 0 0 0 0 0 0.07 0"/>
<feBlend mode="normal" in2="BackgroundImageFix" result="effect1_dropShadow_382_4299"/>
<feBlend mode="normal" in="SourceGraphic" in2="effect1_dropShadow_382_4299" result="shape"/>
</filter>
</defs>
</svg>
