<svg width="427" height="246" viewBox="0 0 427 246" fill="none" xmlns="http://www.w3.org/2000/svg">
<path d="M376.512 163.274C377.22 162.898 378.037 162.778 378.824 162.934L423.578 171.825C425.467 172.2 426.693 174.034 426.318 175.923L421.279 201.29C420.904 203.179 419.069 204.405 417.181 204.03L372.427 195.14C371.64 194.983 370.93 194.56 370.419 193.942L357.378 178.166C355.971 176.465 356.48 173.901 358.43 172.866L376.512 163.274Z" fill="#FEE9C0"/>
<path d="M382.311 172.502L382.556 171.268L384.864 171.726L383.477 178.705L382.099 178.431L383.24 172.687L382.311 172.502ZM385.579 175.401C385.799 174.297 386.168 173.471 386.688 172.924C387.215 172.379 387.941 172.198 388.866 172.382C389.791 172.565 390.39 173.009 390.661 173.713C390.939 174.419 390.968 175.323 390.749 176.428C390.528 177.538 390.154 178.369 389.627 178.921C389.105 179.474 388.382 179.659 387.457 179.475C386.531 179.291 385.93 178.844 385.654 178.132C385.384 177.422 385.359 176.511 385.579 175.401ZM389.428 176.165C389.522 175.693 389.568 175.291 389.568 174.959C389.575 174.622 389.507 174.333 389.362 174.092C389.224 173.852 388.976 173.697 388.619 173.626C388.261 173.555 387.97 173.603 387.744 173.771C387.525 173.94 387.351 174.18 387.223 174.493C387.102 174.801 386.994 175.191 386.901 175.663C386.804 176.148 386.752 176.562 386.743 176.906C386.736 177.242 386.805 177.531 386.949 177.772C387.095 178.007 387.347 178.16 387.704 178.231C388.061 178.302 388.352 178.257 388.577 178.096C388.802 177.928 388.976 177.687 389.098 177.373C389.222 177.053 389.331 176.65 389.428 176.165ZM396.845 178.425L395.036 178.065L394.667 179.922L393.403 179.671L393.772 177.814L391.963 177.455L392.195 176.287L394.004 176.646L394.373 174.789L395.637 175.04L395.268 176.897L397.077 177.257L396.845 178.425Z" fill="#3B3C4E"/>
<path d="M382.674 184.589L382.58 185.061L380.646 184.677L380.348 186.176L381.918 186.488L381.824 186.961L380.254 186.649L379.856 188.653L379.275 188.537L380.159 184.089L382.674 184.589ZM386.101 187.936C386.079 188.047 386.05 188.163 386.012 188.283L383.217 187.728C383.17 188.077 383.233 188.37 383.407 188.608C383.586 188.843 383.829 188.991 384.135 189.052C384.386 189.101 384.606 189.085 384.795 189.003C384.988 188.918 385.139 188.784 385.246 188.602L385.871 188.726C385.711 189.044 385.469 189.281 385.146 189.438C384.824 189.591 384.454 189.626 384.037 189.543C383.705 189.477 383.422 189.343 383.188 189.142C382.958 188.942 382.796 188.69 382.701 188.389C382.607 188.082 382.596 187.749 382.668 187.387C382.74 187.025 382.875 186.723 383.074 186.479C383.272 186.235 383.516 186.067 383.804 185.974C384.098 185.878 384.414 185.863 384.755 185.931C385.087 185.997 385.366 186.127 385.592 186.323C385.819 186.518 385.975 186.757 386.06 187.039C386.151 187.318 386.165 187.617 386.101 187.936ZM385.525 187.696C385.569 187.475 385.558 187.276 385.491 187.099C385.426 186.918 385.316 186.77 385.162 186.655C385.013 186.537 384.836 186.458 384.632 186.417C384.338 186.359 384.068 186.402 383.823 186.548C383.581 186.695 383.413 186.931 383.317 187.257L385.525 187.696ZM386.671 188.176C386.742 187.818 386.877 187.52 387.075 187.281C387.273 187.037 387.513 186.866 387.794 186.767C388.079 186.668 388.376 186.65 388.687 186.712C388.993 186.773 389.246 186.891 389.445 187.068C389.645 187.245 389.78 187.444 389.851 187.666L389.977 187.028L390.565 187.145L389.87 190.642L389.283 190.525L389.412 189.874C389.257 190.056 389.05 190.192 388.794 190.282C388.542 190.369 388.265 190.383 387.963 190.323C387.652 190.261 387.387 190.129 387.166 189.926C386.946 189.723 386.79 189.469 386.701 189.163C386.611 188.858 386.601 188.529 386.671 188.176ZM389.631 188.77C389.684 188.506 389.676 188.266 389.609 188.049C389.541 187.832 389.426 187.655 389.264 187.516C389.106 187.374 388.919 187.282 388.702 187.239C388.485 187.196 388.277 187.207 388.078 187.274C387.879 187.341 387.707 187.461 387.561 187.636C387.416 187.811 387.317 188.03 387.265 188.293C387.212 188.562 387.218 188.806 387.285 189.027C387.352 189.244 387.465 189.423 387.623 189.565C387.781 189.703 387.969 189.793 388.186 189.836C388.403 189.879 388.611 189.868 388.81 189.801C389.014 189.731 389.188 189.609 389.334 189.434C389.48 189.255 389.579 189.034 389.631 188.77ZM392.204 187.968L391.795 190.029C391.761 190.199 391.773 190.328 391.831 190.415C391.89 190.497 392.008 190.556 392.187 190.591L392.615 190.676L392.517 191.168L391.994 191.064C391.67 191 391.443 190.877 391.311 190.696C391.178 190.515 391.146 190.254 391.214 189.914L391.623 187.852L391.17 187.762L391.265 187.284L391.718 187.374L391.893 186.493L392.474 186.608L392.299 187.489L393.212 187.67L393.117 188.149L392.204 187.968ZM397.062 188.435L396.367 191.933L395.786 191.817L395.889 191.3C395.743 191.457 395.56 191.567 395.339 191.629C395.124 191.688 394.898 191.694 394.659 191.646C394.387 191.592 394.153 191.488 393.958 191.335C393.764 191.177 393.626 190.972 393.543 190.721C393.464 190.471 393.457 190.185 393.521 189.861L393.928 187.813L394.503 187.927L394.111 189.899C394.042 190.244 394.077 190.527 394.214 190.749C394.352 190.966 394.572 191.105 394.874 191.165C395.185 191.227 395.449 191.18 395.665 191.024C395.882 190.868 396.027 190.607 396.099 190.241L396.481 188.32L397.062 188.435ZM398.555 189.322C398.697 189.143 398.872 189.016 399.082 188.943C399.295 188.87 399.538 188.861 399.81 188.915L399.691 189.515L399.538 189.484C398.887 189.355 398.491 189.644 398.351 190.35L397.973 192.252L397.392 192.136L398.087 188.639L398.668 188.754L398.555 189.322ZM403.383 191.369C403.361 191.48 403.331 191.596 403.294 191.717L400.499 191.161C400.451 191.51 400.515 191.804 400.689 192.042C400.868 192.276 401.11 192.424 401.417 192.485C401.668 192.535 401.888 192.518 402.076 192.437C402.27 192.351 402.421 192.218 402.527 192.035L403.153 192.16C402.993 192.477 402.751 192.714 402.428 192.871C402.106 193.024 401.736 193.059 401.319 192.976C400.987 192.91 400.704 192.777 400.47 192.575C400.24 192.375 400.078 192.124 399.983 191.822C399.889 191.516 399.878 191.182 399.949 190.82C400.021 190.458 400.157 190.156 400.355 189.912C400.554 189.669 400.798 189.5 401.086 189.407C401.379 189.311 401.696 189.296 402.037 189.364C402.368 189.43 402.648 189.56 402.874 189.756C403.101 189.951 403.257 190.19 403.342 190.472C403.433 190.751 403.446 191.05 403.383 191.369ZM402.807 191.129C402.851 190.908 402.84 190.709 402.773 190.532C402.707 190.351 402.597 190.203 402.443 190.088C402.294 189.97 402.118 189.891 401.913 189.85C401.62 189.792 401.35 189.836 401.105 189.981C400.863 190.128 400.695 190.364 400.599 190.69L402.807 191.129ZM405.047 193.717C404.779 193.663 404.547 193.571 404.352 193.439C404.158 193.303 404.015 193.142 403.924 192.956C403.834 192.766 403.803 192.563 403.833 192.348L404.433 192.467C404.415 192.645 404.468 192.803 404.59 192.943C404.717 193.083 404.9 193.177 405.138 193.224C405.359 193.268 405.543 193.254 405.691 193.181C405.838 193.109 405.926 192.998 405.956 192.849C405.986 192.696 405.94 192.57 405.819 192.47C405.698 192.367 405.502 192.25 405.231 192.121C404.985 192.002 404.786 191.891 404.633 191.79C404.486 191.686 404.366 191.554 404.274 191.394C404.187 191.231 404.166 191.036 404.211 190.811C404.247 190.632 404.332 190.479 404.468 190.351C404.604 190.223 404.778 190.136 404.991 190.09C405.205 190.04 405.437 190.039 405.688 190.089C406.075 190.166 406.368 190.326 406.568 190.569C406.767 190.812 406.841 191.106 406.791 191.449L406.21 191.334C406.234 191.148 406.188 190.987 406.074 190.849C405.964 190.712 405.797 190.622 405.571 190.577C405.363 190.535 405.188 190.547 405.047 190.612C404.906 190.677 404.821 190.781 404.792 190.926C404.769 191.041 404.786 191.144 404.843 191.235C404.906 191.322 404.987 191.401 405.089 191.469C405.195 191.535 405.343 191.615 405.532 191.71C405.769 191.828 405.96 191.937 406.104 192.036C406.249 192.131 406.363 192.256 406.448 192.409C406.536 192.564 406.562 192.748 406.524 192.962C406.486 193.153 406.398 193.315 406.261 193.447C406.125 193.579 405.949 193.67 405.736 193.721C405.528 193.768 405.298 193.767 405.047 193.717Z" fill="#484A61"/>
<path d="M22.9472 164.979C10.2738 157.005 6.46428 140.267 14.4384 127.594L80.2821 22.9472C88.2562 10.2739 104.994 6.46431 117.668 14.4384L222.314 80.2821C234.988 88.2562 238.797 104.994 230.823 117.668L164.979 222.314C157.005 234.988 140.267 238.797 127.594 230.823L22.9472 164.979Z" fill="#D6DAFF"/>
<g filter="url(#filter0_b_382_3367)">
<rect x="60.1875" y="18.4355" width="258.645" height="210.386" rx="7.39193" fill="url(#paint0_linear_382_3367)" fill-opacity="0.5"/>
</g>
<g filter="url(#filter1_d_382_3367)">
<rect width="247.8" height="199.542" rx="7.75599" transform="matrix(-1 0 0 1 313.41 23.8584)" fill="url(#paint1_linear_382_3367)" shape-rendering="crispEdges"/>
<rect x="-0.323166" y="0.323166" width="247.154" height="198.895" rx="7.43283" transform="matrix(-1 0 0 1 312.764 23.8584)" stroke="white" stroke-width="0.646333" shape-rendering="crispEdges"/>
</g>
<g filter="url(#filter2_d_382_3367)">
<rect x="84.0469" y="45.5479" width="209.277" height="41.3851" rx="4.70285" fill="white"/>
</g>
<path d="M165.257 59.8532L165.257 63.7754L164.614 63.7754L164.614 61.0891L163.418 63.7754L162.972 63.7754L161.77 61.0891L161.77 63.7754L161.126 63.7754L161.126 59.8532L161.821 59.8532L163.198 62.9289L164.569 59.8532L165.257 59.8532Z" fill="#484A61" fill-opacity="0.5"/>
<path d="M157.67 70.9127L157.67 70.4274L159.566 67.7072L160.345 67.7072L160.345 70.354L160.87 70.354L160.87 70.9127L160.345 70.9127L160.345 71.7705L159.713 71.7705L159.713 70.9127L157.67 70.9127ZM159.741 68.3619L158.409 70.354L159.741 70.354L159.741 68.3619ZM163.654 68.6102C163.613 68.4371 163.538 68.3073 163.429 68.2208C163.32 68.1343 163.167 68.091 162.972 68.091C162.674 68.091 162.452 68.2057 162.306 68.4352C162.159 68.661 162.082 69.0372 162.074 69.5639C162.172 69.3984 162.315 69.2705 162.503 69.1802C162.691 69.0899 162.894 69.0447 163.113 69.0447C163.361 69.0447 163.579 69.0993 163.767 69.2084C163.959 69.3137 164.108 69.468 164.213 69.6712C164.322 69.8743 164.377 70.117 164.377 70.3992C164.377 70.6625 164.324 70.8977 164.219 71.1046C164.117 71.3115 163.965 71.4752 163.762 71.5956C163.558 71.7122 163.314 71.7705 163.028 71.7705C162.64 71.7705 162.336 71.6859 162.114 71.5166C161.896 71.3435 161.741 71.1008 161.651 70.7886C161.564 70.4763 161.521 70.0869 161.521 69.6204C161.521 68.2434 162.007 67.5549 162.977 67.5549C163.353 67.5549 163.649 67.6565 163.863 67.8596C164.081 68.0628 164.209 68.313 164.247 68.6102L163.654 68.6102ZM162.972 69.5865C162.742 69.5865 162.546 69.6561 162.385 69.7953C162.227 69.9308 162.148 70.1283 162.148 70.3879C162.148 70.6475 162.221 70.8544 162.368 71.0086C162.518 71.1591 162.727 71.2344 162.994 71.2344C163.231 71.2344 163.417 71.161 163.553 71.0143C163.692 70.8676 163.762 70.6719 163.762 70.4274C163.762 70.1715 163.694 69.9684 163.558 69.8179C163.427 69.6636 163.231 69.5865 162.972 69.5865ZM165.001 68.6497C165.001 68.375 165.08 68.1606 165.238 68.0063C165.4 67.8483 165.607 67.7693 165.859 67.7693C166.111 67.7693 166.316 67.8483 166.474 68.0063C166.636 68.1606 166.717 68.375 166.717 68.6497C166.717 68.9243 166.636 69.1407 166.474 69.2987C166.316 69.4567 166.111 69.5357 165.859 69.5357C165.607 69.5357 165.4 69.4567 165.238 69.2987C165.08 69.1407 165.001 68.9243 165.001 68.6497ZM168.443 67.8427L166.192 71.7705L165.56 71.7705L167.811 67.8427L168.443 67.8427ZM165.859 68.1587C165.622 68.1587 165.503 68.3224 165.503 68.6497C165.503 68.9808 165.622 69.1463 165.859 69.1463C165.972 69.1463 166.058 69.1068 166.118 69.0278C166.182 68.945 166.214 68.819 166.214 68.6497C166.214 68.3224 166.096 68.1587 165.859 68.1587ZM167.298 70.9579C167.298 70.6832 167.377 70.4688 167.535 70.3145C167.697 70.1565 167.904 70.0775 168.156 70.0775C168.404 70.0775 168.607 70.1565 168.765 70.3145C168.927 70.4688 169.008 70.6832 169.008 70.9579C169.008 71.2325 168.927 71.4488 168.765 71.6068C168.607 71.7649 168.404 71.8439 168.156 71.8439C167.904 71.8439 167.697 71.7649 167.535 71.6068C167.377 71.4488 167.298 71.2325 167.298 70.9579ZM168.15 70.4669C167.913 70.4669 167.794 70.6305 167.794 70.9579C167.794 71.2852 167.913 71.4488 168.15 71.4488C168.387 71.4488 168.505 71.2852 168.505 70.9579C168.505 70.6305 168.387 70.4669 168.15 70.4669Z" fill="#484A61"/>
<path d="M243.137 59.8532L243.137 60.378L242.093 60.378L242.093 63.7754L241.449 63.7754L241.449 60.378L240.4 60.378L240.4 59.8532L243.137 59.8532Z" fill="#484A61" fill-opacity="0.5"/>
<path d="M238.5 68.6092C238.459 68.4361 238.383 68.3064 238.274 68.2198C238.165 68.1333 238.013 68.09 237.817 68.09C237.52 68.09 237.298 68.2048 237.151 68.4343C237.005 68.66 236.927 69.0362 236.92 69.563C237.018 69.3974 237.161 69.2695 237.349 69.1792C237.537 69.0889 237.74 69.0438 237.958 69.0438C238.207 69.0438 238.425 69.0983 238.613 69.2074C238.805 69.3128 238.953 69.467 239.059 69.6702C239.168 69.8733 239.222 70.116 239.222 70.3982C239.222 70.6615 239.17 70.8967 239.064 71.1036C238.963 71.3105 238.81 71.4742 238.607 71.5946C238.404 71.7112 238.16 71.7695 237.874 71.7695C237.486 71.7695 237.181 71.6849 236.959 71.5156C236.741 71.3425 236.587 71.0998 236.497 70.7876C236.41 70.4753 236.367 70.0859 236.367 69.6194C236.367 68.2424 236.852 67.5539 237.823 67.5539C238.199 67.5539 238.494 67.6555 238.709 67.8586C238.927 68.0618 239.055 68.312 239.093 68.6092L238.5 68.6092ZM237.817 69.5855C237.588 69.5855 237.392 69.6551 237.23 69.7943C237.072 69.9298 236.993 70.1273 236.993 70.3869C236.993 70.6465 237.067 70.8534 237.213 71.0077C237.364 71.1582 237.573 71.2334 237.84 71.2334C238.077 71.2334 238.263 71.16 238.398 71.0133C238.538 70.8666 238.607 70.6709 238.607 70.4264C238.607 70.1706 238.54 69.9674 238.404 69.8169C238.272 69.6627 238.077 69.5855 237.817 69.5855ZM240.75 70.6521C240.787 70.8402 240.868 70.9832 240.992 71.081C241.116 71.1789 241.284 71.2278 241.494 71.2278C241.762 71.2278 241.957 71.1224 242.081 70.9117C242.206 70.701 242.268 70.3417 242.268 69.8338C242.177 69.9618 242.049 70.0615 241.884 70.1329C241.722 70.2007 241.545 70.2345 241.353 70.2345C241.109 70.2345 240.887 70.1856 240.687 70.0878C240.488 69.9862 240.33 69.8376 240.213 69.642C240.101 69.4426 240.044 69.2018 240.044 68.9196C240.044 68.5058 240.164 68.1766 240.405 67.932C240.65 67.6837 240.985 67.5595 241.41 67.5595C241.921 67.5595 242.285 67.7307 242.499 68.0731C242.717 68.4117 242.826 68.9328 242.826 69.6363C242.826 70.1217 242.785 70.5186 242.702 70.8271C242.623 71.1356 242.484 71.3688 242.285 71.5269C242.085 71.6849 241.809 71.7639 241.455 71.7639C241.052 71.7639 240.742 71.6585 240.524 71.4479C240.306 71.2372 240.183 70.9719 240.157 70.6521L240.75 70.6521ZM241.466 69.6928C241.692 69.6928 241.869 69.6231 241.997 69.4839C242.128 69.341 242.194 69.1529 242.194 68.9196C242.194 68.66 242.125 68.4587 241.985 68.3158C241.85 68.169 241.664 68.0957 241.427 68.0957C241.19 68.0957 241.002 68.1709 240.862 68.3214C240.727 68.4681 240.659 68.6619 240.659 68.9027C240.659 69.1322 240.725 69.3222 240.857 69.4727C240.992 69.6194 241.195 69.6928 241.466 69.6928ZM243.468 68.6487C243.468 68.3741 243.547 68.1596 243.705 68.0054C243.867 67.8474 244.074 67.7683 244.326 67.7683C244.578 67.7683 244.783 67.8474 244.941 68.0054C245.103 68.1596 245.184 68.3741 245.184 68.6487C245.184 68.9234 245.103 69.1397 244.941 69.2977C244.783 69.4557 244.578 69.5347 244.326 69.5347C244.074 69.5347 243.867 69.4557 243.705 69.2977C243.547 69.1397 243.468 68.9234 243.468 68.6487ZM246.911 67.8417L244.659 71.7695L244.027 71.7695L246.279 67.8417L246.911 67.8417ZM244.326 68.1577C244.089 68.1577 243.971 68.3214 243.971 68.6487C243.971 68.9798 244.089 69.1453 244.326 69.1453C244.439 69.1453 244.526 69.1058 244.586 69.0268C244.65 68.9441 244.682 68.818 244.682 68.6487C244.682 68.3214 244.563 68.1577 244.326 68.1577ZM245.765 70.9569C245.765 70.6822 245.844 70.4678 246.002 70.3135C246.164 70.1555 246.371 70.0765 246.623 70.0765C246.871 70.0765 247.074 70.1555 247.232 70.3135C247.394 70.4678 247.475 70.6822 247.475 70.9569C247.475 71.2315 247.394 71.4479 247.232 71.6059C247.074 71.7639 246.871 71.8429 246.623 71.8429C246.371 71.8429 246.164 71.7639 246.002 71.6059C245.844 71.4479 245.765 71.2315 245.765 70.9569ZM246.617 70.4659C246.38 70.4659 246.262 70.6296 246.262 70.9569C246.262 71.2842 246.38 71.4479 246.617 71.4479C246.854 71.4479 246.973 71.2842 246.973 70.9569C246.973 70.6296 246.854 70.4659 246.617 70.4659Z" fill="#484A61"/>
<path d="M269.247 59.8522L269.247 60.3771L267.582 60.3771L267.582 61.534L268.88 61.534L268.88 62.0588L267.582 62.0588L267.582 63.7744L266.939 63.7744L266.939 59.8522L269.247 59.8522Z" fill="#484A61" fill-opacity="0.5"/>
<path d="M263.314 69.6194C262.923 69.4237 262.727 69.1152 262.727 68.6939C262.727 68.4907 262.778 68.3045 262.88 68.1352C262.981 67.9659 263.133 67.8323 263.337 67.7345C263.54 67.6329 263.788 67.5821 264.082 67.5821C264.371 67.5821 264.618 67.6329 264.821 67.7345C265.028 67.8323 265.182 67.9659 265.284 68.1352C265.385 68.3045 265.436 68.4907 265.436 68.6939C265.436 68.9046 265.381 69.0908 265.272 69.2526C265.167 69.4106 265.026 69.5329 264.849 69.6194C265.064 69.6984 265.233 69.8282 265.357 70.0088C265.481 70.1856 265.543 70.3944 265.543 70.6352C265.543 70.8798 265.481 71.0961 265.357 71.2842C265.233 71.4723 265.06 71.6172 264.838 71.7187C264.616 71.8203 264.364 71.8711 264.082 71.8711C263.799 71.8711 263.547 71.8203 263.325 71.7187C263.107 71.6172 262.936 71.4723 262.812 71.2842C262.688 71.0961 262.626 70.8798 262.626 70.6352C262.626 70.3907 262.688 70.18 262.812 70.0031C262.936 69.8263 263.103 69.6984 263.314 69.6194ZM264.821 68.7729C264.821 68.5622 264.755 68.4004 264.623 68.2875C264.492 68.1747 264.311 68.1182 264.082 68.1182C263.856 68.1182 263.677 68.1747 263.545 68.2875C263.414 68.4004 263.348 68.5641 263.348 68.7785C263.348 68.9666 263.416 69.1209 263.551 69.2413C263.69 69.3579 263.867 69.4162 264.082 69.4162C264.296 69.4162 264.473 69.356 264.612 69.2356C264.751 69.1152 264.821 68.961 264.821 68.7729ZM264.082 69.9016C263.833 69.9016 263.63 69.9636 263.472 70.0878C263.318 70.2082 263.241 70.3831 263.241 70.6126C263.241 70.8271 263.316 71.002 263.466 71.1375C263.617 71.2691 263.822 71.335 264.082 71.335C264.337 71.335 264.539 71.2673 264.685 71.1318C264.836 70.9964 264.911 70.8233 264.911 70.6126C264.911 70.3869 264.834 70.2119 264.68 70.0878C264.529 69.9636 264.33 69.9016 264.082 69.9016ZM268.911 68.2085L267.02 68.2085L267.02 69.3316C267.099 69.2262 267.216 69.1378 267.37 69.0663C267.528 68.9948 267.695 68.9591 267.872 68.9591C268.188 68.9591 268.444 69.0268 268.64 69.1623C268.839 69.2977 268.98 69.4689 269.063 69.6758C269.15 69.8827 269.193 70.101 269.193 70.3305C269.193 70.6089 269.138 70.8572 269.029 71.0754C268.924 71.2898 268.764 71.4591 268.549 71.5833C268.339 71.7075 268.079 71.7695 267.771 71.7695C267.361 71.7695 267.031 71.6679 266.783 71.4648C266.535 71.2616 266.386 70.9926 266.337 70.6578L266.964 70.6578C267.005 70.8346 267.097 70.9757 267.24 71.081C267.383 71.1826 267.562 71.2334 267.776 71.2334C268.043 71.2334 268.243 71.1525 268.374 70.9907C268.51 70.829 268.578 70.6145 268.578 70.3474C268.578 70.0765 268.51 69.8696 268.374 69.7266C268.239 69.5799 268.04 69.5065 267.776 69.5065C267.592 69.5065 267.436 69.5535 267.308 69.6476C267.184 69.7379 267.093 69.8621 267.037 70.0201L266.428 70.0201L266.428 67.6442L268.911 67.6442L268.911 68.2085ZM269.8 68.6487C269.8 68.3741 269.879 68.1596 270.037 68.0054C270.199 67.8474 270.406 67.7683 270.658 67.7683C270.91 67.7683 271.115 67.8474 271.273 68.0054C271.435 68.1596 271.516 68.3741 271.516 68.6487C271.516 68.9234 271.435 69.1397 271.273 69.2977C271.115 69.4557 270.91 69.5347 270.658 69.5347C270.406 69.5347 270.199 69.4557 270.037 69.2977C269.879 69.1397 269.8 68.9234 269.8 68.6487ZM273.243 67.8417L270.991 71.7695L270.359 71.7695L272.611 67.8417L273.243 67.8417ZM270.658 68.1577C270.421 68.1577 270.303 68.3214 270.303 68.6487C270.303 68.9798 270.421 69.1453 270.658 69.1453C270.771 69.1453 270.858 69.1058 270.918 69.0268C270.982 68.9441 271.014 68.818 271.014 68.6487C271.014 68.3214 270.895 68.1577 270.658 68.1577ZM272.097 70.9569C272.097 70.6822 272.176 70.4678 272.334 70.3135C272.496 70.1555 272.703 70.0765 272.955 70.0765C273.203 70.0765 273.407 70.1555 273.565 70.3135C273.726 70.4678 273.807 70.6822 273.807 70.9569C273.807 71.2315 273.726 71.4479 273.565 71.6059C273.407 71.7639 273.203 71.8429 272.955 71.8429C272.703 71.8429 272.496 71.7639 272.334 71.6059C272.176 71.4479 272.097 71.2315 272.097 70.9569ZM272.949 70.4659C272.712 70.4659 272.594 70.6296 272.594 70.9569C272.594 71.2842 272.712 71.4479 272.949 71.4479C273.186 71.4479 273.305 71.2842 273.305 70.9569C273.305 70.6296 273.186 70.4659 272.949 70.4659Z" fill="#484A61"/>
<rect x="181.398" y="53.543" width="17.4006" height="28.6874" rx="4.70285" fill="url(#paint2_linear_382_3367)"/>
<path d="M186.315 78.6578C186.16 78.7988 186.148 79.0388 186.289 79.1939C186.43 79.3491 186.671 79.3605 186.826 79.2195L186.315 78.6578ZM189.157 76.5872L189.219 76.2128C189.105 76.1937 188.988 76.2282 188.902 76.3063L189.157 76.5872ZM191.979 77.0575L191.916 77.4319L192.121 77.4661L192.261 77.3114L191.979 77.0575ZM194.377 74.96C194.517 74.8042 194.505 74.5642 194.349 74.4239C194.193 74.2837 193.953 74.2963 193.813 74.4521L194.377 74.96ZM186.826 79.2195L189.412 76.868L188.902 76.3063L186.315 78.6578L186.826 79.2195ZM189.094 76.9616L191.916 77.4319L192.041 76.6831L189.219 76.2128L189.094 76.9616ZM192.261 77.3114L194.377 74.96L193.813 74.4521L191.696 76.8036L192.261 77.3114Z" fill="#FFC107"/>
<path d="M218.433 59.8532L217.27 63.7754L216.542 63.7754L215.718 60.8069L214.844 63.7754L214.121 63.781L213.01 59.8532L213.692 59.8532L214.505 63.0474L215.385 59.8532L216.108 59.8532L216.926 63.0305L217.744 59.8532L218.433 59.8532Z" fill="#484A61" fill-opacity="0.5"/>
<path d="M213.028 68.1521L211.459 71.7695L210.81 71.7695L212.396 68.2198L210.308 68.2198L210.308 67.6724L213.028 67.6724L213.028 68.1521ZM214.312 69.6194C213.921 69.4237 213.725 69.1152 213.725 68.6939C213.725 68.4907 213.776 68.3045 213.878 68.1352C213.979 67.9659 214.132 67.8323 214.335 67.7345C214.538 67.6329 214.786 67.5821 215.08 67.5821C215.369 67.5821 215.616 67.6329 215.819 67.7345C216.026 67.8323 216.18 67.9659 216.282 68.1352C216.383 68.3045 216.434 68.4907 216.434 68.6939C216.434 68.9046 216.38 69.0908 216.27 69.2526C216.165 69.4106 216.024 69.5329 215.847 69.6194C216.062 69.6984 216.231 69.8282 216.355 70.0088C216.479 70.1856 216.541 70.3944 216.541 70.6352C216.541 70.8798 216.479 71.0961 216.355 71.2842C216.231 71.4723 216.058 71.6172 215.836 71.7187C215.614 71.8203 215.362 71.8711 215.08 71.8711C214.798 71.8711 214.545 71.8203 214.323 71.7187C214.105 71.6172 213.934 71.4723 213.81 71.2842C213.686 71.0961 213.624 70.8798 213.624 70.6352C213.624 70.3907 213.686 70.18 213.81 70.0031C213.934 69.8263 214.101 69.6984 214.312 69.6194ZM215.819 68.7729C215.819 68.5622 215.753 68.4004 215.621 68.2875C215.49 68.1747 215.309 68.1182 215.08 68.1182C214.854 68.1182 214.675 68.1747 214.544 68.2875C214.412 68.4004 214.346 68.5641 214.346 68.7785C214.346 68.9666 214.414 69.1209 214.549 69.2413C214.688 69.3579 214.865 69.4162 215.08 69.4162C215.294 69.4162 215.471 69.356 215.61 69.2356C215.749 69.1152 215.819 68.961 215.819 68.7729ZM215.08 69.9016C214.831 69.9016 214.628 69.9636 214.47 70.0878C214.316 70.2082 214.239 70.3831 214.239 70.6126C214.239 70.8271 214.314 71.002 214.465 71.1375C214.615 71.2691 214.82 71.335 215.08 71.335C215.336 71.335 215.537 71.2673 215.684 71.1318C215.834 70.9964 215.909 70.8233 215.909 70.6126C215.909 70.3869 215.832 70.2119 215.678 70.0878C215.527 69.9636 215.328 69.9016 215.08 69.9016ZM217.155 68.6487C217.155 68.3741 217.234 68.1596 217.392 68.0054C217.554 67.8474 217.76 67.7683 218.013 67.7683C218.265 67.7683 218.47 67.8474 218.628 68.0054C218.789 68.1596 218.87 68.3741 218.87 68.6487C218.87 68.9234 218.789 69.1397 218.628 69.2977C218.47 69.4557 218.265 69.5347 218.013 69.5347C217.76 69.5347 217.554 69.4557 217.392 69.2977C217.234 69.1397 217.155 68.9234 217.155 68.6487ZM220.597 67.8417L218.346 71.7695L217.713 71.7695L219.965 67.8417L220.597 67.8417ZM218.013 68.1577C217.776 68.1577 217.657 68.3214 217.657 68.6487C217.657 68.9798 217.776 69.1453 218.013 69.1453C218.125 69.1453 218.212 69.1058 218.272 69.0268C218.336 68.9441 218.368 68.818 218.368 68.6487C218.368 68.3214 218.25 68.1577 218.013 68.1577ZM219.452 70.9569C219.452 70.6822 219.531 70.4678 219.689 70.3135C219.85 70.1555 220.057 70.0765 220.309 70.0765C220.558 70.0765 220.761 70.1555 220.919 70.3135C221.081 70.4678 221.162 70.6822 221.162 70.9569C221.162 71.2315 221.081 71.4479 220.919 71.6059C220.761 71.7639 220.558 71.8429 220.309 71.8429C220.057 71.8429 219.85 71.7639 219.689 71.6059C219.531 71.4479 219.452 71.2315 219.452 70.9569ZM220.304 70.4659C220.067 70.4659 219.948 70.6296 219.948 70.9569C219.948 71.2842 220.067 71.4479 220.304 71.4479C220.541 71.4479 220.659 71.2842 220.659 70.9569C220.659 70.6296 220.541 70.4659 220.304 70.4659Z" fill="#484A61"/>
<path d="M191.519 59.8363L191.519 60.474L190.469 60.474L190.469 63.7754L189.679 63.7754L189.679 60.474L188.63 60.474L188.63 59.8363L191.519 59.8363Z" fill="white"/>
<path d="M186.81 68.3383L184.982 68.3383L184.982 69.3034C185.061 69.2055 185.174 69.1265 185.32 69.0663C185.467 69.0024 185.623 68.9704 185.789 68.9704C186.09 68.9704 186.336 69.0362 186.528 69.1679C186.72 69.2996 186.859 69.4689 186.946 69.6758C187.032 69.879 187.076 70.0972 187.076 70.3305C187.076 70.7631 186.951 71.1111 186.703 71.3745C186.459 71.6379 186.109 71.7695 185.653 71.7695C185.224 71.7695 184.882 71.6623 184.626 71.4479C184.37 71.2334 184.226 70.9531 184.192 70.607L184.959 70.607C184.993 70.7575 185.068 70.8779 185.185 70.9682C185.305 71.0585 185.458 71.1036 185.642 71.1036C185.864 71.1036 186.031 71.034 186.144 70.8948C186.257 70.7556 186.314 70.5712 186.314 70.3417C186.314 70.1085 186.255 69.9317 186.139 69.8113C186.026 69.6871 185.858 69.625 185.636 69.625C185.478 69.625 185.347 69.6645 185.241 69.7435C185.136 69.8225 185.061 69.9279 185.016 70.0596L184.259 70.0596L184.259 67.6442L186.81 67.6442L186.81 68.3383ZM187.683 70.9682L187.683 70.3474L189.528 67.7063L190.448 67.7063L190.448 70.2797L190.944 70.2797L190.944 70.9682L190.448 70.9682L190.448 71.7695L189.658 71.7695L189.658 70.9682L187.683 70.9682ZM189.708 68.5528L188.552 70.2797L189.708 70.2797L189.708 68.5528ZM191.397 68.6656C191.397 68.3797 191.479 68.1559 191.645 67.9941C191.814 67.8323 192.031 67.7514 192.294 67.7514C192.557 67.7514 192.772 67.8323 192.937 67.9941C193.107 68.1559 193.191 68.3797 193.191 68.6656C193.191 68.9553 193.107 69.1811 192.937 69.3429C192.772 69.5046 192.557 69.5855 192.294 69.5855C192.031 69.5855 191.814 69.5046 191.645 69.3429C191.479 69.1811 191.397 68.9553 191.397 68.6656ZM195.02 67.8191L192.802 71.7695L192.034 71.7695L194.247 67.8191L195.02 67.8191ZM192.288 68.2255C192.081 68.2255 191.978 68.3722 191.978 68.6656C191.978 68.9629 192.081 69.1115 192.288 69.1115C192.39 69.1115 192.469 69.0757 192.525 69.0043C192.582 68.929 192.61 68.8161 192.61 68.6656C192.61 68.3722 192.503 68.2255 192.288 68.2255ZM193.874 70.9174C193.874 70.6277 193.957 70.4038 194.122 70.2458C194.292 70.084 194.508 70.0031 194.771 70.0031C195.035 70.0031 195.247 70.084 195.409 70.2458C195.575 70.4038 195.657 70.6277 195.657 70.9174C195.657 71.2071 195.575 71.4328 195.409 71.5946C195.247 71.7564 195.035 71.8373 194.771 71.8373C194.504 71.8373 194.288 71.7564 194.122 71.5946C193.957 71.4328 193.874 71.2071 193.874 70.9174ZM194.766 70.4772C194.551 70.4772 194.444 70.6239 194.444 70.9174C194.444 71.2146 194.551 71.3632 194.766 71.3632C194.976 71.3632 195.082 71.2146 195.082 70.9174C195.082 70.6239 194.976 70.4772 194.766 70.4772Z" fill="white"/>
<path d="M103.292 65.4772H101.376L101.046 66.4121H100.263L101.902 61.8297H102.771L104.411 66.4121H103.621L103.292 65.4772ZM103.081 64.8649L102.337 62.7382L101.586 64.8649H103.081ZM104.92 64.5949C104.92 64.2218 104.994 63.8948 105.143 63.6139C105.297 63.3286 105.508 63.1091 105.775 62.9555C106.043 62.8019 106.35 62.7251 106.697 62.7251C107.136 62.7251 107.498 62.8304 107.784 63.0411C108.073 63.2474 108.269 63.5437 108.37 63.9299H107.56C107.494 63.75 107.389 63.6095 107.244 63.5086C107.099 63.4076 106.917 63.3571 106.697 63.3571C106.39 63.3571 106.144 63.4669 105.96 63.6863C105.78 63.9014 105.69 64.2043 105.69 64.5949C105.69 64.9856 105.78 65.2906 105.96 65.5101C106.144 65.7296 106.39 65.8393 106.697 65.8393C107.132 65.8393 107.419 65.6484 107.56 65.2665H108.37C108.264 65.6352 108.067 65.9293 107.777 66.1487C107.487 66.3638 107.127 66.4714 106.697 66.4714C106.35 66.4714 106.043 66.3946 105.775 66.2409C105.508 66.0829 105.297 65.8634 105.143 65.5825C104.994 65.2972 104.92 64.968 104.92 64.5949ZM110.039 63.3966V65.4048C110.039 65.5408 110.07 65.6396 110.132 65.701C110.197 65.7581 110.307 65.7866 110.461 65.7866H110.922V66.4121H110.329C109.991 66.4121 109.732 66.3331 109.552 66.1751C109.372 66.0171 109.282 65.7603 109.282 65.4048V63.3966H108.854V62.7843H109.282V61.8823H110.039V62.7843H110.922V63.3966H110.039ZM112.041 62.3037C111.905 62.3037 111.791 62.2576 111.699 62.1654C111.607 62.0733 111.561 61.9591 111.561 61.8231C111.561 61.687 111.607 61.5729 111.699 61.4807C111.791 61.3885 111.905 61.3424 112.041 61.3424C112.173 61.3424 112.285 61.3885 112.377 61.4807C112.469 61.5729 112.515 61.687 112.515 61.8231C112.515 61.9591 112.469 62.0733 112.377 62.1654C112.285 62.2576 112.173 62.3037 112.041 62.3037ZM112.41 62.7843V66.4121H111.659V62.7843H112.41ZM114.844 65.7405L115.871 62.7843H116.668L115.285 66.4121H114.39L113.014 62.7843H113.817L114.844 65.7405ZM117.663 62.3037C117.527 62.3037 117.413 62.2576 117.321 62.1654C117.228 62.0733 117.182 61.9591 117.182 61.8231C117.182 61.687 117.228 61.5729 117.321 61.4807C117.413 61.3885 117.527 61.3424 117.663 61.3424C117.795 61.3424 117.907 61.3885 117.999 61.4807C118.091 61.5729 118.137 61.687 118.137 61.8231C118.137 61.9591 118.091 62.0733 117.999 62.1654C117.907 62.2576 117.795 62.3037 117.663 62.3037ZM118.032 62.7843V66.4121H117.281V62.7843H118.032ZM119.939 63.3966V65.4048C119.939 65.5408 119.97 65.6396 120.031 65.701C120.097 65.7581 120.207 65.7866 120.36 65.7866H120.821V66.4121H120.229C119.891 66.4121 119.632 66.3331 119.452 66.1751C119.272 66.0171 119.182 65.7603 119.182 65.4048V63.3966H118.754V62.7843H119.182V61.8823H119.939V62.7843H120.821V63.3966H119.939ZM124.825 62.7843L122.599 68.1174H121.822L122.56 66.3529L121.131 62.7843H121.967L122.988 65.5496L124.048 62.7843H124.825Z" fill="#484A61"/>
<g filter="url(#filter3_d_382_3367)">
<rect x="84.0469" y="101.074" width="209.277" height="41.3851" rx="4.70285" fill="#3B3C4E"/>
</g>
<path d="M103.733 118.725C103.733 118.958 103.678 119.178 103.568 119.384C103.458 119.59 103.283 119.759 103.041 119.891C102.8 120.018 102.491 120.082 102.113 120.082H101.283V121.938H100.533V117.363H102.113C102.464 117.363 102.76 117.424 103.002 117.547C103.248 117.665 103.43 117.828 103.548 118.034C103.671 118.24 103.733 118.471 103.733 118.725ZM102.113 119.469C102.398 119.469 102.611 119.406 102.752 119.279C102.892 119.147 102.962 118.963 102.962 118.725C102.962 118.225 102.679 117.975 102.113 117.975H101.283V119.469H102.113ZM105.245 118.837C105.355 118.653 105.5 118.51 105.68 118.409C105.864 118.304 106.081 118.251 106.332 118.251V119.028H106.141C105.847 119.028 105.623 119.103 105.469 119.252C105.32 119.401 105.245 119.66 105.245 120.029V121.938H104.495V118.311H105.245V118.837ZM108.641 121.998C108.299 121.998 107.989 121.921 107.713 121.767C107.436 121.609 107.219 121.39 107.061 121.109C106.903 120.824 106.824 120.494 106.824 120.121C106.824 119.753 106.905 119.426 107.068 119.14C107.23 118.855 107.452 118.636 107.733 118.482C108.013 118.328 108.327 118.251 108.674 118.251C109.021 118.251 109.335 118.328 109.616 118.482C109.897 118.636 110.118 118.855 110.281 119.14C110.443 119.426 110.524 119.753 110.524 120.121C110.524 120.49 110.441 120.817 110.274 121.102C110.107 121.388 109.879 121.609 109.589 121.767C109.304 121.921 108.988 121.998 108.641 121.998ZM108.641 121.346C108.834 121.346 109.014 121.3 109.181 121.208C109.352 121.115 109.49 120.977 109.596 120.793C109.701 120.609 109.754 120.385 109.754 120.121C109.754 119.858 109.703 119.636 109.602 119.456C109.501 119.272 109.368 119.134 109.201 119.042C109.034 118.949 108.854 118.903 108.661 118.903C108.468 118.903 108.288 118.949 108.121 119.042C107.959 119.134 107.829 119.272 107.733 119.456C107.636 119.636 107.588 119.858 107.588 120.121C107.588 120.512 107.686 120.815 107.884 121.03C108.086 121.241 108.338 121.346 108.641 121.346ZM111.062 120.108C111.062 119.744 111.137 119.421 111.286 119.14C111.44 118.859 111.646 118.642 111.905 118.488C112.168 118.33 112.46 118.251 112.78 118.251C113.018 118.251 113.25 118.304 113.478 118.409C113.711 118.51 113.895 118.646 114.031 118.818V117.066H114.789V121.938H114.031V121.392C113.909 121.568 113.737 121.712 113.518 121.827C113.303 121.941 113.055 121.998 112.774 121.998C112.458 121.998 112.168 121.919 111.905 121.761C111.646 121.598 111.44 121.374 111.286 121.089C111.137 120.799 111.062 120.472 111.062 120.108ZM114.031 120.121C114.031 119.871 113.979 119.654 113.873 119.469C113.772 119.285 113.639 119.145 113.472 119.048C113.305 118.952 113.125 118.903 112.932 118.903C112.739 118.903 112.559 118.952 112.392 119.048C112.225 119.14 112.089 119.279 111.984 119.463C111.883 119.643 111.832 119.858 111.832 120.108C111.832 120.358 111.883 120.578 111.984 120.767C112.089 120.955 112.225 121.1 112.392 121.201C112.563 121.298 112.743 121.346 112.932 121.346C113.125 121.346 113.305 121.298 113.472 121.201C113.639 121.105 113.772 120.964 113.873 120.78C113.979 120.591 114.031 120.371 114.031 120.121ZM119.106 118.311V121.938H118.355V121.511C118.237 121.66 118.081 121.778 117.888 121.866C117.699 121.949 117.497 121.991 117.282 121.991C116.997 121.991 116.74 121.932 116.512 121.813C116.288 121.695 116.11 121.519 115.979 121.287C115.851 121.054 115.788 120.773 115.788 120.444V118.311H116.532V120.332C116.532 120.657 116.613 120.907 116.775 121.083C116.938 121.254 117.159 121.339 117.44 121.339C117.721 121.339 117.943 121.254 118.105 121.083C118.272 120.907 118.355 120.657 118.355 120.332V118.311H119.106ZM119.892 120.121C119.892 119.748 119.967 119.421 120.116 119.14C120.27 118.855 120.48 118.636 120.748 118.482C121.016 118.328 121.323 118.251 121.67 118.251C122.109 118.251 122.471 118.357 122.756 118.567C123.046 118.774 123.241 119.07 123.342 119.456H122.532C122.467 119.276 122.361 119.136 122.216 119.035C122.071 118.934 121.889 118.884 121.67 118.884C121.363 118.884 121.117 118.993 120.932 119.213C120.752 119.428 120.662 119.731 120.662 120.121C120.662 120.512 120.752 120.817 120.932 121.036C121.117 121.256 121.363 121.366 121.67 121.366C122.104 121.366 122.392 121.175 122.532 120.793H123.342C123.237 121.162 123.039 121.456 122.75 121.675C122.46 121.89 122.1 121.998 121.67 121.998C121.323 121.998 121.016 121.921 120.748 121.767C120.48 121.609 120.27 121.39 120.116 121.109C119.967 120.824 119.892 120.494 119.892 120.121ZM125.012 118.923V120.931C125.012 121.067 125.043 121.166 125.104 121.227C125.17 121.284 125.28 121.313 125.433 121.313H125.894V121.938H125.302C124.964 121.938 124.705 121.859 124.525 121.701C124.345 121.543 124.255 121.287 124.255 120.931V118.923H123.827V118.311H124.255V117.409H125.012V118.311H125.894V118.923H125.012ZM127.014 117.83C126.878 117.83 126.764 117.784 126.672 117.692C126.579 117.6 126.533 117.486 126.533 117.349C126.533 117.213 126.579 117.099 126.672 117.007C126.764 116.915 126.878 116.869 127.014 116.869C127.146 116.869 127.258 116.915 127.35 117.007C127.442 117.099 127.488 117.213 127.488 117.349C127.488 117.486 127.442 117.6 127.35 117.692C127.258 117.784 127.146 117.83 127.014 117.83ZM127.383 118.311V121.938H126.632V118.311H127.383ZM129.817 121.267L130.844 118.311H131.64L130.258 121.938H129.362L127.986 118.311H128.789L129.817 121.267ZM132.636 117.83C132.5 117.83 132.385 117.784 132.293 117.692C132.201 117.6 132.155 117.486 132.155 117.349C132.155 117.213 132.201 117.099 132.293 117.007C132.385 116.915 132.5 116.869 132.636 116.869C132.767 116.869 132.879 116.915 132.971 117.007C133.064 117.099 133.11 117.213 133.11 117.349C133.11 117.486 133.064 117.6 132.971 117.692C132.879 117.784 132.767 117.83 132.636 117.83ZM133.004 118.311V121.938H132.254V118.311H133.004ZM134.912 118.923V120.931C134.912 121.067 134.942 121.166 135.004 121.227C135.07 121.284 135.179 121.313 135.333 121.313H135.794V121.938H135.201C134.863 121.938 134.604 121.859 134.424 121.701C134.244 121.543 134.154 121.287 134.154 120.931V118.923H133.726V118.311H134.154V117.409H134.912V118.311H135.794V118.923H134.912ZM139.797 118.311L137.572 123.644H136.795L137.532 121.879L136.104 118.311H136.94L137.96 121.076L139.02 118.311H139.797Z" fill="white"/>
<path d="M180.803 110.514C180.767 110.265 180.536 110.091 180.29 110.139C179.307 110.333 178.364 110.697 177.505 111.217C176.516 111.815 175.658 112.607 174.982 113.545C174.307 114.484 173.828 115.549 173.575 116.677C173.355 117.657 173.31 118.666 173.439 119.66C173.471 119.909 173.71 120.073 173.957 120.027C174.204 119.981 174.367 119.744 174.336 119.494C174.228 118.622 174.271 117.736 174.464 116.876C174.69 115.868 175.118 114.916 175.722 114.077C176.325 113.239 177.092 112.531 177.976 111.996C178.73 111.54 179.556 111.218 180.418 111.043C180.664 110.993 180.838 110.763 180.803 110.514Z" fill="white" fill-opacity="0.2"/>
<path d="M174.215 120.969C173.732 121.12 173.458 121.637 173.657 122.103C174.19 123.347 174.997 124.459 176.023 125.353C177.28 126.449 178.817 127.174 180.462 127.448C182.107 127.723 183.796 127.536 185.341 126.908C186.886 126.28 188.226 125.236 189.213 123.891C190.2 122.547 190.795 120.955 190.932 119.293C191.068 117.631 190.741 115.964 189.987 114.477C189.232 112.989 188.08 111.74 186.658 110.869C185.498 110.157 184.195 109.72 182.849 109.584C182.345 109.534 181.934 109.95 181.934 110.457C181.935 110.963 182.348 111.367 182.851 111.431C183.857 111.559 184.829 111.899 185.699 112.433C186.832 113.127 187.749 114.122 188.35 115.307C188.951 116.491 189.212 117.819 189.103 119.143C188.994 120.467 188.52 121.735 187.734 122.805C186.948 123.876 185.88 124.708 184.65 125.208C183.419 125.708 182.074 125.857 180.764 125.638C179.454 125.42 178.23 124.842 177.228 123.97C176.458 123.299 175.843 122.474 175.42 121.552C175.208 121.091 174.699 120.818 174.215 120.969Z" fill="#2ECD6F"/>
<path d="M180.478 117.62H179.107V118.344C179.166 118.27 179.251 118.211 179.361 118.166C179.471 118.118 179.588 118.094 179.712 118.094C179.938 118.094 180.122 118.143 180.266 118.242C180.41 118.341 180.515 118.468 180.58 118.623C180.644 118.775 180.677 118.939 180.677 119.114C180.677 119.439 180.584 119.7 180.398 119.897C180.214 120.095 179.952 120.193 179.61 120.193C179.289 120.193 179.032 120.113 178.84 119.952C178.648 119.791 178.539 119.581 178.514 119.321H179.09C179.115 119.434 179.172 119.525 179.259 119.592C179.349 119.66 179.464 119.694 179.602 119.694C179.768 119.694 179.894 119.642 179.979 119.537C180.063 119.433 180.106 119.295 180.106 119.123C180.106 118.948 180.062 118.815 179.974 118.725C179.89 118.632 179.764 118.585 179.598 118.585C179.479 118.585 179.38 118.615 179.301 118.674C179.222 118.733 179.166 118.812 179.132 118.911H178.565V117.099H180.478V117.62ZM181.086 117.654V117.108H182.106V120.193H181.496V117.654H181.086ZM182.653 117.865C182.653 117.651 182.715 117.483 182.839 117.362C182.966 117.24 183.128 117.18 183.326 117.18C183.523 117.18 183.684 117.24 183.808 117.362C183.935 117.483 183.999 117.651 183.999 117.865C183.999 118.083 183.935 118.252 183.808 118.373C183.684 118.495 183.523 118.555 183.326 118.555C183.128 118.555 182.966 118.495 182.839 118.373C182.715 118.252 182.653 118.083 182.653 117.865ZM185.37 117.231L183.707 120.193H183.131L184.79 117.231H185.37ZM183.322 117.535C183.166 117.535 183.089 117.645 183.089 117.865C183.089 118.088 183.166 118.2 183.322 118.2C183.398 118.2 183.457 118.173 183.499 118.119C183.542 118.063 183.563 117.978 183.563 117.865C183.563 117.645 183.482 117.535 183.322 117.535ZM184.511 119.554C184.511 119.337 184.573 119.169 184.697 119.051C184.824 118.929 184.986 118.869 185.184 118.869C185.382 118.869 185.541 118.929 185.662 119.051C185.786 119.169 185.849 119.337 185.849 119.554C185.849 119.772 185.786 119.941 185.662 120.062C185.541 120.183 185.382 120.244 185.184 120.244C184.984 120.244 184.821 120.183 184.697 120.062C184.573 119.941 184.511 119.772 184.511 119.554ZM185.18 119.224C185.019 119.224 184.939 119.334 184.939 119.554C184.939 119.777 185.019 119.889 185.18 119.889C185.338 119.889 185.417 119.777 185.417 119.554C185.417 119.334 185.338 119.224 185.18 119.224Z" fill="white"/>
<path d="M174.035 129.437C174.035 129.655 173.96 129.837 173.809 129.983C173.661 130.126 173.434 130.197 173.128 130.197H172.624V131.292H172.282V128.67H173.128C173.424 128.67 173.649 128.741 173.802 128.884C173.957 129.027 174.035 129.211 174.035 129.437ZM173.128 129.915C173.319 129.915 173.459 129.874 173.55 129.791C173.64 129.708 173.685 129.59 173.685 129.437C173.685 129.114 173.5 128.952 173.128 128.952H172.624V129.915H173.128ZM174.829 129.565C174.89 129.447 174.975 129.356 175.085 129.29C175.198 129.225 175.335 129.193 175.495 129.193V129.546H175.405C175.021 129.546 174.829 129.754 174.829 130.171V131.292H174.487V129.23H174.829V129.565ZM176.816 131.326C176.623 131.326 176.447 131.282 176.289 131.194C176.134 131.106 176.011 130.982 175.921 130.822C175.833 130.659 175.789 130.471 175.789 130.257C175.789 130.047 175.834 129.861 175.924 129.701C176.017 129.538 176.143 129.413 176.301 129.328C176.459 129.24 176.635 129.196 176.831 129.196C177.027 129.196 177.204 129.24 177.362 129.328C177.52 129.413 177.644 129.536 177.734 129.697C177.827 129.857 177.873 130.044 177.873 130.257C177.873 130.471 177.826 130.659 177.73 130.822C177.637 130.982 177.511 131.106 177.35 131.194C177.19 131.282 177.012 131.326 176.816 131.326ZM176.816 131.025C176.939 131.025 177.054 130.996 177.162 130.938C177.27 130.881 177.357 130.794 177.422 130.679C177.489 130.563 177.523 130.423 177.523 130.257C177.523 130.092 177.491 129.951 177.425 129.836C177.36 129.721 177.275 129.635 177.17 129.58C177.064 129.522 176.95 129.494 176.827 129.494C176.702 129.494 176.586 129.522 176.481 129.58C176.378 129.635 176.296 129.721 176.233 129.836C176.17 129.951 176.139 130.092 176.139 130.257C176.139 130.425 176.169 130.567 176.229 130.683C176.292 130.798 176.375 130.884 176.477 130.942C176.58 130.997 176.693 131.025 176.816 131.025ZM178.222 130.254C178.222 130.043 178.264 129.859 178.35 129.701C178.435 129.54 178.552 129.416 178.7 129.328C178.85 129.24 179.018 129.196 179.204 129.196C179.364 129.196 179.513 129.234 179.651 129.309C179.789 129.382 179.895 129.479 179.967 129.599V128.508H180.314V131.292H179.967V130.904C179.9 131.027 179.799 131.129 179.666 131.209C179.534 131.287 179.378 131.326 179.2 131.326C179.017 131.326 178.85 131.281 178.7 131.19C178.552 131.1 178.435 130.973 178.35 130.81C178.264 130.647 178.222 130.462 178.222 130.254ZM179.967 130.257C179.967 130.102 179.936 129.966 179.873 129.851C179.811 129.736 179.725 129.648 179.618 129.588C179.512 129.525 179.396 129.494 179.268 129.494C179.14 129.494 179.023 129.524 178.918 129.584C178.812 129.644 178.728 129.732 178.666 129.847C178.603 129.963 178.572 130.098 178.572 130.254C178.572 130.412 178.603 130.55 178.666 130.667C178.728 130.783 178.812 130.872 178.918 130.935C179.023 130.995 179.14 131.025 179.268 131.025C179.396 131.025 179.512 130.995 179.618 130.935C179.725 130.872 179.811 130.783 179.873 130.667C179.936 130.55 179.967 130.413 179.967 130.257ZM182.747 129.23V131.292H182.405V130.987C182.339 131.093 182.248 131.175 182.13 131.236C182.015 131.293 181.887 131.322 181.746 131.322C181.586 131.322 181.441 131.289 181.314 131.224C181.186 131.157 181.084 131.056 181.009 130.923C180.936 130.79 180.9 130.629 180.9 130.438V129.23H181.238V130.393C181.238 130.596 181.29 130.753 181.393 130.863C181.495 130.971 181.636 131.025 181.814 131.025C181.997 131.025 182.141 130.968 182.247 130.856C182.352 130.743 182.405 130.578 182.405 130.363V129.23H182.747ZM183.223 130.257C183.223 130.044 183.266 129.859 183.351 129.701C183.437 129.54 183.555 129.416 183.705 129.328C183.858 129.24 184.032 129.196 184.228 129.196C184.481 129.196 184.689 129.258 184.853 129.381C185.018 129.504 185.127 129.674 185.18 129.892H184.811C184.776 129.767 184.707 129.668 184.604 129.595C184.504 129.522 184.378 129.486 184.228 129.486C184.032 129.486 183.874 129.554 183.754 129.689C183.634 129.822 183.573 130.012 183.573 130.257C183.573 130.506 183.634 130.698 183.754 130.833C183.874 130.968 184.032 131.036 184.228 131.036C184.378 131.036 184.504 131.001 184.604 130.931C184.705 130.861 184.774 130.76 184.811 130.63H185.18C185.125 130.841 185.014 131.01 184.849 131.138C184.683 131.263 184.476 131.326 184.228 131.326C184.032 131.326 183.858 131.282 183.705 131.194C183.555 131.106 183.437 130.982 183.351 130.822C183.266 130.661 183.223 130.473 183.223 130.257ZM186.081 129.512V130.728C186.081 130.828 186.102 130.899 186.145 130.942C186.187 130.982 186.261 131.002 186.367 131.002H186.619V131.292H186.31C186.119 131.292 185.977 131.248 185.881 131.16C185.786 131.073 185.738 130.928 185.738 130.728V129.512H185.471V129.23H185.738V128.711H186.081V129.23H186.619V129.512H186.081ZM187.237 128.895C187.171 128.895 187.116 128.873 187.071 128.828C187.026 128.783 187.003 128.727 187.003 128.662C187.003 128.597 187.026 128.542 187.071 128.497C187.116 128.451 187.171 128.429 187.237 128.429C187.299 128.429 187.352 128.451 187.395 128.497C187.44 128.542 187.462 128.597 187.462 128.662C187.462 128.727 187.44 128.783 187.395 128.828C187.352 128.873 187.299 128.895 187.237 128.895ZM187.402 129.23V131.292H187.06V129.23H187.402ZM188.779 130.976L189.419 129.23H189.784L188.975 131.292H188.576L187.767 129.23H188.136L188.779 130.976ZM192.028 130.182C192.028 130.247 192.025 130.316 192.017 130.389H190.369C190.382 130.592 190.451 130.751 190.576 130.867C190.704 130.98 190.858 131.036 191.039 131.036C191.187 131.036 191.31 131.002 191.408 130.935C191.508 130.864 191.578 130.772 191.618 130.656H191.987C191.932 130.854 191.821 131.016 191.656 131.142C191.49 131.264 191.285 131.326 191.039 131.326C190.843 131.326 190.668 131.282 190.512 131.194C190.359 131.106 190.239 130.982 190.151 130.822C190.063 130.659 190.019 130.471 190.019 130.257C190.019 130.044 190.062 129.857 190.147 129.697C190.233 129.536 190.352 129.413 190.505 129.328C190.66 129.24 190.838 129.196 191.039 129.196C191.235 129.196 191.408 129.239 191.558 129.324C191.709 129.41 191.824 129.527 191.904 129.678C191.987 129.826 192.028 129.994 192.028 130.182ZM191.675 130.111C191.675 129.98 191.646 129.869 191.588 129.776C191.531 129.68 191.452 129.609 191.351 129.561C191.253 129.511 191.144 129.486 191.024 129.486C190.851 129.486 190.703 129.541 190.58 129.652C190.46 129.762 190.391 129.915 190.373 130.111H191.675Z" fill="white"/>
<path d="M215.726 131.292H215.384L214.007 129.204V131.292H213.665V128.666H214.007L215.384 130.75V128.666H215.726V131.292ZM218.218 130.182C218.218 130.247 218.214 130.316 218.206 130.389H216.558C216.571 130.592 216.64 130.751 216.765 130.867C216.893 130.98 217.047 131.036 217.228 131.036C217.376 131.036 217.499 131.002 217.597 130.935C217.697 130.864 217.767 130.772 217.807 130.656H218.176C218.121 130.854 218.011 131.016 217.845 131.142C217.68 131.264 217.474 131.326 217.228 131.326C217.032 131.326 216.857 131.282 216.701 131.194C216.548 131.106 216.428 130.982 216.34 130.822C216.252 130.659 216.208 130.471 216.208 130.257C216.208 130.044 216.251 129.857 216.336 129.697C216.422 129.536 216.541 129.413 216.694 129.328C216.849 129.24 217.027 129.196 217.228 129.196C217.424 129.196 217.597 129.239 217.747 129.324C217.898 129.41 218.013 129.527 218.093 129.678C218.176 129.826 218.218 129.994 218.218 130.182ZM217.864 130.111C217.864 129.98 217.835 129.869 217.777 129.776C217.72 129.68 217.641 129.609 217.54 129.561C217.442 129.511 217.333 129.486 217.213 129.486C217.04 129.486 216.892 129.541 216.769 129.652C216.649 129.762 216.58 129.915 216.562 130.111H217.864ZM220.524 129.23V131.292H220.182V130.987C220.117 131.093 220.025 131.175 219.907 131.236C219.792 131.293 219.664 131.322 219.523 131.322C219.363 131.322 219.219 131.289 219.091 131.224C218.963 131.157 218.861 131.056 218.786 130.923C218.713 130.79 218.677 130.629 218.677 130.438V129.23H219.016V130.393C219.016 130.596 219.067 130.753 219.17 130.863C219.273 130.971 219.413 131.025 219.591 131.025C219.774 131.025 219.919 130.968 220.024 130.856C220.129 130.743 220.182 130.578 220.182 130.363V129.23H220.524ZM221.546 129.512V130.728C221.546 130.828 221.568 130.899 221.61 130.942C221.653 130.982 221.727 131.002 221.832 131.002H222.084V131.292H221.776C221.585 131.292 221.442 131.248 221.347 131.16C221.252 131.073 221.204 130.928 221.204 130.728V129.512H220.937V129.23H221.204V128.711H221.546V129.23H222.084V129.512H221.546ZM222.868 129.565C222.928 129.447 223.013 129.356 223.124 129.29C223.236 129.225 223.373 129.193 223.534 129.193V129.546H223.443C223.06 129.546 222.868 129.754 222.868 130.171V131.292H222.525V129.23H222.868V129.565ZM223.827 130.254C223.827 130.043 223.87 129.859 223.955 129.701C224.041 129.54 224.157 129.416 224.305 129.328C224.456 129.24 224.622 129.196 224.806 129.196C224.986 129.196 225.143 129.235 225.276 129.313C225.409 129.391 225.508 129.489 225.573 129.606V129.23H225.919V131.292H225.573V130.908C225.505 131.029 225.404 131.129 225.268 131.209C225.135 131.287 224.98 131.326 224.802 131.326C224.619 131.326 224.453 131.281 224.305 131.19C224.157 131.1 224.041 130.973 223.955 130.81C223.87 130.647 223.827 130.462 223.827 130.254ZM225.573 130.257C225.573 130.102 225.542 129.966 225.479 129.851C225.416 129.736 225.331 129.648 225.223 129.588C225.118 129.525 225.001 129.494 224.873 129.494C224.745 129.494 224.629 129.524 224.523 129.584C224.418 129.644 224.334 129.732 224.271 129.847C224.209 129.963 224.177 130.098 224.177 130.254C224.177 130.412 224.209 130.55 224.271 130.667C224.334 130.783 224.418 130.872 224.523 130.935C224.629 130.995 224.745 131.025 224.873 131.025C225.001 131.025 225.118 130.995 225.223 130.935C225.331 130.872 225.416 130.783 225.479 130.667C225.542 130.55 225.573 130.413 225.573 130.257ZM226.866 128.508V131.292H226.524V128.508H226.866Z" fill="white"/>
<path d="M219.523 110.494C219.493 110.244 219.265 110.066 219.018 110.109C217.432 110.39 215.953 111.111 214.755 112.196C213.443 113.383 212.531 114.947 212.143 116.672C211.755 118.398 211.909 120.201 212.586 121.835C213.204 123.329 214.231 124.615 215.544 125.547C215.749 125.693 216.031 125.629 216.166 125.416C216.3 125.204 216.236 124.923 216.032 124.776C214.877 123.945 213.974 122.807 213.427 121.487C212.823 120.026 212.684 118.414 213.031 116.872C213.378 115.33 214.194 113.932 215.366 112.872C216.425 111.913 217.729 111.271 219.129 111.015C219.376 110.969 219.554 110.744 219.523 110.494Z" fill="white" fill-opacity="0.2"/>
<path d="M217.057 125.881C216.841 126.34 217.036 126.891 217.514 127.059C218.495 127.405 219.53 127.579 220.574 127.571C221.925 127.561 223.257 127.248 224.47 126.654C225.684 126.06 226.748 125.202 227.585 124.141C228.422 123.081 229.01 121.846 229.306 120.528C229.601 119.21 229.597 117.842 229.293 116.526C228.989 115.209 228.393 113.978 227.549 112.923C226.705 111.868 225.635 111.016 224.418 110.431C223.477 109.978 222.466 109.693 221.432 109.586C220.928 109.535 220.516 109.95 220.515 110.457C220.515 110.963 220.927 111.368 221.429 111.433C222.188 111.531 222.929 111.751 223.622 112.084C224.592 112.551 225.444 113.229 226.116 114.069C226.788 114.91 227.263 115.89 227.505 116.939C227.747 117.987 227.751 119.076 227.515 120.126C227.28 121.176 226.812 122.16 226.145 123.004C225.478 123.849 224.63 124.533 223.664 125.006C222.697 125.479 221.637 125.728 220.561 125.736C219.792 125.742 219.029 125.624 218.3 125.388C217.818 125.233 217.273 125.423 217.057 125.881Z" fill="#FFC107"/>
<path d="M215.931 117.92C215.945 117.638 216.044 117.421 216.227 117.269C216.413 117.113 216.658 117.036 216.959 117.036C217.165 117.036 217.342 117.073 217.489 117.146C217.635 117.216 217.745 117.314 217.819 117.438C217.895 117.559 217.933 117.698 217.933 117.853C217.933 118.031 217.886 118.181 217.793 118.306C217.703 118.427 217.594 118.509 217.467 118.551V118.568C217.631 118.619 217.758 118.709 217.848 118.839C217.941 118.969 217.988 119.135 217.988 119.338C217.988 119.508 217.948 119.659 217.869 119.791C217.793 119.924 217.679 120.028 217.527 120.104C217.377 120.178 217.197 120.215 216.985 120.215C216.666 120.215 216.406 120.134 216.206 119.973C216.006 119.812 215.9 119.575 215.889 119.262H216.464C216.47 119.4 216.516 119.512 216.604 119.597C216.694 119.678 216.817 119.719 216.972 119.719C217.116 119.719 217.226 119.68 217.302 119.601C217.381 119.519 217.421 119.415 217.421 119.288C217.421 119.118 217.367 118.997 217.26 118.924C217.153 118.85 216.986 118.814 216.761 118.814H216.638V118.327H216.761C217.161 118.327 217.362 118.193 217.362 117.925C217.362 117.803 217.325 117.709 217.252 117.641C217.181 117.573 217.078 117.54 216.943 117.54C216.81 117.54 216.707 117.576 216.634 117.65C216.563 117.72 216.522 117.81 216.511 117.92H215.931ZM218.46 119.592V119.127L219.845 117.146H220.534V119.076H220.907V119.592H220.534V120.193H219.942V119.592H218.46ZM219.98 117.781L219.112 119.076H219.98V117.781ZM221.246 117.865C221.246 117.651 221.308 117.483 221.432 117.362C221.559 117.24 221.722 117.18 221.919 117.18C222.117 117.18 222.277 117.24 222.402 117.362C222.529 117.483 222.592 117.651 222.592 117.865C222.592 118.083 222.529 118.252 222.402 118.373C222.277 118.495 222.117 118.555 221.919 118.555C221.722 118.555 221.559 118.495 221.432 118.373C221.308 118.252 221.246 118.083 221.246 117.865ZM223.963 117.231L222.3 120.193H221.724L223.384 117.231H223.963ZM221.915 117.535C221.76 117.535 221.682 117.645 221.682 117.865C221.682 118.088 221.76 118.2 221.915 118.2C221.991 118.2 222.05 118.173 222.093 118.119C222.135 118.063 222.156 117.978 222.156 117.865C222.156 117.645 222.076 117.535 221.915 117.535ZM223.104 119.554C223.104 119.337 223.166 119.169 223.29 119.051C223.417 118.929 223.58 118.869 223.777 118.869C223.975 118.869 224.134 118.929 224.255 119.051C224.38 119.169 224.442 119.337 224.442 119.554C224.442 119.772 224.38 119.941 224.255 120.062C224.134 120.183 223.975 120.244 223.777 120.244C223.577 120.244 223.415 120.183 223.29 120.062C223.166 119.941 223.104 119.772 223.104 119.554ZM223.773 119.224C223.612 119.224 223.532 119.334 223.532 119.554C223.532 119.777 223.612 119.889 223.773 119.889C223.931 119.889 224.01 119.777 224.01 119.554C224.01 119.334 223.931 119.224 223.773 119.224Z" fill="white"/>
<path d="M247.707 131.292H247.365L245.988 129.204V131.292H245.645V128.666H245.988L247.365 130.75V128.666H247.707V131.292ZM249.216 131.326C249.023 131.326 248.847 131.282 248.689 131.194C248.534 131.106 248.411 130.982 248.321 130.822C248.233 130.659 248.189 130.471 248.189 130.257C248.189 130.047 248.234 129.861 248.324 129.701C248.417 129.538 248.543 129.413 248.701 129.328C248.859 129.24 249.035 129.196 249.231 129.196C249.427 129.196 249.604 129.24 249.762 129.328C249.92 129.413 250.044 129.536 250.134 129.697C250.227 129.857 250.273 130.044 250.273 130.257C250.273 130.471 250.226 130.659 250.13 130.822C250.037 130.982 249.911 131.106 249.75 131.194C249.59 131.282 249.412 131.326 249.216 131.326ZM249.216 131.025C249.339 131.025 249.454 130.996 249.562 130.938C249.67 130.881 249.757 130.794 249.822 130.679C249.889 130.563 249.923 130.423 249.923 130.257C249.923 130.092 249.891 129.951 249.826 129.836C249.76 129.721 249.675 129.635 249.57 129.58C249.464 129.522 249.35 129.494 249.227 129.494C249.102 129.494 248.987 129.522 248.881 129.58C248.778 129.635 248.696 129.721 248.633 129.836C248.57 129.951 248.539 130.092 248.539 130.257C248.539 130.425 248.569 130.567 248.629 130.683C248.692 130.798 248.775 130.884 248.877 130.942C248.98 130.997 249.093 131.025 249.216 131.025ZM251.754 129.193C252.005 129.193 252.208 129.269 252.364 129.422C252.519 129.573 252.597 129.791 252.597 130.077V131.292H252.258V130.126C252.258 129.92 252.207 129.763 252.104 129.655C252.001 129.545 251.861 129.49 251.683 129.49C251.502 129.49 251.358 129.546 251.25 129.659C251.145 129.772 251.092 129.936 251.092 130.152V131.292H250.75V129.23H251.092V129.524C251.16 129.418 251.251 129.337 251.367 129.279C251.485 129.221 251.614 129.193 251.754 129.193ZM254.612 129.768V130.058H253.111V129.768H254.612ZM257.034 129.437C257.034 129.655 256.959 129.837 256.809 129.983C256.661 130.126 256.434 130.197 256.128 130.197H255.624V131.292H255.281V128.67H256.128C256.424 128.67 256.648 128.741 256.801 128.884C256.957 129.027 257.034 129.211 257.034 129.437ZM256.128 129.915C256.318 129.915 256.459 129.874 256.549 129.791C256.639 129.708 256.684 129.59 256.684 129.437C256.684 129.114 256.499 128.952 256.128 128.952H255.624V129.915H256.128ZM257.829 129.565C257.889 129.447 257.974 129.356 258.084 129.29C258.197 129.225 258.334 129.193 258.495 129.193V129.546H258.404C258.02 129.546 257.829 129.754 257.829 130.171V131.292H257.486V129.23H257.829V129.565ZM259.815 131.326C259.622 131.326 259.447 131.282 259.289 131.194C259.133 131.106 259.01 130.982 258.92 130.822C258.832 130.659 258.788 130.471 258.788 130.257C258.788 130.047 258.833 129.861 258.924 129.701C259.016 129.538 259.142 129.413 259.3 129.328C259.458 129.24 259.635 129.196 259.83 129.196C260.026 129.196 260.203 129.24 260.361 129.328C260.519 129.413 260.643 129.536 260.733 129.697C260.826 129.857 260.872 130.044 260.872 130.257C260.872 130.471 260.825 130.659 260.729 130.822C260.637 130.982 260.51 131.106 260.349 131.194C260.189 131.282 260.011 131.326 259.815 131.326ZM259.815 131.025C259.938 131.025 260.054 130.996 260.161 130.938C260.269 130.881 260.356 130.794 260.421 130.679C260.489 130.563 260.523 130.423 260.523 130.257C260.523 130.092 260.49 129.951 260.425 129.836C260.36 129.721 260.274 129.635 260.169 129.58C260.064 129.522 259.949 129.494 259.827 129.494C259.701 129.494 259.586 129.522 259.48 129.58C259.378 129.635 259.295 129.721 259.232 129.836C259.169 129.951 259.138 130.092 259.138 130.257C259.138 130.425 259.168 130.567 259.228 130.683C259.291 130.798 259.374 130.884 259.477 130.942C259.579 130.997 259.692 131.025 259.815 131.025ZM261.221 130.254C261.221 130.043 261.264 129.859 261.349 129.701C261.434 129.54 261.551 129.416 261.699 129.328C261.849 129.24 262.017 129.196 262.203 129.196C262.363 129.196 262.513 129.234 262.651 129.309C262.789 129.382 262.894 129.479 262.967 129.599V128.508H263.313V131.292H262.967V130.904C262.899 131.027 262.799 131.129 262.666 131.209C262.533 131.287 262.377 131.326 262.199 131.326C262.016 131.326 261.849 131.281 261.699 131.19C261.551 131.1 261.434 130.973 261.349 130.81C261.264 130.647 261.221 130.462 261.221 130.254ZM262.967 130.257C262.967 130.102 262.935 129.966 262.873 129.851C262.81 129.736 262.725 129.648 262.617 129.588C262.511 129.525 262.395 129.494 262.267 129.494C262.139 129.494 262.022 129.524 261.917 129.584C261.812 129.644 261.728 129.732 261.665 129.847C261.602 129.963 261.571 130.098 261.571 130.254C261.571 130.412 261.602 130.55 261.665 130.667C261.728 130.783 261.812 130.872 261.917 130.935C262.022 130.995 262.139 131.025 262.267 131.025C262.395 131.025 262.511 130.995 262.617 130.935C262.725 130.872 262.81 130.783 262.873 130.667C262.935 130.55 262.967 130.413 262.967 130.257ZM265.746 129.23V131.292H265.404V130.987C265.339 131.093 265.247 131.175 265.129 131.236C265.014 131.293 264.886 131.322 264.745 131.322C264.585 131.322 264.441 131.289 264.313 131.224C264.185 131.157 264.083 131.056 264.008 130.923C263.935 130.79 263.899 130.629 263.899 130.438V129.23H264.238V130.393C264.238 130.596 264.289 130.753 264.392 130.863C264.495 130.971 264.635 131.025 264.813 131.025C264.996 131.025 265.14 130.968 265.246 130.856C265.351 130.743 265.404 130.578 265.404 130.363V129.23H265.746ZM266.223 130.257C266.223 130.044 266.265 129.859 266.351 129.701C266.436 129.54 266.554 129.416 266.704 129.328C266.857 129.24 267.032 129.196 267.227 129.196C267.481 129.196 267.689 129.258 267.852 129.381C268.017 129.504 268.126 129.674 268.179 129.892H267.81C267.775 129.767 267.706 129.668 267.603 129.595C267.503 129.522 267.378 129.486 267.227 129.486C267.032 129.486 266.874 129.554 266.753 129.689C266.633 129.822 266.573 130.012 266.573 130.257C266.573 130.506 266.633 130.698 266.753 130.833C266.874 130.968 267.032 131.036 267.227 131.036C267.378 131.036 267.503 131.001 267.603 130.931C267.704 130.861 267.773 130.76 267.81 130.63H268.179C268.124 130.841 268.014 131.01 267.848 131.138C267.682 131.263 267.476 131.326 267.227 131.326C267.032 131.326 266.857 131.282 266.704 131.194C266.554 131.106 266.436 130.982 266.351 130.822C266.265 130.661 266.223 130.473 266.223 130.257ZM269.08 129.512V130.728C269.08 130.828 269.101 130.899 269.144 130.942C269.186 130.982 269.26 131.002 269.366 131.002H269.618V131.292H269.309C269.119 131.292 268.976 131.248 268.88 131.16C268.785 131.073 268.737 130.928 268.737 130.728V129.512H268.47V129.23H268.737V128.711H269.08V129.23H269.618V129.512H269.08ZM270.236 128.895C270.171 128.895 270.115 128.873 270.07 128.828C270.025 128.783 270.003 128.727 270.003 128.662C270.003 128.597 270.025 128.542 270.07 128.497C270.115 128.451 270.171 128.429 270.236 128.429C270.299 128.429 270.351 128.451 270.394 128.497C270.439 128.542 270.462 128.597 270.462 128.662C270.462 128.727 270.439 128.783 270.394 128.828C270.351 128.873 270.299 128.895 270.236 128.895ZM270.401 129.23V131.292H270.059V129.23H270.401ZM271.779 130.976L272.418 129.23H272.783L271.974 131.292H271.576L270.767 129.23H271.135L271.779 130.976ZM275.028 130.182C275.028 130.247 275.024 130.316 275.016 130.389H273.368C273.381 130.592 273.45 130.751 273.575 130.867C273.703 130.98 273.858 131.036 274.038 131.036C274.186 131.036 274.309 131.002 274.407 130.935C274.507 130.864 274.577 130.772 274.618 130.656H274.986C274.931 130.854 274.821 131.016 274.655 131.142C274.49 131.264 274.284 131.326 274.038 131.326C273.843 131.326 273.667 131.282 273.511 131.194C273.358 131.106 273.238 130.982 273.15 130.822C273.062 130.659 273.019 130.471 273.019 130.257C273.019 130.044 273.061 129.857 273.147 129.697C273.232 129.536 273.351 129.413 273.504 129.328C273.659 129.24 273.838 129.196 274.038 129.196C274.234 129.196 274.407 129.239 274.557 129.324C274.708 129.41 274.823 129.527 274.903 129.678C274.986 129.826 275.028 129.994 275.028 130.182ZM274.674 130.111C274.674 129.98 274.645 129.869 274.587 129.776C274.53 129.68 274.451 129.609 274.35 129.561C274.253 129.511 274.144 129.486 274.023 129.486C273.85 129.486 273.702 129.541 273.579 129.652C273.459 129.762 273.39 129.915 273.372 130.111H274.674Z" fill="white"/>
<path d="M259.031 110.494C259 110.244 258.773 110.066 258.525 110.109C256.844 110.406 255.285 111.2 254.053 112.392C252.712 113.69 251.831 115.39 251.543 117.234C251.256 119.079 251.578 120.966 252.461 122.611C253.344 124.256 254.739 125.567 256.435 126.347C258.131 127.127 260.035 127.332 261.858 126.931C263.681 126.531 265.324 125.546 266.536 124.127C267.749 122.709 268.466 120.933 268.578 119.07C268.681 117.358 268.269 115.659 267.399 114.189C267.271 113.973 266.988 113.917 266.778 114.056C266.569 114.195 266.513 114.477 266.64 114.695C267.4 115.999 267.76 117.502 267.669 119.015C267.569 120.68 266.928 122.267 265.844 123.536C264.76 124.804 263.292 125.684 261.662 126.042C260.033 126.4 258.331 126.216 256.815 125.519C255.3 124.823 254.053 123.65 253.263 122.18C252.474 120.71 252.186 119.023 252.443 117.375C252.7 115.726 253.488 114.207 254.687 113.046C255.776 111.992 257.151 111.287 258.636 111.015C258.883 110.969 259.061 110.744 259.031 110.494Z" fill="white" fill-opacity="0.2"/>
<path d="M260.016 110.457C260.016 109.95 260.428 109.534 260.932 109.586C261.922 109.687 262.89 109.951 263.797 110.37C264.704 110.789 265.533 111.355 266.252 112.043C266.618 112.393 266.568 112.976 266.182 113.305C265.797 113.633 265.221 113.582 264.846 113.241C264.306 112.75 263.693 112.343 263.027 112.036C262.362 111.729 261.655 111.526 260.931 111.433C260.428 111.368 260.016 110.963 260.016 110.457Z" fill="#ED5156"/>
<path d="M255.837 117.654V117.108H256.857V120.193H256.248V117.654H255.837ZM259.546 117.62H258.175V118.344C258.234 118.27 258.319 118.211 258.429 118.166C258.539 118.118 258.656 118.094 258.78 118.094C259.006 118.094 259.191 118.143 259.334 118.242C259.478 118.341 259.583 118.468 259.648 118.623C259.713 118.775 259.745 118.939 259.745 119.114C259.745 119.439 259.652 119.7 259.466 119.897C259.282 120.095 259.02 120.193 258.678 120.193C258.357 120.193 258.1 120.113 257.908 119.952C257.716 119.791 257.608 119.581 257.582 119.321H258.158C258.183 119.434 258.24 119.525 258.327 119.592C258.417 119.66 258.532 119.694 258.67 119.694C258.836 119.694 258.962 119.642 259.047 119.537C259.131 119.433 259.174 119.295 259.174 119.123C259.174 118.948 259.13 118.815 259.042 118.725C258.958 118.632 258.832 118.585 258.666 118.585C258.547 118.585 258.448 118.615 258.369 118.674C258.29 118.733 258.234 118.812 258.2 118.911H257.633V117.099H259.546V117.62ZM260.158 117.865C260.158 117.651 260.22 117.483 260.344 117.362C260.471 117.24 260.633 117.18 260.831 117.18C261.028 117.18 261.189 117.24 261.313 117.362C261.44 117.483 261.504 117.651 261.504 117.865C261.504 118.083 261.44 118.252 261.313 118.373C261.189 118.495 261.028 118.555 260.831 118.555C260.633 118.555 260.471 118.495 260.344 118.373C260.22 118.252 260.158 118.083 260.158 117.865ZM262.875 117.231L261.212 120.193H260.636L262.295 117.231H262.875ZM260.827 117.535C260.672 117.535 260.594 117.645 260.594 117.865C260.594 118.088 260.672 118.2 260.827 118.2C260.903 118.2 260.962 118.173 261.004 118.119C261.047 118.063 261.068 117.978 261.068 117.865C261.068 117.645 260.988 117.535 260.827 117.535ZM262.016 119.554C262.016 119.337 262.078 119.169 262.202 119.051C262.329 118.929 262.492 118.869 262.689 118.869C262.887 118.869 263.046 118.929 263.167 119.051C263.291 119.169 263.354 119.337 263.354 119.554C263.354 119.772 263.291 119.941 263.167 120.062C263.046 120.183 262.887 120.244 262.689 120.244C262.489 120.244 262.326 120.183 262.202 120.062C262.078 119.941 262.016 119.772 262.016 119.554ZM262.685 119.224C262.524 119.224 262.444 119.334 262.444 119.554C262.444 119.777 262.524 119.889 262.685 119.889C262.843 119.889 262.922 119.777 262.922 119.554C262.922 119.334 262.843 119.224 262.685 119.224Z" fill="white"/>
<rect x="83.7772" y="156.213" width="209.277" height="41.3851" rx="4.61623" stroke="#C8CCDE" stroke-width="0.542233" stroke-dasharray="1.73 1.73"/>
<g filter="url(#filter4_d_382_3367)">
<rect x="90.0742" y="150.543" width="209.277" height="41.3851" rx="4.70285" transform="rotate(3.35609 90.0742 150.543)" fill="white"/>
</g>
<path d="M106.812 172.471C106.505 172.453 106.232 172.384 105.993 172.264C105.754 172.14 105.571 171.976 105.442 171.77C105.313 171.565 105.257 171.331 105.272 171.068L106.074 171.115C106.08 171.313 106.147 171.48 106.275 171.615C106.408 171.75 106.599 171.825 106.849 171.84C107.108 171.855 107.313 171.805 107.465 171.691C107.617 171.572 107.699 171.414 107.71 171.217C107.719 171.064 107.68 170.936 107.594 170.835C107.512 170.733 107.405 170.652 107.272 170.591C107.144 170.531 106.963 170.463 106.73 170.388C106.436 170.292 106.198 170.199 106.014 170.109C105.835 170.015 105.685 169.878 105.563 169.7C105.442 169.521 105.389 169.289 105.406 169.005C105.422 168.742 105.501 168.516 105.644 168.326C105.787 168.137 105.98 167.996 106.223 167.905C106.465 167.814 106.742 167.777 107.053 167.795C107.496 167.821 107.851 167.954 108.118 168.194C108.39 168.43 108.53 168.742 108.538 169.129L107.71 169.08C107.707 168.913 107.636 168.766 107.499 168.639C107.361 168.513 107.174 168.442 106.937 168.428C106.722 168.416 106.544 168.46 106.402 168.562C106.259 168.663 106.182 168.817 106.17 169.023C106.162 169.163 106.197 169.282 106.275 169.379C106.357 169.472 106.463 169.548 106.591 169.608C106.719 169.669 106.896 169.736 107.12 169.811C107.417 169.912 107.658 170.009 107.841 170.104C108.029 170.198 108.184 170.337 108.305 170.52C108.431 170.699 108.485 170.933 108.468 171.222C108.455 171.454 108.378 171.67 108.239 171.868C108.104 172.067 107.913 172.223 107.664 172.336C107.42 172.445 107.136 172.49 106.812 172.471ZM110.373 169.613L110.256 171.617C110.248 171.753 110.273 171.853 110.33 171.918C110.393 171.979 110.501 172.014 110.654 172.023L111.114 172.05L111.077 172.674L110.486 172.64C110.148 172.62 109.895 172.526 109.724 172.358C109.554 172.189 109.479 171.928 109.5 171.573L109.617 169.568L109.19 169.543L109.226 168.932L109.653 168.957L109.706 168.056L110.462 168.101L110.409 169.001L111.29 169.053L111.254 169.664L110.373 169.613ZM111.671 170.876C111.693 170.512 111.786 170.194 111.951 169.923C112.121 169.651 112.34 169.446 112.607 169.308C112.88 169.166 113.173 169.104 113.489 169.123C113.774 169.139 114.018 169.211 114.222 169.337C114.43 169.459 114.593 169.607 114.71 169.781L114.741 169.255L115.497 169.3L115.284 172.921L114.529 172.877L114.56 172.338C114.423 172.501 114.242 172.634 114.016 172.735C113.79 172.836 113.537 172.878 113.257 172.862C112.945 172.843 112.665 172.748 112.416 172.575C112.167 172.398 111.974 172.162 111.837 171.868C111.705 171.57 111.65 171.239 111.671 170.876ZM114.635 171.063C114.65 170.813 114.61 170.593 114.515 170.403C114.425 170.213 114.3 170.065 114.139 169.959C113.978 169.853 113.801 169.794 113.609 169.782C113.416 169.771 113.233 169.809 113.061 169.895C112.889 169.978 112.745 170.108 112.629 170.286C112.518 170.459 112.455 170.671 112.44 170.921C112.426 171.171 112.463 171.393 112.553 171.587C112.647 171.782 112.774 171.934 112.935 172.045C113.1 172.151 113.277 172.21 113.466 172.221C113.658 172.232 113.841 172.195 114.013 172.108C114.185 172.021 114.327 171.889 114.439 171.711C114.555 171.529 114.62 171.313 114.635 171.063ZM117.365 170.023L117.248 172.027C117.24 172.163 117.265 172.263 117.322 172.328C117.385 172.389 117.493 172.424 117.646 172.433L118.106 172.46L118.069 173.084L117.478 173.05C117.141 173.03 116.887 172.936 116.716 172.768C116.546 172.599 116.471 172.338 116.492 171.983L116.609 169.978L116.182 169.953L116.218 169.342L116.645 169.367L116.698 168.467L117.454 168.511L117.401 169.411L118.282 169.463L118.246 170.074L117.365 170.023ZM119.428 169.049C119.292 169.041 119.181 168.988 119.094 168.891C119.007 168.793 118.968 168.677 118.976 168.541C118.984 168.405 119.037 168.294 119.134 168.207C119.232 168.12 119.348 168.081 119.484 168.089C119.616 168.097 119.725 168.149 119.811 168.247C119.898 168.344 119.937 168.461 119.929 168.597C119.921 168.732 119.868 168.844 119.771 168.93C119.674 169.017 119.559 169.056 119.428 169.049ZM119.768 169.55L119.555 173.172L118.806 173.128L119.018 169.506L119.768 169.55ZM121.896 173.368C121.611 173.352 121.358 173.286 121.136 173.172C120.919 173.054 120.749 172.903 120.628 172.72C120.507 172.533 120.449 172.329 120.453 172.11L121.229 172.155C121.233 172.309 121.298 172.443 121.423 172.556C121.553 172.664 121.718 172.725 121.92 172.737C122.13 172.749 122.295 172.719 122.413 172.647C122.537 172.57 122.602 172.469 122.609 172.342C122.617 172.206 122.557 172.101 122.43 172.028C122.307 171.955 122.107 171.87 121.831 171.775C121.564 171.685 121.347 171.599 121.18 171.519C121.013 171.439 120.871 171.323 120.752 171.171C120.638 171.019 120.588 170.825 120.602 170.588C120.613 170.395 120.68 170.224 120.803 170.072C120.927 169.917 121.096 169.799 121.312 169.72C121.532 169.64 121.78 169.609 122.056 169.625C122.468 169.649 122.793 169.774 123.03 169.999C123.272 170.219 123.392 170.51 123.388 170.87L122.639 170.826C122.635 170.664 122.577 170.53 122.464 170.427C122.352 170.324 122.195 170.266 121.993 170.254C121.796 170.243 121.642 170.271 121.533 170.339C121.423 170.408 121.365 170.503 121.358 170.626C121.352 170.722 121.383 170.806 121.449 170.875C121.515 170.945 121.597 171.003 121.696 171.048C121.795 171.089 121.941 171.144 122.135 171.212C122.394 171.298 122.604 171.383 122.766 171.467C122.933 171.547 123.074 171.661 123.188 171.808C123.302 171.956 123.355 172.146 123.346 172.378C123.334 172.584 123.266 172.765 123.143 172.92C123.019 173.076 122.85 173.193 122.634 173.273C122.422 173.353 122.177 173.385 121.896 173.368ZM125.193 170.482L125.075 172.486C125.067 172.622 125.092 172.722 125.15 172.787C125.212 172.848 125.32 172.883 125.474 172.892L125.934 172.919L125.897 173.544L125.305 173.509C124.968 173.489 124.714 173.395 124.544 173.227C124.373 173.058 124.299 172.797 124.319 172.442L124.437 170.437L124.01 170.412L124.046 169.801L124.473 169.826L124.526 168.926L125.281 168.97L125.229 169.87L126.109 169.922L126.074 170.533L125.193 170.482ZM127.255 169.508C127.12 169.5 127.008 169.447 126.922 169.35C126.835 169.252 126.796 169.136 126.804 169C126.812 168.864 126.864 168.753 126.962 168.666C127.059 168.579 127.176 168.54 127.312 168.548C127.443 168.556 127.552 168.608 127.639 168.706C127.725 168.803 127.765 168.92 127.757 169.056C127.749 169.191 127.696 169.303 127.599 169.389C127.501 169.476 127.387 169.515 127.255 169.508ZM127.595 170.009L127.383 173.631L126.634 173.587L126.846 169.965L127.595 170.009ZM128.269 171.862C128.291 171.49 128.385 171.168 128.55 170.896C128.72 170.62 128.943 170.414 129.22 170.276C129.496 170.138 129.807 170.079 130.153 170.1C130.592 170.125 130.947 170.252 131.219 170.479C131.496 170.702 131.674 171.009 131.752 171.4L130.944 171.353C130.889 171.17 130.792 171.023 130.653 170.914C130.514 170.805 130.335 170.744 130.116 170.731C129.81 170.713 129.558 170.808 129.361 171.016C129.169 171.22 129.061 171.517 129.038 171.907C129.015 172.297 129.087 172.607 129.254 172.837C129.425 173.067 129.664 173.191 129.971 173.209C130.405 173.234 130.703 173.06 130.866 172.687L131.674 172.735C131.547 173.097 131.333 173.379 131.031 173.581C130.729 173.779 130.363 173.865 129.934 173.84C129.588 173.819 129.286 173.725 129.027 173.556C128.769 173.382 128.572 173.151 128.435 172.861C128.303 172.568 128.247 172.235 128.269 171.862ZM133.711 174.061C133.426 174.044 133.173 173.979 132.951 173.865C132.733 173.747 132.564 173.596 132.443 173.413C132.322 173.226 132.264 173.022 132.268 172.802L133.043 172.848C133.047 173.002 133.112 173.136 133.237 173.248C133.367 173.357 133.533 173.418 133.735 173.429C133.945 173.442 134.109 173.412 134.228 173.34C134.351 173.263 134.416 173.162 134.424 173.034C134.432 172.899 134.372 172.794 134.244 172.721C134.121 172.647 133.922 172.563 133.646 172.468C133.379 172.377 133.162 172.292 132.995 172.212C132.828 172.132 132.685 172.016 132.567 171.864C132.453 171.712 132.402 171.518 132.416 171.281C132.428 171.088 132.495 170.916 132.618 170.765C132.741 170.61 132.911 170.492 133.127 170.413C133.347 170.333 133.595 170.302 133.871 170.318C134.283 170.342 134.608 170.466 134.845 170.691C135.087 170.912 135.206 171.203 135.203 171.563L134.453 171.519C134.45 171.356 134.392 171.223 134.279 171.12C134.166 171.017 134.009 170.959 133.808 170.947C133.61 170.936 133.457 170.964 133.348 171.032C133.238 171.101 133.18 171.196 133.173 171.319C133.167 171.415 133.197 171.498 133.263 171.568C133.33 171.638 133.412 171.696 133.51 171.741C133.609 171.782 133.756 171.837 133.949 171.905C134.208 171.991 134.419 172.076 134.581 172.16C134.748 172.24 134.888 172.354 135.003 172.501C135.117 172.649 135.17 172.839 135.16 173.071C135.148 173.277 135.081 173.458 134.957 173.613C134.834 173.769 134.664 173.886 134.448 173.966C134.237 174.046 133.991 174.078 133.711 174.061Z" fill="#484A61"/>
<mask id="mask0_382_3367" style="mask-type:alpha" maskUnits="userSpaceOnUse" x="159" y="157" width="128" height="42">
<rect x="161.742" y="157.572" width="124.626" height="33.8605" transform="rotate(3.35609 161.742 157.572)" fill="#D9D9D9"/>
</mask>
<g mask="url(#mask0_382_3367)">
<mask id="mask1_382_3367" style="mask-type:alpha" maskUnits="userSpaceOnUse" x="187" y="160" width="85" height="28">
<rect x="188.852" y="160.136" width="83.2614" height="22.6471" transform="rotate(3.35609 188.852 160.136)" fill="#D9D9D9"/>
</mask>
<g mask="url(#mask1_382_3367)">
</g>
<mask id="mask2_382_3367" style="mask-type:alpha" maskUnits="userSpaceOnUse" x="150" y="136" width="172" height="110">
<rect x="155.895" y="136.185" width="166.356" height="100.247" transform="rotate(3.35609 155.895 136.185)" fill="#D9D9D9"/>
</mask>
<g mask="url(#mask2_382_3367)">
<path d="M167.195 175.254C163.998 175 160.065 178.928 158.295 180.573L155.329 231.148L316.579 240.604L320.958 165.944C319.63 165.755 319.074 150.073 317.458 150.245C315.437 150.46 310.462 166.786 303.776 173.601C298.597 178.879 297.335 182.344 289.121 182.612C278.759 182.951 278.039 165.154 271.391 166.598C265.646 167.846 259.294 179.713 250.191 182.23C244.095 182.039 241.105 173.909 236.416 173.634C231.726 173.359 227.873 180.338 223.67 180.675C219.468 181.012 215.7 169.423 211.379 168.92C207.058 168.417 203.308 176.872 199.861 177.169C196.413 177.467 194.403 172.951 189.891 172.853C185.379 172.755 182.335 177.751 178.554 178.029C174.772 178.307 171.193 175.571 167.195 175.254Z" fill="url(#paint3_linear_382_3367)"/>
<mask id="mask3_382_3367" style="mask-type:alpha" maskUnits="userSpaceOnUse" x="153" y="142" width="175" height="48">
<path d="M174.277 168.288L154.156 182.872L153.232 184.402L164.6 188.238L257.164 187.077L292.739 189.163L304.393 179.588L322.95 164.663L327.498 142.577L262.975 146.3L174.277 168.288Z" fill="#D9D9D9"/>
</mask>
<g mask="url(#mask3_382_3367)">
<path d="M167.021 175.406C163.833 175.152 160.491 178.626 158.726 180.274L156.444 219.184L317.196 228.61L320.93 149.281C319.607 149.092 317.146 149.81 315.597 152.054C314.446 153.721 309.758 166.288 303.735 173.692C297.713 181.095 293.869 182.641 288.3 182.314C277.329 181.671 279.518 167.399 271.206 166.912C265.305 166.565 259.794 181.658 250.197 182.068C244.119 181.879 240.623 173.767 236.421 173.472C232.22 173.176 227.54 181.064 223.334 180.818C219.138 180.571 215.835 169.594 211.527 169.091C207.22 168.588 203.123 177.022 199.686 177.321C196.249 177.62 194.386 172.949 189.888 172.852C185.389 172.755 182.31 177.911 178.541 178.191C174.771 178.47 171.006 175.723 167.021 175.406Z" stroke="url(#paint4_linear_382_3367)" stroke-width="0.666091"/>
</g>
<path d="M208.567 216.472L211.375 168.596" stroke="url(#paint5_linear_382_3367)" stroke-opacity="0.3" stroke-width="0.161025" stroke-linecap="round" stroke-dasharray="0.64 0.64"/>
<circle cx="211.378" cy="168.92" r="1.2959" transform="rotate(3.35609 211.378 168.92)" fill="#F7F7FF" stroke="url(#paint6_linear_382_3367)" stroke-width="0.333046"/>
</g>
</g>
<rect x="156.277" y="170.441" width="16.46" height="20.6926" transform="rotate(3.35609 156.277 170.441)" fill="url(#paint7_linear_382_3367)"/>
<rect width="16.46" height="33.8605" transform="matrix(-0.998285 -0.0585414 -0.0585414 0.998285 292.727 165.253)" fill="url(#paint8_linear_382_3367)"/>
<circle cx="303.108" cy="34.1609" r="3.79563" fill="white"/>
<circle cx="362.208" cy="176.226" r="2.16893" fill="white"/>
<path d="M305.821 31.7207C305.369 32.3533 304.086 33.5643 302.568 33.3474C300.67 33.0762 297.416 31.4495 297.959 27.6539C298.501 23.8583 302.026 14.6403 313.684 13.2848C325.342 11.9292 373.6 25.485 359.773 88.1129C356.52 102.753 337 87.5707 346.76 80.2505C356.52 72.9304 371.16 80.2505 370.076 91.9085C368.991 103.567 302.875 147.149 329.679 177.852C344.591 194.933 368.991 181.377 361.129 175.683" stroke="#C8CCDE" stroke-width="1.0314" stroke-linecap="round" stroke-dasharray="2.06 2.06"/>
<defs>
<filter id="filter0_b_382_3367" x="45.9682" y="4.21623" width="287.084" height="238.825" filterUnits="userSpaceOnUse" color-interpolation-filters="sRGB">
<feFlood flood-opacity="0" result="BackgroundImageFix"/>
<feGaussianBlur in="BackgroundImageFix" stdDeviation="7.10966"/>
<feComposite in2="SourceAlpha" operator="in" result="effect1_backgroundBlur_382_3367"/>
<feBlend mode="normal" in="SourceGraphic" in2="effect1_backgroundBlur_382_3367" result="shape"/>
</filter>
<filter id="filter1_d_382_3367" x="47.5126" y="13.5171" width="276.239" height="227.98" filterUnits="userSpaceOnUse" color-interpolation-filters="sRGB">
<feFlood flood-opacity="0" result="BackgroundImageFix"/>
<feColorMatrix in="SourceAlpha" type="matrix" values="0 0 0 0 0 0 0 0 0 0 0 0 0 0 0 0 0 0 127 0" result="hardAlpha"/>
<feOffset dx="-3.878" dy="3.878"/>
<feGaussianBlur stdDeviation="7.10966"/>
<feComposite in2="hardAlpha" operator="out"/>
<feColorMatrix type="matrix" values="0 0 0 0 0.556863 0 0 0 0 0.556863 0 0 0 0 0.556863 0 0 0 0.07 0"/>
<feBlend mode="normal" in2="BackgroundImageFix" result="effect1_dropShadow_382_3367"/>
<feBlend mode="normal" in="SourceGraphic" in2="effect1_dropShadow_382_3367" result="shape"/>
</filter>
<filter id="filter2_d_382_3367" x="73.2303" y="37.553" width="228.088" height="60.1967" filterUnits="userSpaceOnUse" color-interpolation-filters="sRGB">
<feFlood flood-opacity="0" result="BackgroundImageFix"/>
<feColorMatrix in="SourceAlpha" type="matrix" values="0 0 0 0 0 0 0 0 0 0 0 0 0 0 0 0 0 0 127 0" result="hardAlpha"/>
<feOffset dx="-1.41086" dy="1.41086"/>
<feGaussianBlur stdDeviation="4.70285"/>
<feComposite in2="hardAlpha" operator="out"/>
<feColorMatrix type="matrix" values="0 0 0 0 0.282353 0 0 0 0 0.290196 0 0 0 0 0.380392 0 0 0 0.1 0"/>
<feBlend mode="normal" in2="BackgroundImageFix" result="effect1_dropShadow_382_3367"/>
<feBlend mode="normal" in="SourceGraphic" in2="effect1_dropShadow_382_3367" result="shape"/>
</filter>
<filter id="filter3_d_382_3367" x="74.1709" y="94.9605" width="225.267" height="57.375" filterUnits="userSpaceOnUse" color-interpolation-filters="sRGB">
<feFlood flood-opacity="0" result="BackgroundImageFix"/>
<feColorMatrix in="SourceAlpha" type="matrix" values="0 0 0 0 0 0 0 0 0 0 0 0 0 0 0 0 0 0 127 0" result="hardAlpha"/>
<feOffset dx="-1.88114" dy="1.88114"/>
<feGaussianBlur stdDeviation="3.99742"/>
<feComposite in2="hardAlpha" operator="out"/>
<feColorMatrix type="matrix" values="0 0 0 0 0.7625 0 0 0 0 0.7625 0 0 0 0 0.7625 0 0 0 0.25 0"/>
<feBlend mode="normal" in2="BackgroundImageFix" result="effect1_dropShadow_382_3367"/>
<feBlend mode="normal" in="SourceGraphic" in2="effect1_dropShadow_382_3367" result="shape"/>
</filter>
<filter id="filter4_d_382_3367" x="75.6912" y="142.345" width="231.499" height="73.7238" filterUnits="userSpaceOnUse" color-interpolation-filters="sRGB">
<feFlood flood-opacity="0" result="BackgroundImageFix"/>
<feColorMatrix in="SourceAlpha" type="matrix" values="0 0 0 0 0 0 0 0 0 0 0 0 0 0 0 0 0 0 127 0" result="hardAlpha"/>
<feOffset dx="-1.88114" dy="1.88114"/>
<feGaussianBlur stdDeviation="5.17314"/>
<feComposite in2="hardAlpha" operator="out"/>
<feColorMatrix type="matrix" values="0 0 0 0 0.282353 0 0 0 0 0.290196 0 0 0 0 0.380392 0 0 0 0.12 0"/>
<feBlend mode="normal" in2="BackgroundImageFix" result="effect1_dropShadow_382_3367"/>
<feBlend mode="normal" in="SourceGraphic" in2="effect1_dropShadow_382_3367" result="shape"/>
</filter>
<linearGradient id="paint0_linear_382_3367" x1="318.832" y1="106.058" x2="-74.6232" y2="109.296" gradientUnits="userSpaceOnUse">
<stop stop-color="#F3F3F3"/>
<stop offset="1" stop-color="#F2F2F2" stop-opacity="0"/>
</linearGradient>
<linearGradient id="paint1_linear_382_3367" x1="508.705" y1="-196.498" x2="-75.5236" y2="93.2751" gradientUnits="userSpaceOnUse">
<stop stop-color="#D6DAFF" stop-opacity="0.8"/>
<stop offset="1" stop-color="#F4F4F4" stop-opacity="0.3"/>
</linearGradient>
<linearGradient id="paint2_linear_382_3367" x1="185.396" y1="80.8195" x2="222.28" y2="23.992" gradientUnits="userSpaceOnUse">
<stop stop-color="#8276FF"/>
<stop offset="1" stop-color="#FD779F" stop-opacity="0.8"/>
</linearGradient>
<linearGradient id="paint3_linear_382_3367" x1="239.539" y1="172.498" x2="237.97" y2="199.258" gradientUnits="userSpaceOnUse">
<stop stop-color="#8276FF" stop-opacity="0.2"/>
<stop offset="1" stop-color="white" stop-opacity="0"/>
</linearGradient>
<linearGradient id="paint4_linear_382_3367" x1="153.954" y1="226.188" x2="416.267" y2="193.842" gradientUnits="userSpaceOnUse">
<stop stop-color="#8276FF"/>
<stop offset="1" stop-color="#EF4AD5"/>
</linearGradient>
<linearGradient id="paint5_linear_382_3367" x1="211.874" y1="168.625" x2="210.641" y2="189.647" gradientUnits="userSpaceOnUse">
<stop/>
<stop offset="1" stop-opacity="0"/>
</linearGradient>
<linearGradient id="paint6_linear_382_3367" x1="210.049" y1="170.511" x2="215.949" y2="170.331" gradientUnits="userSpaceOnUse">
<stop stop-color="#8276FF"/>
<stop offset="1" stop-color="#EF4AD5"/>
</linearGradient>
<linearGradient id="paint7_linear_382_3367" x1="162.391" y1="182.434" x2="169.21" y2="182.434" gradientUnits="userSpaceOnUse">
<stop stop-color="white"/>
<stop offset="1" stop-color="white" stop-opacity="0"/>
</linearGradient>
<linearGradient id="paint8_linear_382_3367" x1="6.11371" y1="19.6237" x2="12.9328" y2="19.6237" gradientUnits="userSpaceOnUse">
<stop stop-color="white"/>
<stop offset="1" stop-color="white" stop-opacity="0"/>
</linearGradient>
</defs>
</svg>
