<svg width="166" height="37" viewBox="0 0 166 37" fill="none" xmlns="http://www.w3.org/2000/svg">
<g id="Group 4297">
<g id="Group 3170">
<g id="Group 3158">
<path id="Vector" d="M18.0073 0.541552L25.0147 2.67401C31.4517 4.63289 35.0484 11.3312 33.0483 17.6351L27.8821 36.8572L8.58648 30.2328C2.14951 28.2739 -1.44722 21.5756 0.552984 15.2717L2.73044 8.40908C4.7306 2.1051 11.5703 -1.41731 18.0073 0.541552Z" fill="url(#paint0_linear_382_4488)"/>
<g id="Group 3087">
<g id="Group 3085">
<path id="Vector_2" fill-rule="evenodd" clip-rule="evenodd" d="M13.5806 12.3782C13.2421 12.5695 13.126 12.9934 13.3215 13.3249L16.0869 18.0152C16.1143 18.0616 16.1749 18.0775 16.2223 18.0507C16.2878 18.0136 16.3699 18.0607 16.3709 18.1349C16.3716 18.1892 16.4172 18.2334 16.4726 18.2327L19.9562 18.1874C20.347 18.1822 20.6597 17.8679 20.6545 17.4851C20.6493 17.1023 20.3282 16.7962 19.9374 16.8013L18.6757 16.8178C17.6583 16.831 16.713 16.3047 16.2041 15.4417L14.5474 12.6318C14.3519 12.3003 13.9191 12.1867 13.5806 12.3782Z" fill="white"/>
<path id="Vector_3" fill-rule="evenodd" clip-rule="evenodd" d="M20.121 7.74957C20.2318 7.19346 20.8227 6.86054 21.3453 7.10339C23.169 7.95104 24.7577 9.33082 25.8434 11.1724C28.6895 16.0001 27.0005 22.1732 22.071 24.9604C17.1414 27.7477 10.838 26.0936 7.99192 21.266C5.14583 16.4383 6.83482 10.2652 11.7644 7.47788C13.1854 6.67442 14.7205 6.24002 16.254 6.14434C16.8336 6.10811 17.2566 6.63566 17.1454 7.19393C17.0577 7.63422 16.6609 7.94467 16.2044 7.98221C15.0054 8.08108 13.8092 8.43365 12.6982 9.06185C8.66195 11.344 7.27906 16.3985 9.60931 20.3515C11.9397 24.3044 17.1009 25.6587 21.1372 23.3765C25.1734 21.0943 26.5563 16.0398 24.226 12.0869C23.3674 10.6306 22.1246 9.52696 20.6954 8.82798C20.284 8.62679 20.0329 8.19155 20.121 7.74957Z" fill="white"/>
</g>
<g id="Group 3084">
<path id="Vector_4" d="M20.1279 18.1702L20.1233 17.8262L20.1279 18.1702ZM20.1092 16.7841L20.1138 17.1281L20.1092 16.7841ZM14.7192 12.6146L14.4149 12.7866L14.7192 12.6146ZM13.7975 13.1357C13.6991 12.9687 13.7575 12.7552 13.928 12.6589L13.5766 12.063C13.0701 12.3493 12.8965 12.9836 13.189 13.4797L13.7975 13.1357ZM16.563 17.826L13.7975 13.1357L13.189 13.4797L15.9543 18.17L16.563 17.826ZM20.1233 17.8262L16.6397 17.8715L16.6491 18.5595L20.1326 18.5142L20.1233 17.8262ZM20.4749 17.4725C20.4776 17.6652 20.3202 17.8235 20.1233 17.8262L20.1326 18.5142C20.7176 18.5066 21.1854 18.0361 21.1776 17.4633L20.4749 17.4725ZM20.1138 17.1281C20.3106 17.1256 20.4724 17.2797 20.4749 17.4725L21.1776 17.4633C21.1698 16.8906 20.6894 16.4325 20.1045 16.4401L20.1138 17.1281ZM18.8522 17.1446L20.1138 17.1281L20.1045 16.4401L18.8429 16.4565L18.8522 17.1446ZM14.4149 12.7866L16.0716 15.5965L16.6802 15.2525L15.0235 12.4426L14.4149 12.7866ZM13.928 12.6589C14.0985 12.5625 14.3164 12.6197 14.4149 12.7866L15.0235 12.4426C14.7309 11.9465 14.0832 11.7765 13.5766 12.063L13.928 12.6589ZM16.1913 18.1222C16.1946 18.3627 16.3958 18.5629 16.6491 18.5595L16.6397 17.8715C16.7822 17.8696 16.8922 17.9812 16.894 18.1131L16.1913 18.1222ZM18.8429 16.4565C17.9525 16.468 17.1253 16.0076 16.6802 15.2525L16.0716 15.5965C16.644 16.5674 17.7075 17.1595 18.8522 17.1446L18.8429 16.4565ZM16.5696 18.3315C16.3954 18.43 16.1938 18.3025 16.1913 18.1222L16.894 18.1131C16.8895 17.7845 16.5237 17.5629 16.2183 17.7355L16.5696 18.3315ZM15.9543 18.17C16.0788 18.381 16.3543 18.4533 16.5696 18.3315L16.2183 17.7355C16.339 17.6673 16.4933 17.7078 16.563 17.826L15.9543 18.17Z" fill="white"/>
<path id="Vector_5" d="M26.2489 11.4019C25.1143 9.47717 23.4528 8.0341 21.546 7.14788L21.1443 7.9769C22.8848 8.78588 24.4009 10.1024 25.4375 11.8608L26.2489 11.4019ZM22.305 25.8167C27.4586 22.9028 29.2244 16.449 26.2489 11.4019L25.4375 11.8608C28.1543 16.469 26.542 22.3616 21.8366 25.0221L22.305 25.8167ZM7.586 21.9543C10.5614 27.0014 17.1514 28.7307 22.305 25.8167L21.8366 25.0221C17.131 27.6827 11.1142 26.1038 8.39743 21.4956L7.586 21.9543ZM11.5299 7.5395C6.37633 10.4535 4.61056 16.9072 7.586 21.9543L8.39743 21.4956C5.68077 16.8873 7.293 10.9948 11.9985 8.33416L11.5299 7.5395ZM16.224 6.14539C14.6201 6.24547 13.0147 6.7 11.5299 7.5395L11.9985 8.33416C13.3555 7.56684 14.8205 7.15247 16.2837 7.0611L16.224 6.14539ZM12.9322 9.91813C13.9824 9.32448 15.1118 8.99166 16.2435 8.89841L16.165 7.98401C14.8988 8.08831 13.6357 8.46083 12.4638 9.12347L12.9322 9.91813ZM10.0149 20.581C7.81391 16.8476 9.12004 12.0737 12.9322 9.91813L12.4638 9.12347C8.20346 11.5324 6.7437 16.8675 9.2034 21.0398L10.0149 20.581ZM20.9027 23.4381C17.0905 25.5936 12.2158 24.3144 10.0149 20.581L9.2034 21.0398C11.6632 25.2121 17.1109 26.6416 21.3712 24.2328L20.9027 23.4381ZM23.8201 12.7753C26.0211 16.5087 24.7149 21.2826 20.9027 23.4381L21.3712 24.2328C25.6316 21.8239 27.0912 16.4888 24.6315 12.3165L23.8201 12.7753ZM20.4859 9.69737C21.8355 10.3574 23.0089 11.3992 23.8201 12.7753L24.6315 12.3165C23.7257 10.7798 22.4134 9.61442 20.9045 8.8765L20.4859 9.69737ZM16.2837 7.0611C16.5204 7.04631 16.7451 7.26557 16.6855 7.56506L17.605 7.74079C17.7678 6.92366 17.1466 6.08782 16.224 6.14539L16.2837 7.0611ZM20.9045 8.8765C20.6578 8.75573 20.5378 8.51166 20.5806 8.29643L19.661 8.1207C19.5278 8.78943 19.9099 9.41566 20.4859 9.69737L20.9045 8.8765ZM16.6855 7.56506C16.6426 7.77955 16.4391 7.96145 16.165 7.98401L16.2435 8.89841C16.8823 8.84579 17.4723 8.40671 17.605 7.74079L16.6855 7.56506ZM21.546 7.14788C20.7145 6.76142 19.8233 7.30629 19.661 8.1207L20.5806 8.29643C20.64 7.99862 20.9305 7.87757 21.1443 7.9769L21.546 7.14788Z" fill="white"/>
</g>
</g>
</g>
<g id="Group 3169">
<g id="Group 3168">
<path id="Vector_6" d="M50.8644 28.2084C50.3263 28.2084 49.9035 28.0659 49.596 27.7808C49.2885 27.4766 49.0771 27.0014 48.9618 26.3551L45.5312 8.25H47.6357L50.7779 25.4713H50.8068L55.8804 9.30501H56.7741C57.12 9.30501 57.3987 9.40956 57.6101 9.61865C57.8215 9.80874 57.9945 10.1128 58.1289 10.531L62.6261 25.4713H62.6549L65.7971 8.25H67.9016L64.4711 26.3551C64.3557 27.0014 64.1443 27.4766 63.8369 27.7808C63.5294 28.0659 63.1066 28.2084 62.5684 28.2084H61.7037L56.803 12.1277H56.7741L51.7293 28.2084H50.8644ZM74.8091 28.4365C73.1948 28.4365 71.8976 27.9708 70.9174 27.0394C69.9373 26.0891 69.4472 24.8345 69.4472 23.2758V19.1986C69.4472 17.564 69.9373 16.2524 70.9174 15.264C71.8976 14.2566 73.1948 13.7529 74.8091 13.7529H77.173C78.7105 13.7529 79.9501 14.2376 80.8918 15.207C81.8335 16.1763 82.3044 17.4594 82.3044 19.0561V21.5651H71.5228V23.2758C71.5228 24.2643 71.8207 25.0721 72.4165 25.6994C73.0315 26.3076 73.829 26.6118 74.8091 26.6118H77.0001C77.961 26.6118 78.7393 26.3551 79.3351 25.842C79.9309 25.3097 80.2288 24.6064 80.2288 23.732H82.2467C82.2467 25.1387 81.7662 26.2791 80.8053 27.1535C79.8444 28.0089 78.576 28.4365 77.0001 28.4365H74.8091ZM80.2288 19.7974V19.0561C80.2288 18.0106 79.9501 17.1743 79.3927 16.5471C78.8355 15.9008 78.0955 15.5776 77.173 15.5776H74.8091C73.829 15.5776 73.0315 15.9102 72.4165 16.5755C71.8207 17.2408 71.5228 18.1152 71.5228 19.1986V19.7974H80.2288ZM91.6091 28.4365C90.9742 28.4365 90.3023 28.2464 89.5907 27.8662C88.8797 27.4672 88.332 26.9729 87.9476 26.3837V28.2084H85.9296V8.25H88.0053V15.6632C88.4281 15.0739 88.9662 14.6082 89.6196 14.266C90.2919 13.924 90.9836 13.7529 91.6953 13.7529H93.7422C94.7225 13.7529 95.5865 13.981 96.336 14.4371C97.1054 14.8743 97.7006 15.5016 98.1236 16.319C98.5655 17.1173 98.787 18.0392 98.787 19.0846V22.7627C98.787 23.8841 98.5655 24.8725 98.1236 25.7279C97.7006 26.5832 97.0959 27.2485 96.3076 27.7237C95.5392 28.1989 94.6449 28.4365 93.6267 28.4365H91.6091ZM93.569 26.6118C94.4916 26.6118 95.2411 26.2601 95.8174 25.5568C96.4136 24.8345 96.7108 23.9031 96.7108 22.7627V19.0846C96.7108 18.0392 96.4231 17.1933 95.8468 16.5471C95.2894 15.9008 94.5683 15.5776 93.6844 15.5776H91.753C90.7537 15.5776 89.8982 15.9388 89.1871 16.6611C88.4761 17.3833 88.0821 18.3338 88.0053 19.5123V22.9908C88.0437 23.656 88.2359 24.2643 88.5818 24.8155C88.9278 25.3668 89.3698 25.804 89.9077 26.1271C90.4461 26.4502 91.013 26.6118 91.6091 26.6118H93.569Z" fill="#424253"/>
<path id="Vector_7" d="M107.893 28.2065C107.344 28.2065 106.911 28.0641 106.597 27.7792C106.282 27.4754 106.066 27.0006 105.949 26.355L102.375 8.25033H104.514L107.805 25.472H107.834L112.374 9.32168H113.934C114.289 9.32168 114.573 9.42612 114.789 9.63501C115.005 9.82491 115.182 10.1287 115.32 10.5465L119.917 25.472H119.946L123.155 8.25033H125.294L121.803 26.355C121.685 27.0006 121.468 27.4754 121.154 27.7792C120.841 28.0641 120.408 28.2065 119.858 28.2065H118.791L113.964 12.1416H113.934L108.777 28.2065H107.893ZM132.371 28.4343C130.72 28.4343 129.394 27.9406 128.393 26.9531C127.391 25.9657 126.89 24.6649 126.89 23.0509V19.1486C126.89 17.5345 127.391 16.2337 128.393 15.2463C129.414 14.2588 130.25 13.7651 132.43 13.7651H134.846C136.516 13.7651 137.852 14.2588 138.854 15.2463C139.876 16.2337 140.386 17.5345 140.386 19.1486V23.0509C140.386 24.6649 139.876 25.9657 138.854 26.9531C137.833 27.9406 136.477 28.4343 134.787 28.4343H132.371ZM133.917 26.1427C135.445 26.1427 136.057 25.9899 136.668 25.0732C137.296 24.4086 137.89 24.3033 137.89 23.2399L137.737 18.8094C137.126 17.8927 136.973 17.5871 136.515 16.976C135.799 16.0214 134.987 16.0594 133.917 16.0594H132.084C131.062 16.0594 130.115 16.1586 129.486 16.8232C128.858 17.4689 128.722 18.0852 128.722 19.1486V23.0509C128.722 24.1333 128.877 24.8095 129.486 25.4552C130.095 26.1008 131.062 26.1427 132.084 26.1427H133.917ZM144.286 13.9656H145.53V16.2121C145.922 15.5475 147.331 14.9804 148.117 14.5627C148.671 14.0559 147.755 13.9031 150.658 13.9031L151.794 13.9207V15.9066H150.572C149.044 15.9066 147.677 15.9066 146.752 16.8232C145.986 17.5829 145.53 18.6566 145.53 20.0316V28.1891H144.286V13.9656ZM164.692 28.2065L158.364 20.9482L155.92 23.0509V28.2065H154.761V8.23242H155.92V20.9482L164.162 13.993H165.546L159.281 20.3371L166.004 28.2065H164.692Z" fill="#424253"/>
</g>
<path id="Vector_8" d="M106.832 28.1908C106.295 28.1908 105.872 28.0483 105.564 27.7632C105.257 27.459 105.045 26.9838 104.93 26.3376L101.5 8.23242H103.604L106.746 25.4537H106.775L111.841 9.31925H112.758C113.104 9.31925 113.367 9.39198 113.578 9.60107C113.79 9.79116 113.963 10.0953 114.097 10.5134L118.106 25.6247L119.023 25.4537L122.231 8.23242H123.87L120.44 26.3376C120.324 26.9838 120.112 27.459 119.805 27.7632C119.498 28.0483 119.075 28.1908 118.537 28.1908H117.672L112.772 12.1101H112.742L107.697 28.1908H106.832ZM130.777 28.4189C129.163 28.4189 127.865 27.9248 126.886 26.9363C125.906 25.9479 125.415 24.6458 125.415 23.0302V19.1241C125.415 17.5084 125.906 16.2063 126.886 15.2179C127.885 14.2295 129.154 13.7498 130.788 13.7498H133.199C134.832 13.7498 136.139 14.2295 137.119 15.2179C138.119 16.2063 138.618 17.5084 138.618 19.1241V23.0302C138.618 24.6458 138.119 25.9479 137.119 26.9363C136.12 27.9248 134.794 28.4189 133.141 28.4189H130.777ZM133.141 26.5942C134.179 26.5942 135.52 26.271 136.135 25.6247C136.751 24.9595 136.899 24.0946 136.899 23.0302V19.1241C136.899 18.0596 136.751 17.2042 136.135 16.5579C135.524 15.7359 134.198 15.56 133.199 15.56H130.835C129.836 15.56 129.028 15.8927 128.413 16.5579C127.798 17.2042 127.491 18.0596 127.491 19.1241V23.0302C127.491 24.1136 127.789 24.9785 128.385 25.6247C128.98 26.271 129.778 26.5942 130.777 26.5942H133.141ZM142.433 13.9634H144.451V16.1588C144.835 15.4935 145.412 14.9517 146.18 14.5337C146.969 14.1155 147.785 13.9064 148.63 13.9064H149.899V15.7597H148.63C147.401 15.7597 146.401 16.1493 145.632 16.9286C144.883 17.689 144.508 18.7059 144.508 19.9794V28.1908H142.433V13.9634ZM162.395 28.1908L156.745 21.462L154.756 23.4294V28.1908H152.68V8.23242H154.756V20.9203L161.876 13.9634H164.413L158.186 20.065L164.874 28.1908H162.395Z" fill="#424253"/>
</g>
</g>
</g>
<defs>
<linearGradient id="paint0_linear_382_4488" x1="61.7285" y1="-45.0693" x2="9.32945" y2="72.4205" gradientUnits="userSpaceOnUse">
<stop stop-color="#63F4FD"/>
<stop offset="0.67619" stop-color="#8274FE"/>
<stop offset="0.875084" stop-color="#7C2BFF"/>
</linearGradient>
</defs>
</svg>
